SplineFontDB: 3.2
FontName: Pretension-ThinItalic
FullName: Pretension Thin Italic
FamilyName: Pretension Thin
Weight: Thin
Copyright: Copyright 2016 The Inter Project Authors
Version: 4.000;git-a52131595
ItalicAngle: -9.39999
UnderlinePosition: -395
UnderlineWidth: 46
Ascent: 1638
Descent: 410
InvalidEm: 0
sfntRevision: 0x00040000
LayerCount: 2
Layer: 0 1 "Back" 1
Layer: 1 1 "Fore" 0
XUID: [1021 89 -1234937351 5401588]
StyleMap: 0x0001
FSType: 0
OS2Version: 4
OS2_WeightWidthSlopeOnly: 0
OS2_UseTypoMetrics: 1
CreationTime: 1700438797
ModificationTime: 1707688577
PfmFamily: 17
TTFWeight: 100
TTFWidth: 5
LineGap: 0
VLineGap: 0
Panose: 2 0 5 3 0 0 0 2 0 4
OS2TypoAscent: 1984
OS2TypoAOffset: 0
OS2TypoDescent: -494
OS2TypoDOffset: 0
OS2TypoLinegap: 0
OS2WinAscent: 1984
OS2WinAOffset: 0
OS2WinDescent: 494
OS2WinDOffset: 0
HheadAscent: 1984
HheadAOffset: 0
HheadDescent: -494
HheadDOffset: 0
OS2SubXSize: 1331
OS2SubYSize: 1229
OS2SubXOff: -25
OS2SubYOff: 154
OS2SupXSize: 1331
OS2SupYSize: 1229
OS2SupXOff: 119
OS2SupYOff: 717
OS2StrikeYSize: 46
OS2StrikeYPos: 653
OS2CapHeight: 1490
OS2XHeight: 1087
OS2Vendor: 'RSMS'
OS2CodePages: 0000019f.00000000
OS2UnicodeRanges: e0000aff.5200a1ff.00000021.00000000
Lookup: 1 0 0 "'aalt' Access All Alternates in Latin lookup 0" { "'aalt' Access All Alternates in Latin lookup 0 subtable"  } ['aalt' ('DFLT' <'dflt' > 'latn' <'CAT ' 'MOL ' 'ROM ' 'dflt' > ) ]
Lookup: 3 0 0 "'aalt' Access All Alternates in Latin lookup 1" { "'aalt' Access All Alternates in Latin lookup 1 subtable"  } ['aalt' ('DFLT' <'dflt' > 'latn' <'CAT ' 'MOL ' 'ROM ' 'dflt' > ) ]
Lookup: 1 0 0 "Single Substitution lookup 2" { "Single Substitution lookup 2 subtable"  } []
Lookup: 4 0 0 "'ccmp' Glyph Composition/Decomposition in Latin lookup 3" { "'ccmp' Glyph Composition/Decomposition in Latin lookup 3 subtable"  } ['ccmp' ('DFLT' <'dflt' > 'latn' <'CAT ' 'MOL ' 'ROM ' 'dflt' > ) ]

StartChar: .notdef
Encoding: 1114112 -1 0
Width: 1339
Flags: W
LayerCount: 2
Fore
SplineSet
856 -416 m 1,0,-1
 168 -416 l 1,1,-1
 544 1856 l 1,2,-1
 1232 1856 l 1,3,-1
 856 -416 l 1,0,-1
389 -192 m 1,4,-1
 379 -256 l 1,5,-1
 699 -256 l 1,6,-1
 709 -192 l 1,7,-1
 494 -192 l 1,8,-1
 730 -65 l 1,9,-1
 741 0 l 1,10,-1
 421 0 l 1,11,-1
 410 -64 l 1,12,-1
 626 -64 l 1,13,-1
 389 -192 l 1,4,-1
474 320 m 1,14,-1
 432 64 l 1,15,-1
 752 64 l 1,16,-1
 794 320 l 1,17,-1
 474 320 l 1,14,-1
698 128 m 1,18,-1
 506 128 l 1,19,-1
 527 256 l 1,20,-1
 719 256 l 1,21,-1
 698 128 l 1,18,-1
538 704 m 1,22,-1
 495 448 l 1,23,-1
 815 448 l 1,24,-1
 858 704 l 1,25,-1
 666 704 l 1,26,-1
 644 576 l 1,27,-1
 708 576 l 1,28,-1
 719 640 l 1,29,-1
 783 640 l 1,30,-1
 762 512 l 1,31,-1
 570 512 l 1,32,-1
 602 704 l 1,33,-1
 538 704 l 1,22,-1
559 832 m 1,34,-1
 548 768 l 1,35,-1
 868 768 l 1,36,-1
 905 992 l 1,37,-1
 841 992 l 1,38,-1
 815 832 l 1,39,-1
 559 832 l 1,34,-1
580 960 m 1,40,-1
 569 896 l 1,41,-1
 761 896 l 1,42,-1
 788 1056 l 1,43,-1
 916 1056 l 1,44,-1
 926 1120 l 1,45,-1
 606 1120 l 1,46,-1
 596 1056 l 1,47,-1
 724 1056 l 1,48,-1
 708 960 l 1,49,-1
 580 960 l 1,40,-1
756 1248 m 1,50,-1
 692 1248 l 1,51,-1
 707 1344 l 1,52,-1
 771 1344 l 1,53,-1
 756 1248 l 1,50,-1
654 1408 m 1,54,-1
 617 1184 l 1,55,-1
 937 1184 l 1,56,-1
 948 1248 l 1,57,-1
 820 1248 l 1,58,-1
 846 1408 l 1,59,-1
 654 1408 l 1,54,-1
675 1536 m 1,60,-1
 665 1472 l 1,61,-1
 985 1472 l 1,62,-1
 995 1536 l 1,63,-1
 851 1536 l 1,64,-1
 867 1632 l 1,65,-1
 1011 1632 l 1,66,-1
 1022 1696 l 1,67,-1
 702 1696 l 1,68,-1
 691 1632 l 1,69,-1
 803 1632 l 1,70,-1
 787 1536 l 1,71,-1
 675 1536 l 1,60,-1
EndSplineSet
EndChar

StartChar: A
Encoding: 65 65 2
Width: 1265
GlyphClass: 2
Flags: W
AnchorPoint: "Anchor-4" 1132 0 basechar 0
AnchorPoint: "Anchor-1" 789 1490 basechar 0
AnchorPoint: "Anchor-0" 542 0 basechar 0
LayerCount: 2
Fore
SplineSet
-47 0 m 1,0,-1
 758 1490 l 1,1,-1
 821 1490 l 1,2,-1
 1132 0 l 1,3,-1
 1086 0 l 1,4,-1
 844 1154 l 2,5,6
 829 1234 829 1234 812 1314.5 c 128,-1,7
 795 1395 795 1395 779 1475 c 1,8,-1
 797 1475 l 1,9,10
 755 1394 755 1394 712.5 1314.5 c 128,-1,11
 670 1235 670 1235 627 1154 c 2,12,-1
 5 0 l 1,13,-1
 -47 0 l 1,0,-1
255 494 m 1,14,-1
 263 540 l 1,15,-1
 1001 540 l 1,16,-1
 993 494 l 1,17,-1
 255 494 l 1,14,-1
EndSplineSet
Substitution2: "'c2sc' Capitals to Small Capitals in Latin lookup 67 subtable" a.sc
Substitution2: "'ss06' Style Set 6 in Latin lookup 52 subtable" A.squared
Substitution2: "'ss05' Style Set 5 in Latin lookup 51 subtable" uni24B6
Substitution2: "Single Substitution lookup 44 subtable" ordfeminine
AlternateSubs2: "'aalt' Access All Alternates in Latin lookup 1 subtable" ordfeminine a.sc
Position2: "'cpsp' Capital Spacing in Latin lookup 0 subtable" dx=0 dy=0 dh=0 dv=0
EndChar

StartChar: uni023A
Encoding: 570 570 46
Width: 1265
GlyphClass: 2
Flags: W
AnchorPoint: "Anchor-4" 1132 0 basechar 0
AnchorPoint: "Anchor-1" 789 1490 basechar 0
AnchorPoint: "Anchor-0" 542 0 basechar 0
LayerCount: 2
Fore
SplineSet
1149 1678 m 1,0,-1
 176 -190 l 1,1,-1
 126 -190 l 1,2,-1
 1099 1678 l 1,3,-1
 1149 1678 l 1,0,-1
-47 0 m 1,4,-1
 758 1490 l 1,5,-1
 821 1490 l 1,6,-1
 1132 0 l 1,7,-1
 1086 0 l 1,8,-1
 844 1154 l 2,9,10
 829 1234 829 1234 812 1314.5 c 128,-1,11
 795 1395 795 1395 779 1475 c 1,12,-1
 797 1475 l 1,13,14
 755 1394 755 1394 712.5 1314.5 c 128,-1,15
 670 1235 670 1235 627 1154 c 2,16,-1
 5 0 l 1,17,-1
 -47 0 l 1,4,-1
255 494 m 1,18,-1
 263 540 l 1,19,-1
 1001 540 l 1,20,-1
 993 494 l 1,21,-1
 255 494 l 1,18,-1
EndSplineSet
Position2: "'cpsp' Capital Spacing in Latin lookup 0 subtable" dx=0 dy=0 dh=0 dv=0
EndChar

StartChar: Lambda
Encoding: 923 923 60
Width: 1265
GlyphClass: 2
Flags: W
AnchorPoint: "Anchor-1" 789 1490 basechar 0
AnchorPoint: "Anchor-0" 542 0 basechar 0
LayerCount: 2
Fore
SplineSet
-47 0 m 1,0,-1
 758 1490 l 1,1,-1
 821 1490 l 1,2,-1
 1132 0 l 1,3,-1
 1086 0 l 1,4,-1
 844 1154 l 2,5,6
 828 1234 828 1234 811.5 1314.5 c 128,-1,7
 795 1395 795 1395 779 1475 c 1,8,-1
 797 1475 l 1,9,10
 755 1394 755 1394 712.5 1314.5 c 128,-1,11
 670 1235 670 1235 627 1154 c 2,12,-1
 5 0 l 1,13,-1
 -47 0 l 1,0,-1
EndSplineSet
Position2: "'cpsp' Capital Spacing in Latin lookup 0 subtable" dx=0 dy=0 dh=0 dv=0
EndChar

StartChar: AE
Encoding: 198 198 61
Width: 1906
GlyphClass: 2
Flags: W
AnchorPoint: "Anchor-1" 1390 1490 basechar 0
LayerCount: 2
Fore
SplineSet
-47 0 m 1,0,-1
 961 1490 l 1,1,-1
 1928 1490 l 1,2,-1
 1921 1443 l 1,3,-1
 1175 1443 l 1,4,-1
 1062 768 l 1,5,-1
 1767 768 l 1,6,-1
 1759 722 l 1,7,-1
 1056 722 l 1,8,-1
 943 47 l 1,9,-1
 1712 47 l 1,10,-1
 1704 0 l 1,11,-1
 887 0 l 1,12,-1
 1127 1443 l 1,13,-1
 983 1443 l 1,14,-1
 7 0 l 1,15,-1
 -47 0 l 1,0,-1
328 504 m 1,16,-1
 336 550 l 1,17,-1
 1004 550 l 1,18,-1
 996 504 l 1,19,-1
 328 504 l 1,16,-1
EndSplineSet
Position2: "'cpsp' Capital Spacing in Latin lookup 0 subtable" dx=0 dy=0 dh=0 dv=0
EndChar

StartChar: B
Encoding: 66 66 65
Width: 1274
GlyphClass: 2
Flags: W
AnchorPoint: "Anchor-1" 755 1485 basechar 0
AnchorPoint: "Anchor-0" 528 0 basechar 0
LayerCount: 2
Fore
SplineSet
110 0 m 1,0,-1
 357 1490 l 1,1,-1
 820 1490 l 2,2,3
 949 1490 949 1490 1036 1444 c 128,-1,4
 1123 1398 1123 1398 1161.5 1313 c 128,-1,5
 1200 1228 1200 1228 1180 1109 c 0,6,7
 1166 1022 1166 1022 1122 950 c 128,-1,8
 1078 878 1078 878 1014.5 828.5 c 128,-1,9
 951 779 951 779 877 759 c 1,10,-1
 877 757 l 1,11,12
 952 747 952 747 1013 698 c 128,-1,13
 1074 649 1074 649 1105 569.5 c 128,-1,14
 1136 490 1136 490 1119 387 c 0,15,16
 1100 270 1100 270 1033.5 183.5 c 128,-1,17
 967 97 967 97 863.5 48.5 c 128,-1,18
 760 0 760 0 626 0 c 2,19,-1
 110 0 l 1,0,-1
164 47 m 1,20,-1
 631 47 l 2,21,22
 808 47 808 47 928 143 c 128,-1,23
 1048 239 1048 239 1074 392 c 0,24,25
 1091 497 1091 497 1052 574 c 128,-1,26
 1013 651 1013 651 933 692.5 c 128,-1,27
 853 734 853 734 748 734 c 2,28,-1
 278 734 l 1,29,-1
 164 47 l 1,20,-1
286 780 m 1,30,-1
 752 780 l 2,31,32
 854 780 854 780 935 826.5 c 128,-1,33
 1016 873 1016 873 1068 950 c 128,-1,34
 1120 1027 1120 1027 1135 1116 c 0,35,36
 1161 1273 1161 1273 1073 1359 c 128,-1,37
 985 1445 985 1445 815 1445 c 2,38,-1
 396 1445 l 1,39,-1
 286 780 l 1,30,-1
EndSplineSet
Substitution2: "'ss06' Style Set 6 in Latin lookup 52 subtable" B.squared
Substitution2: "'ss05' Style Set 5 in Latin lookup 51 subtable" uni24B7
Position2: "'cpsp' Capital Spacing in Latin lookup 0 subtable" dx=0 dy=0 dh=0 dv=0
EndChar

StartChar: uni0181
Encoding: 385 385 70
Width: 1434
GlyphClass: 2
Flags: W
AnchorPoint: "Anchor-1" 915 1485 basechar 0
AnchorPoint: "Anchor-0" 688 0 basechar 0
LayerCount: 2
Fore
SplineSet
148 1118 m 1,0,-1
 175 1280 l 2,1,2
 192 1383 192 1383 251.5 1436.5 c 128,-1,3
 311 1490 311 1490 406 1490 c 2,4,-1
 516 1490 l 1,5,-1
 508 1445 l 1,6,-1
 402 1445 l 2,7,8
 323 1445 323 1445 279 1405 c 128,-1,9
 235 1365 235 1365 221 1280 c 2,10,-1
 194 1118 l 1,11,-1
 148 1118 l 1,0,-1
270 0 m 1,12,-1
 517 1490 l 1,13,-1
 980 1490 l 2,14,15
 1109 1490 1109 1490 1196 1444 c 128,-1,16
 1283 1398 1283 1398 1321.5 1313 c 128,-1,17
 1360 1228 1360 1228 1340 1109 c 0,18,19
 1326 1022 1326 1022 1282 950 c 128,-1,20
 1238 878 1238 878 1174.5 828.5 c 128,-1,21
 1111 779 1111 779 1037 759 c 1,22,-1
 1037 757 l 1,23,24
 1112 747 1112 747 1173 698 c 128,-1,25
 1234 649 1234 649 1265 569.5 c 128,-1,26
 1296 490 1296 490 1279 387 c 0,27,28
 1260 270 1260 270 1193.5 183.5 c 128,-1,29
 1127 97 1127 97 1023.5 48.5 c 128,-1,30
 920 0 920 0 786 0 c 2,31,-1
 270 0 l 1,12,-1
324 47 m 1,32,-1
 791 47 l 2,33,34
 968 47 968 47 1088 143 c 128,-1,35
 1208 239 1208 239 1234 392 c 0,36,37
 1251 497 1251 497 1212 574 c 128,-1,38
 1173 651 1173 651 1093 692.5 c 128,-1,39
 1013 734 1013 734 908 734 c 2,40,-1
 438 734 l 1,41,-1
 324 47 l 1,32,-1
446 780 m 1,42,-1
 912 780 l 2,43,44
 1014 780 1014 780 1095 826.5 c 128,-1,45
 1176 873 1176 873 1228 950 c 128,-1,46
 1280 1027 1280 1027 1295 1116 c 0,47,48
 1321 1273 1321 1273 1233 1359 c 128,-1,49
 1145 1445 1145 1445 975 1445 c 2,50,-1
 556 1445 l 1,51,-1
 446 780 l 1,42,-1
EndSplineSet
Position2: "'cpsp' Capital Spacing in Latin lookup 0 subtable" dx=0 dy=0 dh=0 dv=0
EndChar

StartChar: C
Encoding: 67 67 73
Width: 1416
GlyphClass: 2
Flags: W
AnchorPoint: "Anchor-3" 644 1 basechar 0
AnchorPoint: "Anchor-1" 891 1490 basechar 0
LayerCount: 2
Fore
SplineSet
644 -20 m 0,0,1
 486 -20 486 -20 371.5 52.5 c 128,-1,2
 257 125 257 125 195.5 256 c 128,-1,3
 134 387 134 387 134 564 c 0,4,5
 134 737 134 737 186.5 905 c 128,-1,6
 239 1073 239 1073 337.5 1209.5 c 128,-1,7
 436 1346 436 1346 576 1428 c 128,-1,8
 716 1510 716 1510 891 1510 c 0,9,10
 1023 1510 1023 1510 1116.5 1465 c 128,-1,11
 1210 1420 1210 1420 1269 1347.5 c 128,-1,12
 1328 1275 1328 1275 1355.5 1189.5 c 128,-1,13
 1383 1104 1383 1104 1384 1025 c 1,14,-1
 1338 1025 l 1,15,16
 1335 1101 1335 1101 1308 1178.5 c 128,-1,17
 1281 1256 1281 1256 1226.5 1321 c 128,-1,18
 1172 1386 1172 1386 1088.5 1425 c 128,-1,19
 1005 1464 1005 1464 890 1464 c 0,20,21
 734 1464 734 1464 604 1389.5 c 128,-1,22
 474 1315 474 1315 379 1187 c 128,-1,23
 284 1059 284 1059 232 897.5 c 128,-1,24
 180 736 180 736 180 564 c 0,25,26
 180 389 180 389 241.5 268.5 c 128,-1,27
 303 148 303 148 408.5 87 c 128,-1,28
 514 26 514 26 646 26 c 0,29,30
 762 26 762 26 859.5 66 c 128,-1,31
 957 106 957 106 1033.5 171 c 128,-1,32
 1110 236 1110 236 1163.5 313 c 128,-1,33
 1217 390 1217 390 1245 467 c 1,34,-1
 1292 467 l 1,35,36
 1265 388 1265 388 1209.5 303 c 128,-1,37
 1154 218 1154 218 1072 145 c 128,-1,38
 990 72 990 72 882.5 26 c 128,-1,39
 775 -20 775 -20 644 -20 c 0,0,1
EndSplineSet
Substitution2: "'ss06' Style Set 6 in Latin lookup 52 subtable" C.squared
Substitution2: "'ss05' Style Set 5 in Latin lookup 51 subtable" uni24B8
Position2: "'cpsp' Capital Spacing in Latin lookup 0 subtable" dx=0 dy=0 dh=0 dv=0
EndChar

StartChar: uni0187
Encoding: 391 391 74
Width: 1416
GlyphClass: 2
Flags: W
AnchorPoint: "Anchor-3" 644 1 basechar 0
AnchorPoint: "Anchor-1" 891 1490 basechar 0
LayerCount: 2
Fore
SplineSet
1338 1025 m 1,0,-1
 1413 1478 l 2,1,2
 1430 1580 1430 1580 1483.5 1628.5 c 128,-1,3
 1537 1677 1537 1677 1629 1677 c 0,4,5
 1643 1677 1643 1677 1663.5 1676.5 c 128,-1,6
 1684 1676 1684 1676 1701 1676 c 1,7,-1
 1694 1631 l 1,8,9
 1675 1631 1675 1631 1655 1631 c 128,-1,10
 1635 1631 1635 1631 1622 1631 c 0,11,12
 1550 1631 1550 1631 1511 1596 c 128,-1,13
 1472 1561 1472 1561 1459 1478 c 2,14,-1
 1384 1025 l 1,15,-1
 1338 1025 l 1,0,-1
644 -20 m 0,16,17
 486 -20 486 -20 371.5 52.5 c 128,-1,18
 257 125 257 125 195.5 256 c 128,-1,19
 134 387 134 387 134 564 c 0,20,21
 134 737 134 737 186.5 905 c 128,-1,22
 239 1073 239 1073 337.5 1209.5 c 128,-1,23
 436 1346 436 1346 576 1428 c 128,-1,24
 716 1510 716 1510 891 1510 c 0,25,26
 1023 1510 1023 1510 1116.5 1465 c 128,-1,27
 1210 1420 1210 1420 1269 1347.5 c 128,-1,28
 1328 1275 1328 1275 1355.5 1189.5 c 128,-1,29
 1383 1104 1383 1104 1384 1025 c 1,30,-1
 1338 1025 l 1,31,32
 1335 1101 1335 1101 1308 1178.5 c 128,-1,33
 1281 1256 1281 1256 1226.5 1321 c 128,-1,34
 1172 1386 1172 1386 1088.5 1425 c 128,-1,35
 1005 1464 1005 1464 890 1464 c 0,36,37
 734 1464 734 1464 604 1389.5 c 128,-1,38
 474 1315 474 1315 379 1187 c 128,-1,39
 284 1059 284 1059 232 897.5 c 128,-1,40
 180 736 180 736 180 564 c 0,41,42
 180 389 180 389 241.5 268.5 c 128,-1,43
 303 148 303 148 408.5 87 c 128,-1,44
 514 26 514 26 646 26 c 0,45,46
 762 26 762 26 859.5 66 c 128,-1,47
 957 106 957 106 1033.5 171 c 128,-1,48
 1110 236 1110 236 1163.5 313 c 128,-1,49
 1217 390 1217 390 1245 467 c 1,50,-1
 1292 467 l 1,51,52
 1265 388 1265 388 1209.5 303 c 128,-1,53
 1154 218 1154 218 1072 145 c 128,-1,54
 990 72 990 72 882.5 26 c 128,-1,55
 775 -20 775 -20 644 -20 c 0,16,17
EndSplineSet
Position2: "'cpsp' Capital Spacing in Latin lookup 0 subtable" dx=0 dy=0 dh=0 dv=0
EndChar

StartChar: uni023B
Encoding: 571 571 81
Width: 1416
GlyphClass: 2
Flags: W
AnchorPoint: "Anchor-3" 644 1 basechar 0
AnchorPoint: "Anchor-1" 891 1490 basechar 0
LayerCount: 2
Fore
SplineSet
213 -190 m 1,0,-1
 1246 1678 l 1,1,-1
 1296 1678 l 1,2,-1
 263 -190 l 1,3,-1
 213 -190 l 1,0,-1
644 -20 m 0,4,5
 486 -20 486 -20 371.5 52.5 c 128,-1,6
 257 125 257 125 195.5 256 c 128,-1,7
 134 387 134 387 134 564 c 0,8,9
 134 737 134 737 186.5 905 c 128,-1,10
 239 1073 239 1073 337.5 1209.5 c 128,-1,11
 436 1346 436 1346 576 1428 c 128,-1,12
 716 1510 716 1510 891 1510 c 0,13,14
 1023 1510 1023 1510 1116.5 1465 c 128,-1,15
 1210 1420 1210 1420 1269 1347.5 c 128,-1,16
 1328 1275 1328 1275 1355.5 1189.5 c 128,-1,17
 1383 1104 1383 1104 1384 1025 c 1,18,-1
 1338 1025 l 1,19,20
 1335 1101 1335 1101 1308 1178.5 c 128,-1,21
 1281 1256 1281 1256 1226.5 1321 c 128,-1,22
 1172 1386 1172 1386 1088.5 1425 c 128,-1,23
 1005 1464 1005 1464 890 1464 c 0,24,25
 734 1464 734 1464 604 1389.5 c 128,-1,26
 474 1315 474 1315 379 1187 c 128,-1,27
 284 1059 284 1059 232 897.5 c 128,-1,28
 180 736 180 736 180 564 c 0,29,30
 180 389 180 389 241.5 268.5 c 128,-1,31
 303 148 303 148 408.5 87 c 128,-1,32
 514 26 514 26 646 26 c 0,33,34
 762 26 762 26 859.5 66 c 128,-1,35
 957 106 957 106 1033.5 171 c 128,-1,36
 1110 236 1110 236 1163.5 313 c 128,-1,37
 1217 390 1217 390 1245 467 c 1,38,-1
 1292 467 l 1,39,40
 1265 388 1265 388 1209.5 303 c 128,-1,41
 1154 218 1154 218 1072 145 c 128,-1,42
 990 72 990 72 882.5 26 c 128,-1,43
 775 -20 775 -20 644 -20 c 0,4,5
EndSplineSet
Ligature2: "'ccmp' Glyph Composition/Decomposition in Latin lookup 6 subtable" C uni0338
Position2: "'cpsp' Capital Spacing in Latin lookup 0 subtable" dx=0 dy=0 dh=0 dv=0
EndChar

StartChar: uni0186
Encoding: 390 390 82
Width: 1416
GlyphClass: 2
Flags: W
AnchorPoint: "Anchor-3" 839 1491 basechar 0
AnchorPoint: "Anchor-1" 593 0 basechar 0
LayerCount: 2
Fore
SplineSet
840 1510 m 0,0,1
 998 1510 998 1510 1112.5 1438.5 c 128,-1,2
 1227 1367 1227 1367 1288.5 1235.5 c 128,-1,3
 1350 1104 1350 1104 1350 927 c 0,4,5
 1350 755 1350 755 1297.5 586.5 c 128,-1,6
 1245 418 1245 418 1146.5 281 c 128,-1,7
 1048 144 1048 144 908 62 c 128,-1,8
 768 -20 768 -20 593 -20 c 0,9,10
 461 -20 461 -20 367.5 25.5 c 128,-1,11
 274 71 274 71 215 144.5 c 128,-1,12
 156 218 156 218 128.5 303 c 128,-1,13
 101 388 101 388 100 467 c 1,14,-1
 146 467 l 1,15,16
 149 390 149 390 176 312 c 128,-1,17
 203 234 203 234 257.5 170 c 128,-1,18
 312 106 312 106 395.5 66 c 128,-1,19
 479 26 479 26 594 26 c 0,20,21
 751 26 751 26 881 101.5 c 128,-1,22
 1011 177 1011 177 1106 305 c 128,-1,23
 1201 433 1201 433 1252.5 594 c 128,-1,24
 1304 755 1304 755 1304 926 c 0,25,26
 1304 1102 1304 1102 1242.5 1222 c 128,-1,27
 1181 1342 1181 1342 1075.5 1403 c 128,-1,28
 970 1464 970 1464 838 1464 c 0,29,30
 722 1464 722 1464 624.5 1425 c 128,-1,31
 527 1386 527 1386 450.5 1321 c 128,-1,32
 374 1256 374 1256 320.5 1178 c 128,-1,33
 267 1100 267 1100 239 1025 c 1,34,-1
 192 1025 l 1,35,36
 219 1104 219 1104 274.5 1189 c 128,-1,37
 330 1274 330 1274 412 1347 c 128,-1,38
 494 1420 494 1420 601.5 1465 c 128,-1,39
 709 1510 709 1510 840 1510 c 0,0,1
EndSplineSet
Position2: "'cpsp' Capital Spacing in Latin lookup 0 subtable" dx=0 dy=0 dh=0 dv=0
EndChar

StartChar: D
Encoding: 68 68 84
Width: 1397
GlyphClass: 2
Flags: W
AnchorPoint: "Anchor-1" 758 1490 basechar 0
AnchorPoint: "Anchor-0" 468 0 basechar 0
LayerCount: 2
Fore
SplineSet
504 0 m 2,0,-1
 135 0 l 1,1,-1
 142 46 l 1,2,-1
 504 46 l 2,3,4
 711 46 711 46 870.5 130 c 128,-1,5
 1030 214 1030 214 1132.5 372.5 c 128,-1,6
 1235 531 1235 531 1270 750 c 0,7,8
 1306 968 1306 968 1262.5 1123 c 128,-1,9
 1219 1278 1219 1278 1099.5 1361 c 128,-1,10
 980 1444 980 1444 785 1444 c 2,11,-1
 373 1444 l 1,12,-1
 382 1490 l 1,13,-1
 785 1490 l 2,14,15
 992 1490 992 1490 1123 1402 c 128,-1,16
 1254 1314 1254 1314 1305 1148.5 c 128,-1,17
 1356 983 1356 983 1316 750 c 0,18,19
 1278 513 1278 513 1169 345 c 128,-1,20
 1060 177 1060 177 891.5 88.5 c 128,-1,21
 723 0 723 0 504 0 c 2,0,-1
403 1490 m 1,22,-1
 156 0 l 1,23,-1
 110 0 l 1,24,-1
 357 1490 l 1,25,-1
 403 1490 l 1,22,-1
EndSplineSet
Substitution2: "'ss06' Style Set 6 in Latin lookup 52 subtable" D.squared
Substitution2: "'ss05' Style Set 5 in Latin lookup 51 subtable" uni24B9
Position2: "'cpsp' Capital Spacing in Latin lookup 0 subtable" dx=0 dy=0 dh=0 dv=0
EndChar

StartChar: uni018A
Encoding: 394 394 85
Width: 1557
GlyphClass: 2
Flags: W
AnchorPoint: "Anchor-1" 918 1490 basechar 0
AnchorPoint: "Anchor-0" 628 0 basechar 0
LayerCount: 2
Fore
SplineSet
149 1118 m 1,0,-1
 176 1280 l 2,1,2
 193 1383 193 1383 252.5 1436.5 c 128,-1,3
 312 1490 312 1490 408 1490 c 2,4,-1
 517 1490 l 1,5,-1
 510 1445 l 1,6,-1
 404 1445 l 2,7,8
 324 1445 324 1445 280 1405 c 128,-1,9
 236 1365 236 1365 222 1280 c 2,10,-1
 195 1118 l 1,11,-1
 149 1118 l 1,0,-1
664 0 m 2,12,-1
 295 0 l 1,13,-1
 302 46 l 1,14,-1
 664 46 l 2,15,16
 871 46 871 46 1030.5 130 c 128,-1,17
 1190 214 1190 214 1292.5 372.5 c 128,-1,18
 1395 531 1395 531 1430 750 c 0,19,20
 1466 968 1466 968 1422.5 1123 c 128,-1,21
 1379 1278 1379 1278 1259.5 1361 c 128,-1,22
 1140 1444 1140 1444 945 1444 c 2,23,-1
 533 1444 l 1,24,-1
 542 1490 l 1,25,-1
 945 1490 l 2,26,27
 1152 1490 1152 1490 1283 1402 c 128,-1,28
 1414 1314 1414 1314 1465 1148.5 c 128,-1,29
 1516 983 1516 983 1476 750 c 0,30,31
 1438 513 1438 513 1329 345 c 128,-1,32
 1220 177 1220 177 1051.5 88.5 c 128,-1,33
 883 0 883 0 664 0 c 2,12,-1
563 1490 m 1,34,-1
 316 0 l 1,35,-1
 270 0 l 1,36,-1
 517 1490 l 1,37,-1
 563 1490 l 1,34,-1
EndSplineSet
Position2: "'cpsp' Capital Spacing in Latin lookup 0 subtable" dx=0 dy=0 dh=0 dv=0
EndChar

StartChar: E
Encoding: 69 69 95
Width: 1172
GlyphClass: 2
Flags: W
AnchorPoint: "Anchor-4" 969 0 basechar 0
AnchorPoint: "Anchor-3" 538 0 basechar 0
AnchorPoint: "Anchor-1" 787 1490 basechar 0
AnchorPoint: "Anchor-0" 540 0 basechar 0
LayerCount: 2
Fore
SplineSet
110 0 m 1,0,-1
 357 1490 l 1,1,-1
 1206 1490 l 1,2,-1
 1197 1443 l 1,3,-1
 398 1443 l 1,4,-1
 287 777 l 1,5,-1
 1028 777 l 1,6,-1
 1020 730 l 1,7,-1
 280 730 l 1,8,-1
 167 47 l 1,9,-1
 978 47 l 1,10,-1
 969 0 l 1,11,-1
 110 0 l 1,0,-1
EndSplineSet
Substitution2: "'ss06' Style Set 6 in Latin lookup 52 subtable" E.squared
Substitution2: "'ss05' Style Set 5 in Latin lookup 51 subtable" uni24BA
Position2: "'cpsp' Capital Spacing in Latin lookup 0 subtable" dx=0 dy=0 dh=0 dv=0
EndChar

StartChar: uni0246
Encoding: 582 582 121
Width: 1172
GlyphClass: 2
Flags: W
AnchorPoint: "Anchor-4" 969 0 basechar 0
AnchorPoint: "Anchor-3" 538 0 basechar 0
AnchorPoint: "Anchor-1" 787 1490 basechar 0
AnchorPoint: "Anchor-0" 540 0 basechar 0
LayerCount: 2
Fore
SplineSet
213 -190 m 1,0,-1
 1063 1678 l 1,1,-1
 1108 1678 l 1,2,-1
 258 -190 l 1,3,-1
 213 -190 l 1,0,-1
110 0 m 1,4,-1
 357 1490 l 1,5,-1
 1206 1490 l 1,6,-1
 1197 1443 l 1,7,-1
 398 1443 l 1,8,-1
 287 777 l 1,9,-1
 1028 777 l 1,10,-1
 1020 730 l 1,11,-1
 280 730 l 1,12,-1
 167 47 l 1,13,-1
 978 47 l 1,14,-1
 969 0 l 1,15,-1
 110 0 l 1,4,-1
EndSplineSet
Position2: "'cpsp' Capital Spacing in Latin lookup 0 subtable" dx=0 dy=0 dh=0 dv=0
EndChar

StartChar: Eturn
Encoding: 398 398 122
Width: 1172
GlyphClass: 2
Flags: W
AnchorPoint: "Anchor-4" 270 1490 basechar 0
AnchorPoint: "Anchor-3" 422 0 basechar 0
AnchorPoint: "Anchor-1" 701 1490 basechar 0
AnchorPoint: "Anchor-0" 420 0 basechar 0
LayerCount: 2
Fore
SplineSet
1129 1490 m 1,0,-1
 882 0 l 1,1,-1
 33 0 l 1,2,-1
 42 49 l 1,3,-1
 841 49 l 1,4,-1
 952 715 l 1,5,-1
 211 715 l 1,6,-1
 219 760 l 1,7,-1
 959 760 l 1,8,-1
 1072 1445 l 1,9,-1
 261 1445 l 1,10,-1
 270 1490 l 1,11,-1
 1129 1490 l 1,0,-1
EndSplineSet
Position2: "'cpsp' Capital Spacing in Latin lookup 0 subtable" dx=0 dy=0 dh=0 dv=0
EndChar

StartChar: F
Encoding: 70 70 137
Width: 1144
GlyphClass: 2
Flags: W
AnchorPoint: "Anchor-1" 773 1490 basechar 0
AnchorPoint: "Anchor-0" 134 0 basechar 0
LayerCount: 2
Fore
SplineSet
110 0 m 1,0,-1
 357 1490 l 1,1,-1
 1187 1490 l 1,2,-1
 1180 1445 l 1,3,-1
 396 1445 l 1,4,-1
 285 776 l 1,5,-1
 987 776 l 1,6,-1
 979 731 l 1,7,-1
 277 731 l 1,8,-1
 156 0 l 1,9,-1
 110 0 l 1,0,-1
EndSplineSet
Substitution2: "'ss06' Style Set 6 in Latin lookup 52 subtable" F.squared
Substitution2: "'ss05' Style Set 5 in Latin lookup 51 subtable" uni24BB
Position2: "'cpsp' Capital Spacing in Latin lookup 0 subtable" dx=0 dy=0 dh=0 dv=0
EndChar

StartChar: uni0191
Encoding: 401 401 138
Width: 1144
GlyphClass: 2
Flags: W
AnchorPoint: "Anchor-1" 773 1490 basechar 0
AnchorPoint: "Anchor-0" 134 0 basechar 0
LayerCount: 2
Fore
SplineSet
-168 -418 m 1,0,-1
 -161 -371 l 1,1,2
 -142 -372 -142 -372 -122 -372 c 128,-1,3
 -102 -372 -102 -372 -89 -372 c 0,4,5
 -17 -372 -17 -372 22.5 -337 c 128,-1,6
 62 -302 62 -302 74 -219 c 2,7,-1
 131 128 l 1,8,-1
 177 128 l 1,9,-1
 121 -219 l 2,10,11
 103 -321 103 -321 49.5 -369 c 128,-1,12
 -4 -417 -4 -417 -96 -417 c 0,13,14
 -110 -417 -110 -417 -131 -417.5 c 128,-1,15
 -152 -418 -152 -418 -168 -418 c 1,0,-1
110 0 m 1,16,-1
 357 1490 l 1,17,-1
 1187 1490 l 1,18,-1
 1180 1445 l 1,19,-1
 396 1445 l 1,20,-1
 285 776 l 1,21,-1
 987 776 l 1,22,-1
 979 731 l 1,23,-1
 277 731 l 1,24,-1
 156 0 l 1,25,-1
 110 0 l 1,16,-1
EndSplineSet
Position2: "'cpsp' Capital Spacing in Latin lookup 0 subtable" dx=0 dy=0 dh=0 dv=0
EndChar

StartChar: Fturn
Encoding: 8498 8498 140
Width: 1144
GlyphClass: 2
Flags: W
AnchorPoint: "Anchor-1" 1078 1490 basechar 0
AnchorPoint: "Anchor-0" 442 0 basechar 0
LayerCount: 2
Fore
SplineSet
1101 1490 m 1,0,-1
 854 0 l 1,1,-1
 24 0 l 1,2,-1
 32 47 l 1,3,-1
 816 47 l 1,4,-1
 927 714 l 1,5,-1
 225 714 l 1,6,-1
 232 761 l 1,7,-1
 934 761 l 1,8,-1
 1055 1490 l 1,9,-1
 1101 1490 l 1,0,-1
EndSplineSet
Position2: "'cpsp' Capital Spacing in Latin lookup 0 subtable" dx=0 dy=0 dh=0 dv=0
EndChar

StartChar: G
Encoding: 1114113 -1 141
Width: 1449
GlyphClass: 2
Flags: W
AnchorPoint: "Anchor-1" 881 1490 basechar 0
AnchorPoint: "Anchor-0" 635 0 basechar 0
LayerCount: 2
Fore
SplineSet
648 -20 m 0,0,1
 486 -20 486 -20 371 52 c 128,-1,2
 256 124 256 124 195 255 c 128,-1,3
 134 386 134 386 134 562 c 0,4,5
 134 736 134 736 186 904 c 128,-1,6
 238 1072 238 1072 336.5 1209.5 c 128,-1,7
 435 1347 435 1347 575 1428.5 c 128,-1,8
 715 1510 715 1510 891 1510 c 0,9,10
 1022 1510 1022 1510 1115.5 1465.5 c 128,-1,11
 1209 1421 1209 1421 1268.5 1348 c 128,-1,12
 1328 1275 1328 1275 1356.5 1190 c 128,-1,13
 1385 1105 1385 1105 1384 1025 c 1,14,-1
 1338 1025 l 1,15,16
 1338 1100 1338 1100 1311 1177.5 c 128,-1,17
 1284 1255 1284 1255 1229.5 1320 c 128,-1,18
 1175 1385 1175 1385 1090.5 1424.5 c 128,-1,19
 1006 1464 1006 1464 890 1464 c 0,20,21
 724 1464 724 1464 592.5 1386 c 128,-1,22
 461 1308 461 1308 369 1177 c 128,-1,23
 277 1046 277 1046 228.5 886 c 128,-1,24
 180 726 180 726 180 563 c 0,25,26
 180 320 180 320 302.5 173 c 128,-1,27
 425 26 425 26 650 26 c 0,28,29
 813 26 813 26 945 101.5 c 128,-1,30
 1077 177 1077 177 1165 314 c 128,-1,31
 1253 451 1253 451 1284 638 c 1,32,-1
 1303 626 l 1,33,-1
 766 626 l 1,34,-1
 775 672 l 1,35,-1
 1337 672 l 1,36,-1
 1329 626 l 2,37,38
 1303 479 1303 479 1243 360.5 c 128,-1,39
 1183 242 1183 242 1094.5 157 c 128,-1,40
 1006 72 1006 72 893 26 c 128,-1,41
 780 -20 780 -20 648 -20 c 0,0,1
EndSplineSet
Substitution2: "'c2sc' Capitals to Small Capitals in Latin lookup 67 subtable" g.sc
Substitution2: "'cv10' Character Variants 10 in Latin lookup 64 subtable" G.1
Substitution2: "'ss06' Style Set 6 in Latin lookup 52 subtable" G.squared
Substitution2: "'ss05' Style Set 5 in Latin lookup 51 subtable" uni24BC
Substitution2: "'salt' Stylistic Alternatives in Latin lookup 46 subtable" G.1
Substitution2: "'aalt' Access All Alternates in Latin lookup 0 subtable" g.sc
Position2: "'cpsp' Capital Spacing in Latin lookup 0 subtable" dx=0 dy=0 dh=0 dv=0
EndChar

StartChar: uni0193
Encoding: 1114115 -1 143
Width: 1449
GlyphClass: 2
Flags: W
AnchorPoint: "Anchor-1" 881 1490 basechar 0
AnchorPoint: "Anchor-0" 635 0 basechar 0
LayerCount: 2
Fore
SplineSet
1339 1025 m 1,0,-1
 1413 1479 l 2,1,2
 1424 1547 1424 1547 1451.5 1590.5 c 128,-1,3
 1479 1634 1479 1634 1524 1655 c 128,-1,4
 1569 1676 1569 1676 1629 1676 c 0,5,6
 1644 1676 1644 1676 1664.5 1676.5 c 128,-1,7
 1685 1677 1685 1677 1701 1677 c 1,8,-1
 1694 1630 l 1,9,10
 1676 1630 1676 1630 1655.5 1630 c 128,-1,11
 1635 1630 1635 1630 1622 1630 c 0,12,13
 1551 1630 1551 1630 1512 1595.5 c 128,-1,14
 1473 1561 1473 1561 1459 1479 c 2,15,-1
 1385 1025 l 1,16,-1
 1339 1025 l 1,0,-1
648 -20 m 0,17,18
 486 -20 486 -20 371 52 c 128,-1,19
 256 124 256 124 195 255 c 128,-1,20
 134 386 134 386 134 562 c 0,21,22
 134 736 134 736 186 904 c 128,-1,23
 238 1072 238 1072 336.5 1209.5 c 128,-1,24
 435 1347 435 1347 575 1428.5 c 128,-1,25
 715 1510 715 1510 891 1510 c 0,26,27
 1022 1510 1022 1510 1115.5 1465.5 c 128,-1,28
 1209 1421 1209 1421 1268.5 1348 c 128,-1,29
 1328 1275 1328 1275 1356.5 1190 c 128,-1,30
 1385 1105 1385 1105 1384 1025 c 1,31,-1
 1338 1025 l 1,32,33
 1338 1100 1338 1100 1311 1177.5 c 128,-1,34
 1284 1255 1284 1255 1229.5 1320 c 128,-1,35
 1175 1385 1175 1385 1090.5 1424.5 c 128,-1,36
 1006 1464 1006 1464 890 1464 c 0,37,38
 724 1464 724 1464 592.5 1386 c 128,-1,39
 461 1308 461 1308 369 1177 c 128,-1,40
 277 1046 277 1046 228.5 886 c 128,-1,41
 180 726 180 726 180 563 c 0,42,43
 180 320 180 320 302.5 173 c 128,-1,44
 425 26 425 26 650 26 c 0,45,46
 813 26 813 26 945 101.5 c 128,-1,47
 1077 177 1077 177 1165 314 c 128,-1,48
 1253 451 1253 451 1284 638 c 1,49,-1
 1303 626 l 1,50,-1
 766 626 l 1,51,-1
 775 672 l 1,52,-1
 1337 672 l 1,53,-1
 1329 626 l 2,54,55
 1303 479 1303 479 1243 360.5 c 128,-1,56
 1183 242 1183 242 1094.5 157 c 128,-1,57
 1006 72 1006 72 893 26 c 128,-1,58
 780 -20 780 -20 648 -20 c 0,17,18
EndSplineSet
Substitution2: "'c2sc' Capitals to Small Capitals in Latin lookup 67 subtable" uni0260.sc
Substitution2: "'cv10' Character Variants 10 in Latin lookup 64 subtable" uni0193.1
Substitution2: "'salt' Stylistic Alternatives in Latin lookup 46 subtable" uni0193.1
Substitution2: "'aalt' Access All Alternates in Latin lookup 0 subtable" uni0260.sc
Position2: "'cpsp' Capital Spacing in Latin lookup 0 subtable" dx=0 dy=0 dh=0 dv=0
EndChar

StartChar: G.1
Encoding: 57346 57346 151
AltUni2: 000047.ffffffff.0
Width: 1448
GlyphClass: 2
Flags: W
AnchorPoint: "Anchor-1" 890 1490 basechar 0
AnchorPoint: "Anchor-0" 634 0 basechar 0
LayerCount: 2
Fore
SplineSet
645 -20 m 0,0,1
 457 -20 457 -20 333 76.5 c 128,-1,2
 209 173 209 173 160.5 345.5 c 128,-1,3
 112 518 112 518 149 744 c 0,4,5
 178 916 178 916 245.5 1057.5 c 128,-1,6
 313 1199 313 1199 411.5 1300.5 c 128,-1,7
 510 1402 510 1402 632.5 1456 c 128,-1,8
 755 1510 755 1510 894 1510 c 0,9,10
 1024 1510 1024 1510 1117 1465.5 c 128,-1,11
 1210 1421 1210 1421 1269 1347.5 c 128,-1,12
 1328 1274 1328 1274 1356 1189 c 128,-1,13
 1384 1104 1384 1104 1384 1025 c 1,14,-1
 1337 1025 l 1,15,16
 1336 1100 1336 1100 1308.5 1177.5 c 128,-1,17
 1281 1255 1281 1255 1225 1320 c 128,-1,18
 1169 1385 1169 1385 1084.5 1424.5 c 128,-1,19
 1000 1464 1000 1464 886 1464 c 0,20,21
 715 1464 715 1464 571.5 1374.5 c 128,-1,22
 428 1285 428 1285 329.5 1122.5 c 128,-1,23
 231 960 231 960 195 744 c 0,24,25
 160 532 160 532 204 370 c 128,-1,26
 248 208 248 208 362.5 117 c 128,-1,27
 477 26 477 26 652 26 c 0,28,29
 815 26 815 26 947 101 c 128,-1,30
 1079 176 1079 176 1167 313 c 128,-1,31
 1255 450 1255 450 1286 637 c 1,32,-1
 1325 637 l 1,33,-1
 1324 628 l 2,34,35
 1306 480 1306 480 1247 360.5 c 128,-1,36
 1188 241 1188 241 1097 156 c 128,-1,37
 1006 71 1006 71 891 25.5 c 128,-1,38
 776 -20 776 -20 645 -20 c 0,0,1
1178 0 m 1,39,-1
 1224 280 l 1,40,-1
 1294 626 l 1,41,-1
 766 626 l 1,42,-1
 773 672 l 1,43,-1
 1335 672 l 1,44,-1
 1224 0 l 1,45,-1
 1178 0 l 1,39,-1
EndSplineSet
Substitution2: "'ss06' Style Set 6 in Latin lookup 52 subtable" G.1.squared
EndChar

StartChar: uni0193.1
Encoding: 57348 57348 153
AltUni2: 000193.ffffffff.0
Width: 1448
GlyphClass: 2
Flags: W
AnchorPoint: "Anchor-1" 890 1490 basechar 0
AnchorPoint: "Anchor-0" 634 0 basechar 0
LayerCount: 2
Fore
SplineSet
1337 1025 m 1,0,-1
 1412 1479 l 2,1,2
 1423 1547 1423 1547 1450.5 1590.5 c 128,-1,3
 1478 1634 1478 1634 1522.5 1655 c 128,-1,4
 1567 1676 1567 1676 1628 1676 c 0,5,6
 1642 1676 1642 1676 1662.5 1676.5 c 128,-1,7
 1683 1677 1683 1677 1700 1677 c 1,8,-1
 1693 1630 l 1,9,10
 1674 1630 1674 1630 1654 1630 c 128,-1,11
 1634 1630 1634 1630 1621 1630 c 0,12,13
 1549 1630 1549 1630 1510 1595.5 c 128,-1,14
 1471 1561 1471 1561 1458 1479 c 2,15,-1
 1383 1025 l 1,16,-1
 1337 1025 l 1,0,-1
645 -20 m 0,17,18
 457 -20 457 -20 333 76.5 c 128,-1,19
 209 173 209 173 160.5 345.5 c 128,-1,20
 112 518 112 518 149 744 c 0,21,22
 178 916 178 916 245.5 1057.5 c 128,-1,23
 313 1199 313 1199 411.5 1300.5 c 128,-1,24
 510 1402 510 1402 632.5 1456 c 128,-1,25
 755 1510 755 1510 894 1510 c 0,26,27
 1024 1510 1024 1510 1117 1465.5 c 128,-1,28
 1210 1421 1210 1421 1269 1347.5 c 128,-1,29
 1328 1274 1328 1274 1356 1189 c 128,-1,30
 1384 1104 1384 1104 1384 1025 c 1,31,-1
 1337 1025 l 1,32,33
 1336 1100 1336 1100 1308.5 1177.5 c 128,-1,34
 1281 1255 1281 1255 1225 1320 c 128,-1,35
 1169 1385 1169 1385 1084.5 1424.5 c 128,-1,36
 1000 1464 1000 1464 886 1464 c 0,37,38
 715 1464 715 1464 571.5 1374.5 c 128,-1,39
 428 1285 428 1285 329.5 1122.5 c 128,-1,40
 231 960 231 960 195 744 c 0,41,42
 160 532 160 532 204 370 c 128,-1,43
 248 208 248 208 362.5 117 c 128,-1,44
 477 26 477 26 652 26 c 0,45,46
 815 26 815 26 947 101 c 128,-1,47
 1079 176 1079 176 1167 313 c 128,-1,48
 1255 450 1255 450 1286 637 c 1,49,-1
 1325 637 l 1,50,-1
 1324 628 l 2,51,52
 1306 480 1306 480 1247 360.5 c 128,-1,53
 1188 241 1188 241 1097 156 c 128,-1,54
 1006 71 1006 71 891 25.5 c 128,-1,55
 776 -20 776 -20 645 -20 c 0,17,18
1178 0 m 1,56,-1
 1224 280 l 1,57,-1
 1294 626 l 1,58,-1
 766 626 l 1,59,-1
 773 672 l 1,60,-1
 1335 672 l 1,61,-1
 1224 0 l 1,62,-1
 1178 0 l 1,56,-1
EndSplineSet
EndChar

StartChar: H
Encoding: 72 72 161
Width: 1443
GlyphClass: 2
Flags: W
AnchorPoint: "Anchor-3" 135 0 basechar 0
AnchorPoint: "Anchor-1" 880 1490 basechar 0
AnchorPoint: "Anchor-0" 633 0 basechar 0
LayerCount: 2
Fore
SplineSet
110 0 m 1,0,-1
 357 1490 l 1,1,-1
 405 1490 l 1,2,-1
 288 785 l 1,3,-1
 1236 785 l 1,4,-1
 1353 1490 l 1,5,-1
 1399 1490 l 1,6,-1
 1152 0 l 1,7,-1
 1106 0 l 1,8,-1
 1228 739 l 1,9,-1
 281 739 l 1,10,-1
 158 0 l 1,11,-1
 110 0 l 1,0,-1
EndSplineSet
Substitution2: "'c2sc' Capitals to Small Capitals in Latin lookup 67 subtable" h.sc
Substitution2: "'ss06' Style Set 6 in Latin lookup 52 subtable" H.squared
Substitution2: "'ss05' Style Set 5 in Latin lookup 51 subtable" uni24BD
Substitution2: "'aalt' Access All Alternates in Latin lookup 0 subtable" h.sc
Position2: "'cpsp' Capital Spacing in Latin lookup 0 subtable" dx=0 dy=0 dh=0 dv=0
EndChar

StartChar: Hbar
Encoding: 294 294 169
Width: 1464
GlyphClass: 2
Flags: W
AnchorPoint: "Anchor-3" 146 0 basechar 0
AnchorPoint: "Anchor-1" 891 1490 basechar 0
AnchorPoint: "Anchor-0" 644 0 basechar 0
LayerCount: 2
Fore
SplineSet
1458 1080 m 1,0,-1
 1449 1032 l 1,1,-1
 175 1032 l 1,2,-1
 184 1080 l 1,3,-1
 1458 1080 l 1,0,-1
121 0 m 1,4,-1
 368 1490 l 1,5,-1
 416 1490 l 1,6,-1
 299 785 l 1,7,-1
 1247 785 l 1,8,-1
 1364 1490 l 1,9,-1
 1410 1490 l 1,10,-1
 1163 0 l 1,11,-1
 1117 0 l 1,12,-1
 1239 739 l 1,13,-1
 292 739 l 1,14,-1
 169 0 l 1,15,-1
 121 0 l 1,4,-1
EndSplineSet
Position2: "'cpsp' Capital Spacing in Latin lookup 0 subtable" dx=0 dy=0 dh=0 dv=0
EndChar

StartChar: uni04C7
Encoding: 1223 1223 170
Width: 1443
GlyphClass: 2
Flags: W
AnchorPoint: "Anchor-3" 135 0 basechar 0
AnchorPoint: "Anchor-1" 880 1490 basechar 0
AnchorPoint: "Anchor-0" 633 0 basechar 0
LayerCount: 2
Fore
SplineSet
828 -418 m 1,0,-1
 835 -371 l 1,1,2
 854 -372 854 -372 874 -372 c 128,-1,3
 894 -372 894 -372 907 -372 c 0,4,5
 979 -372 979 -372 1018.5 -337 c 128,-1,6
 1058 -302 1058 -302 1070 -219 c 2,7,-1
 1127 128 l 1,8,-1
 1173 128 l 1,9,-1
 1117 -219 l 2,10,11
 1099 -321 1099 -321 1045.5 -369 c 128,-1,12
 992 -417 992 -417 900 -417 c 0,13,14
 886 -417 886 -417 865 -417.5 c 128,-1,15
 844 -418 844 -418 828 -418 c 1,0,-1
110 0 m 1,16,-1
 357 1490 l 1,17,-1
 405 1490 l 1,18,-1
 288 785 l 1,19,-1
 1236 785 l 1,20,-1
 1353 1490 l 1,21,-1
 1399 1490 l 1,22,-1
 1152 0 l 1,23,-1
 1106 0 l 1,24,-1
 1228 739 l 1,25,-1
 281 739 l 1,26,-1
 158 0 l 1,27,-1
 110 0 l 1,16,-1
EndSplineSet
Position2: "'cpsp' Capital Spacing in Latin lookup 0 subtable" dx=0 dy=0 dh=0 dv=0
EndChar

StartChar: uni04A4
Encoding: 1188 1188 173
Width: 1917
GlyphClass: 2
Flags: W
AnchorPoint: "Anchor-3" 135 0 basechar 0
AnchorPoint: "Anchor-1" 880 1490 basechar 0
AnchorPoint: "Anchor-0" 633 0 basechar 0
LayerCount: 2
Fore
SplineSet
1979 1490 m 1,0,-1
 1972 1442 l 1,1,-1
 1348 1442 l 1,2,-1
 1355 1490 l 1,3,-1
 1979 1490 l 1,0,-1
110 0 m 1,4,-1
 357 1490 l 1,5,-1
 405 1490 l 1,6,-1
 288 785 l 1,7,-1
 1236 785 l 1,8,-1
 1353 1490 l 1,9,-1
 1399 1490 l 1,10,-1
 1152 0 l 1,11,-1
 1106 0 l 1,12,-1
 1228 739 l 1,13,-1
 281 739 l 1,14,-1
 158 0 l 1,15,-1
 110 0 l 1,4,-1
EndSplineSet
Position2: "'cpsp' Capital Spacing in Latin lookup 0 subtable" dx=0 dy=0 dh=0 dv=0
EndChar

StartChar: uni01F6
Encoding: 502 502 174
Width: 2183
Flags: W
LayerCount: 2
Fore
SplineSet
1520 -20 m 0,0,1
 1399 -19 1399 -19 1312.5 30 c 128,-1,2
 1226 79 1226 79 1188 174.5 c 128,-1,3
 1150 270 1150 270 1173 407 c 2,4,-1
 1227 731 l 1,5,-1
 279 731 l 1,6,-1
 157 0 l 1,7,-1
 110 0 l 1,8,-1
 357 1490 l 1,9,-1
 404 1490 l 1,10,-1
 286 777 l 1,11,-1
 1234 777 l 1,12,-1
 1352 1490 l 1,13,-1
 1398 1490 l 1,14,-1
 1218 403 l 2,15,16
 1188 221 1188 221 1271.5 124.5 c 128,-1,17
 1355 28 1355 28 1521 28 c 0,18,19
 1634 28 1634 28 1722.5 72 c 128,-1,20
 1811 116 1811 116 1869.5 201.5 c 128,-1,21
 1928 287 1928 287 1948 407 c 2,22,-1
 2063 1101 l 1,23,-1
 2110 1101 l 1,24,-1
 1994 403 l 2,25,26
 1971 262 1971 262 1902.5 168.5 c 128,-1,27
 1834 75 1834 75 1735 28 c 128,-1,28
 1636 -19 1636 -19 1520 -20 c 0,0,1
EndSplineSet
Position2: "'cpsp' Capital Spacing in Latin lookup 0 subtable" dx=0 dy=0 dh=0 dv=0
EndChar

StartChar: I
Encoding: 73 73 197
Width: 447
GlyphClass: 2
Flags: W
AnchorPoint: "Anchor-4" 156 0 basechar 0
AnchorPoint: "Anchor-1" 381 1490 basechar 0
AnchorPoint: "Anchor-0" 134 0 basechar 0
LayerCount: 2
Fore
SplineSet
403 1490 m 1,0,-1
 156 0 l 1,1,-1
 110 0 l 1,2,-1
 357 1490 l 1,3,-1
 403 1490 l 1,0,-1
EndSplineSet
Substitution2: "'c2sc' Capitals to Small Capitals in Latin lookup 67 subtable" i.sc
Substitution2: "'cv08' Character Variants 08 in Latin lookup 62 subtable" I.1
Substitution2: "'ss06' Style Set 6 in Latin lookup 52 subtable" I.squared
Substitution2: "'ss05' Style Set 5 in Latin lookup 51 subtable" uni24BE
Substitution2: "'ss04' Style Set 4 in Latin lookup 50 subtable" I.1
Substitution2: "'ss02' Style Set 2 in Latin lookup 48 subtable" I.1
Substitution2: "'salt' Stylistic Alternatives in Latin lookup 46 subtable" I.1
Substitution2: "'aalt' Access All Alternates in Latin lookup 0 subtable" i.sc
Position2: "'cpsp' Capital Spacing in Latin lookup 0 subtable" dx=0 dy=0 dh=0 dv=0
EndChar

StartChar: I.1
Encoding: 57356 57356 235
Width: 639
GlyphClass: 2
Flags: W
AnchorPoint: "Anchor-4" 454 0 basechar 0
AnchorPoint: "Anchor-1" 477 1490 basechar 0
AnchorPoint: "Anchor-0" 230 0 basechar 0
LayerCount: 2
Fore
SplineSet
6 0 m 1,0,-1
 14 46 l 1,1,-1
 214 46 l 1,2,-1
 445 1444 l 1,3,-1
 245 1444 l 1,4,-1
 253 1490 l 1,5,-1
 701 1490 l 1,6,-1
 693 1444 l 1,7,-1
 491 1444 l 1,8,-1
 260 46 l 1,9,-1
 462 46 l 1,10,-1
 454 0 l 1,11,-1
 6 0 l 1,0,-1
EndSplineSet
EndChar

StartChar: J
Encoding: 74 74 267
Width: 1090
GlyphClass: 2
Flags: W
AnchorPoint: "Anchor-1" 1052 1490 basechar 0
LayerCount: 2
Fore
SplineSet
442 -20 m 0,0,1
 283 -20 283 -20 193.5 67 c 128,-1,2
 104 154 104 154 104 308 c 0,3,4
 104 321 104 321 105 338.5 c 128,-1,5
 106 356 106 356 110 386 c 128,-1,6
 114 416 114 416 122 464 c 1,7,-1
 168 464 l 1,8,9
 160 415 160 415 156 386 c 128,-1,10
 152 357 152 357 151 340.5 c 128,-1,11
 150 324 150 324 150 310 c 0,12,13
 150 177 150 177 224.5 102 c 128,-1,14
 299 27 299 27 441 27 c 0,15,16
 602 27 602 27 711 125.5 c 128,-1,17
 820 224 820 224 848 396 c 2,18,-1
 1029 1490 l 1,19,-1
 1076 1490 l 1,20,-1
 895 396 l 2,21,22
 864 204 864 204 743 92 c 128,-1,23
 622 -20 622 -20 442 -20 c 0,0,1
EndSplineSet
Substitution2: "'ss06' Style Set 6 in Latin lookup 52 subtable" J.squared
Substitution2: "'ss05' Style Set 5 in Latin lookup 51 subtable" uni24BF
Position2: "'cpsp' Capital Spacing in Latin lookup 0 subtable" dx=0 dy=0 dh=0 dv=0
EndChar

StartChar: K
Encoding: 75 75 272
Width: 1172
GlyphClass: 2
Flags: W
AnchorPoint: "Anchor-1" 787 1490 basechar 0
AnchorPoint: "Anchor-0" 540 0 basechar 0
LayerCount: 2
Fore
SplineSet
240 536 m 1,0,-1
 230 585 l 1,1,2
 300 650 300 650 365.5 709 c 128,-1,3
 431 768 431 768 495.5 827.5 c 128,-1,4
 560 887 560 887 630 953 c 2,5,-1
 1217 1490 l 1,6,-1
 1283 1490 l 1,7,-1
 560 828 l 1,8,-1
 546 818 l 1,9,-1
 240 536 l 1,0,-1
110 0 m 1,10,-1
 357 1490 l 1,11,-1
 404 1490 l 1,12,-1
 315 961 l 1,13,-1
 254 592 l 1,14,-1
 249 561 l 1,15,-1
 157 0 l 1,16,-1
 110 0 l 1,10,-1
983 0 m 1,17,-1
 532 827 l 1,18,-1
 569 853 l 1,19,-1
 1035 0 l 1,20,-1
 983 0 l 1,17,-1
EndSplineSet
Substitution2: "'ss06' Style Set 6 in Latin lookup 52 subtable" K.squared
Substitution2: "'ss05' Style Set 5 in Latin lookup 51 subtable" uni24C0
Position2: "'cpsp' Capital Spacing in Latin lookup 0 subtable" dx=0 dy=0 dh=0 dv=0
EndChar

StartChar: uni04A0
Encoding: 1184 1184 278
Width: 1586
GlyphClass: 2
Flags: W
AnchorPoint: "Anchor-1" 1131 1490 basechar 0
LayerCount: 2
Fore
SplineSet
736 1490 m 1,0,-1
 728 1444 l 1,1,-1
 244 1444 l 1,2,-1
 252 1490 l 1,3,-1
 736 1490 l 1,0,-1
461 0 m 1,4,-1
 708 1490 l 1,5,-1
 754 1490 l 1,6,-1
 638 785 l 1,7,-1
 925 785 l 1,8,-1
 1613 1490 l 1,9,-1
 1675 1490 l 1,10,-1
 966 762 l 1,11,-1
 1451 0 l 1,12,-1
 1398 0 l 1,13,-1
 926 740 l 1,14,-1
 630 740 l 1,15,-1
 507 0 l 1,16,-1
 461 0 l 1,4,-1
EndSplineSet
Position2: "'cpsp' Capital Spacing in Latin lookup 0 subtable" dx=0 dy=0 dh=0 dv=0
EndChar

StartChar: uni0198
Encoding: 408 408 280
Width: 1279
Flags: W
LayerCount: 2
Fore
SplineSet
111 0 m 1,0,-1
 357 1490 l 1,1,-1
 405 1490 l 1,2,-1
 251 563 l 1,3,-1
 256 563 l 1,4,-1
 1187 1427 l 2,5,6
 1229 1467 1229 1467 1275 1484 c 128,-1,7
 1321 1501 1321 1501 1364 1493 c 128,-1,8
 1407 1485 1407 1485 1442 1451 c 1,9,-1
 1408 1421 l 1,10,11
 1359 1457 1359 1457 1310 1447.5 c 128,-1,12
 1261 1438 1261 1438 1210 1388 c 2,13,-1
 539 767 l 1,14,-1
 1135 0 l 1,15,-1
 1074 0 l 1,16,-1
 504 734 l 1,17,-1
 239 487 l 1,18,-1
 158 0 l 1,19,-1
 111 0 l 1,0,-1
EndSplineSet
Position2: "'cpsp' Capital Spacing in Latin lookup 0 subtable" dx=0 dy=0 dh=0 dv=0
EndChar

StartChar: L
Encoding: 76 76 282
Width: 1099
GlyphClass: 2
Flags: W
AnchorPoint: "Anchor-1" 382 1490 basechar 0
AnchorPoint: "Anchor-0" 507 0 basechar 0
LayerCount: 2
Fore
SplineSet
110 0 m 1,0,-1
 357 1490 l 1,1,-1
 405 1490 l 1,2,-1
 167 47 l 1,3,-1
 923 47 l 1,4,-1
 914 0 l 1,5,-1
 110 0 l 1,0,-1
EndSplineSet
Substitution2: "'c2sc' Capitals to Small Capitals in Latin lookup 67 subtable" l.sc
Substitution2: "'ss06' Style Set 6 in Latin lookup 52 subtable" L.squared
Substitution2: "'ss05' Style Set 5 in Latin lookup 51 subtable" uni24C1
Substitution2: "'aalt' Access All Alternates in Latin lookup 0 subtable" l.sc
Position2: "'cpsp' Capital Spacing in Latin lookup 0 subtable" dx=0 dy=0 dh=0 dv=0
EndChar

StartChar: M
Encoding: 77 77 293
Width: 1769
GlyphClass: 2
Flags: W
AnchorPoint: "Anchor-1" 1041 1490 basechar 0
AnchorPoint: "Anchor-0" 795 0 basechar 0
LayerCount: 2
Fore
SplineSet
110 0 m 1,0,-1
 358 1490 l 1,1,-1
 419 1490 l 1,2,-1
 737 305 l 2,3,4
 746 271 746 271 755 236.5 c 128,-1,5
 764 202 764 202 773.5 167.5 c 128,-1,6
 783 133 783 133 791.5 98 c 128,-1,7
 800 63 800 63 810 28 c 1,8,-1
 785 28 l 1,9,10
 806 64 806 64 826 98 c 128,-1,11
 846 132 846 132 867 167 c 128,-1,12
 888 202 888 202 908 236.5 c 128,-1,13
 928 271 928 271 948 304 c 2,14,-1
 1659 1490 l 1,15,-1
 1726 1490 l 1,16,-1
 1478 0 l 1,17,-1
 1432 0 l 1,18,-1
 1620 1137 l 2,19,20
 1627 1177 1627 1177 1634 1217.5 c 128,-1,21
 1641 1258 1641 1258 1648 1299 c 128,-1,22
 1655 1340 1655 1340 1662 1380 c 128,-1,23
 1669 1420 1669 1420 1675 1460 c 1,24,-1
 1689 1460 l 1,25,26
 1665 1419 1665 1419 1641.5 1378.5 c 128,-1,27
 1618 1338 1618 1338 1594 1297.5 c 128,-1,28
 1570 1257 1570 1257 1546.5 1216.5 c 128,-1,29
 1523 1176 1523 1176 1498 1137 c 2,30,-1
 817 0 l 1,31,-1
 772 0 l 1,32,-1
 466 1136 l 2,33,34
 452 1190 452 1190 438 1243.5 c 128,-1,35
 424 1297 424 1297 410.5 1351.5 c 128,-1,36
 397 1406 397 1406 383 1460 c 1,37,-1
 397 1460 l 1,38,39
 390 1420 390 1420 383.5 1379.5 c 128,-1,40
 377 1339 377 1339 370.5 1298.5 c 128,-1,41
 364 1258 364 1258 358 1217.5 c 128,-1,42
 352 1177 352 1177 345 1137 c 2,43,-1
 157 0 l 1,44,-1
 110 0 l 1,0,-1
EndSplineSet
Substitution2: "'c2sc' Capitals to Small Capitals in Latin lookup 67 subtable" m.sc
Substitution2: "'ss06' Style Set 6 in Latin lookup 52 subtable" M.squared
Substitution2: "'ss05' Style Set 5 in Latin lookup 51 subtable" uni24C2
Substitution2: "'aalt' Access All Alternates in Latin lookup 0 subtable" m.sc
Position2: "'cpsp' Capital Spacing in Latin lookup 0 subtable" dx=0 dy=0 dh=0 dv=0
EndChar

StartChar: N
Encoding: 78 78 301
Width: 1517
GlyphClass: 2
Flags: W
AnchorPoint: "Anchor-1" 916 1490 basechar 0
AnchorPoint: "Anchor-0" 669 0 basechar 0
LayerCount: 2
Fore
SplineSet
110 0 m 1,0,-1
 357 1490 l 1,1,-1
 398 1490 l 1,2,-1
 1035 360 l 2,3,4
 1066 307 1066 307 1094 255.5 c 128,-1,5
 1122 204 1122 204 1150 152.5 c 128,-1,6
 1178 101 1178 101 1207 49 c 1,7,-1
 1191 49 l 1,8,9
 1201 100 1201 100 1208 152 c 128,-1,10
 1215 204 1215 204 1223.5 256 c 128,-1,11
 1232 308 1232 308 1239 359 c 2,12,-1
 1428 1490 l 1,13,-1
 1474 1490 l 1,14,-1
 1227 0 l 1,15,-1
 1186 0 l 1,16,-1
 549 1129 l 2,17,18
 521 1182 521 1182 492 1233.5 c 128,-1,19
 463 1285 463 1285 435 1337 c 128,-1,20
 407 1389 407 1389 378 1442 c 1,21,-1
 392 1442 l 1,22,23
 383 1389 383 1389 375.5 1337.5 c 128,-1,24
 368 1286 368 1286 360 1233.5 c 128,-1,25
 352 1181 352 1181 343 1129 c 2,26,-1
 157 0 l 1,27,-1
 110 0 l 1,0,-1
EndSplineSet
Substitution2: "'c2sc' Capitals to Small Capitals in Latin lookup 67 subtable" n.sc
Substitution2: "'ss06' Style Set 6 in Latin lookup 52 subtable" N.squared
Substitution2: "'ss05' Style Set 5 in Latin lookup 51 subtable" uni24C3
Substitution2: "'aalt' Access All Alternates in Latin lookup 0 subtable" n.sc
Position2: "'cpsp' Capital Spacing in Latin lookup 0 subtable" dx=0 dy=0 dh=0 dv=0
EndChar

StartChar: Nhook
Encoding: 413 413 311
Width: 1517
GlyphClass: 2
Flags: W
AnchorPoint: "Anchor-1" 916 1490 basechar 0
AnchorPoint: "Anchor-0" 669 0 basechar 0
LayerCount: 2
Fore
SplineSet
-168 -418 m 1,0,-1
 -161 -371 l 1,1,2
 -142 -372 -142 -372 -122 -372 c 128,-1,3
 -102 -372 -102 -372 -89 -372 c 0,4,5
 -17 -372 -17 -372 22.5 -337 c 128,-1,6
 62 -302 62 -302 74 -219 c 2,7,-1
 131 128 l 1,8,-1
 177 128 l 1,9,-1
 121 -219 l 2,10,11
 103 -321 103 -321 49.5 -369 c 128,-1,12
 -4 -417 -4 -417 -96 -417 c 0,13,14
 -110 -417 -110 -417 -131 -417.5 c 128,-1,15
 -152 -418 -152 -418 -168 -418 c 1,0,-1
110 0 m 1,16,-1
 357 1490 l 1,17,-1
 398 1490 l 1,18,-1
 1035 360 l 2,19,20
 1066 307 1066 307 1094 255.5 c 128,-1,21
 1122 204 1122 204 1150 152.5 c 128,-1,22
 1178 101 1178 101 1207 49 c 1,23,-1
 1191 49 l 1,24,25
 1201 100 1201 100 1208 152 c 128,-1,26
 1215 204 1215 204 1223.5 256 c 128,-1,27
 1232 308 1232 308 1239 359 c 2,28,-1
 1428 1490 l 1,29,-1
 1474 1490 l 1,30,-1
 1227 0 l 1,31,-1
 1186 0 l 1,32,-1
 549 1129 l 2,33,34
 521 1182 521 1182 492 1233.5 c 128,-1,35
 463 1285 463 1285 435 1337 c 128,-1,36
 407 1389 407 1389 378 1442 c 1,37,-1
 392 1442 l 1,38,39
 383 1389 383 1389 375.5 1337.5 c 128,-1,40
 368 1286 368 1286 360 1233.5 c 128,-1,41
 352 1181 352 1181 343 1129 c 2,42,-1
 157 0 l 1,43,-1
 110 0 l 1,16,-1
EndSplineSet
Position2: "'cpsp' Capital Spacing in Latin lookup 0 subtable" dx=0 dy=0 dh=0 dv=0
EndChar

StartChar: Eng
Encoding: 330 330 312
Width: 1517
GlyphClass: 2
Flags: W
AnchorPoint: "Anchor-1" 916 1490 basechar 0
AnchorPoint: "Anchor-0" 669 0 basechar 0
LayerCount: 2
Fore
SplineSet
902 -418 m 1,0,-1
 909 -371 l 1,1,2
 928 -372 928 -372 948 -372 c 128,-1,3
 968 -372 968 -372 981 -372 c 0,4,5
 1053 -372 1053 -372 1092.5 -337 c 128,-1,6
 1132 -302 1132 -302 1144 -219 c 2,7,-1
 1201 128 l 1,8,-1
 1247 128 l 1,9,-1
 1191 -219 l 2,10,11
 1173 -321 1173 -321 1119.5 -369 c 128,-1,12
 1066 -417 1066 -417 974 -417 c 0,13,14
 960 -417 960 -417 939 -417.5 c 128,-1,15
 918 -418 918 -418 902 -418 c 1,0,-1
110 0 m 1,16,-1
 357 1490 l 1,17,-1
 398 1490 l 1,18,-1
 1035 360 l 2,19,20
 1066 307 1066 307 1094 255.5 c 128,-1,21
 1122 204 1122 204 1150 152.5 c 128,-1,22
 1178 101 1178 101 1207 49 c 1,23,-1
 1191 49 l 1,24,25
 1201 100 1201 100 1208 152 c 128,-1,26
 1215 204 1215 204 1223.5 256 c 128,-1,27
 1232 308 1232 308 1239 359 c 2,28,-1
 1428 1490 l 1,29,-1
 1474 1490 l 1,30,-1
 1227 0 l 1,31,-1
 1186 0 l 1,32,-1
 549 1129 l 2,33,34
 521 1182 521 1182 492 1233.5 c 128,-1,35
 463 1285 463 1285 435 1337 c 128,-1,36
 407 1389 407 1389 378 1442 c 1,37,-1
 392 1442 l 1,38,39
 383 1389 383 1389 375.5 1337.5 c 128,-1,40
 368 1286 368 1286 360 1233.5 c 128,-1,41
 352 1181 352 1181 343 1129 c 2,42,-1
 157 0 l 1,43,-1
 110 0 l 1,16,-1
EndSplineSet
Position2: "'cpsp' Capital Spacing in Latin lookup 0 subtable" dx=0 dy=0 dh=0 dv=0
EndChar

StartChar: uni0418
Encoding: 1048 1048 313
Width: 1517
GlyphClass: 2
Flags: W
AnchorPoint: "Anchor-1" 915 1490 basechar 0
AnchorPoint: "Anchor-0" 669 0 basechar 0
LayerCount: 2
Fore
SplineSet
1227 0 m 1,0,-1
 1181 0 l 1,1,-1
 1368 1129 l 2,2,3
 1377 1182 1377 1182 1386 1234 c 128,-1,4
 1395 1286 1395 1286 1404 1337.5 c 128,-1,5
 1413 1389 1413 1389 1422 1442 c 1,6,-1
 1440 1442 l 1,7,8
 1393 1389 1393 1389 1347.5 1337 c 128,-1,9
 1302 1285 1302 1285 1256.5 1233 c 128,-1,10
 1211 1181 1211 1181 1165 1129 c 2,11,-1
 157 0 l 1,12,-1
 110 0 l 1,13,-1
 357 1490 l 1,14,-1
 404 1490 l 1,15,-1
 216 359 l 2,16,17
 207 307 207 307 198 255 c 128,-1,18
 189 203 189 203 180 152 c 128,-1,19
 171 101 171 101 162 49 c 1,20,-1
 143 49 l 1,21,22
 189 100 189 100 234 152 c 128,-1,23
 279 204 279 204 324.5 256 c 128,-1,24
 370 308 370 308 416 360 c 2,25,-1
 1427 1490 l 1,26,-1
 1474 1490 l 1,27,-1
 1227 0 l 1,0,-1
EndSplineSet
Position2: "'cpsp' Capital Spacing in Latin lookup 0 subtable" dx=0 dy=0 dh=0 dv=0
EndChar

StartChar: O
Encoding: 79 79 322
Width: 1467
GlyphClass: 2
Flags: W
AnchorPoint: "Anchor-4" 1399 926 basechar 0
AnchorPoint: "Anchor-1" 891 1490 basechar 0
AnchorPoint: "Anchor-0" 645 0 basechar 0
LayerCount: 2
Fore
SplineSet
644 -20 m 0,0,1
 485 -20 485 -20 371 53 c 128,-1,2
 257 126 257 126 195.5 257 c 128,-1,3
 134 388 134 388 134 565 c 0,4,5
 134 737 134 737 186.5 905.5 c 128,-1,6
 239 1074 239 1074 338 1210 c 128,-1,7
 437 1346 437 1346 576.5 1428 c 128,-1,8
 716 1510 716 1510 891 1510 c 0,9,10
 1049 1510 1049 1510 1163 1437.5 c 128,-1,11
 1277 1365 1277 1365 1338 1234.5 c 128,-1,12
 1399 1104 1399 1104 1399 926 c 0,13,14
 1399 755 1399 755 1347 586.5 c 128,-1,15
 1295 418 1295 418 1197 281 c 128,-1,16
 1099 144 1099 144 959.5 62 c 128,-1,17
 820 -20 820 -20 644 -20 c 0,0,1
646 26 m 0,18,19
 810 26 810 26 940.5 104.5 c 128,-1,20
 1071 183 1071 183 1163 313 c 128,-1,21
 1255 443 1255 443 1304 601.5 c 128,-1,22
 1353 760 1353 760 1353 923 c 0,23,24
 1353 1088 1353 1088 1297.5 1209 c 128,-1,25
 1242 1330 1242 1330 1138 1397 c 128,-1,26
 1034 1464 1034 1464 890 1464 c 0,27,28
 725 1464 725 1464 594 1386 c 128,-1,29
 463 1308 463 1308 370.5 1178 c 128,-1,30
 278 1048 278 1048 229 888.5 c 128,-1,31
 180 729 180 729 180 567 c 256,32,33
 180 405 180 405 235.5 283 c 128,-1,34
 291 161 291 161 395.5 93.5 c 128,-1,35
 500 26 500 26 646 26 c 0,18,19
EndSplineSet
Substitution2: "'ss06' Style Set 6 in Latin lookup 52 subtable" O.squared
Substitution2: "'ss05' Style Set 5 in Latin lookup 51 subtable" uni24C4
Substitution2: "Single Substitution lookup 44 subtable" ordmasculine
Substitution2: "'aalt' Access All Alternates in Latin lookup 0 subtable" ordmasculine
Position2: "'cpsp' Capital Spacing in Latin lookup 0 subtable" dx=0 dy=0 dh=0 dv=0
EndChar

StartChar: Ohorn
Encoding: 416 416 326
Width: 1466
GlyphClass: 2
Flags: W
AnchorPoint: "Anchor-4" 1399 926 basechar 0
AnchorPoint: "Anchor-1" 891 1490 basechar 0
AnchorPoint: "Anchor-0" 645 0 basechar 0
LayerCount: 2
Fore
SplineSet
887 1471 m 1,0,-1
 893 1510 l 1,1,2
 942 1510 942 1510 977.5 1508.5 c 128,-1,3
 1013 1507 1013 1507 1046 1503.5 c 128,-1,4
 1079 1500 1079 1500 1121.5 1497.5 c 128,-1,5
 1164 1495 1164 1495 1227 1492.5 c 128,-1,6
 1290 1490 1290 1490 1384 1490 c 0,7,8
 1460 1490 1460 1490 1473 1567 c 2,9,-1
 1497 1714 l 1,10,-1
 1543 1714 l 1,11,-1
 1519 1567 l 2,12,13
 1509 1508 1509 1508 1472 1476 c 128,-1,14
 1435 1444 1435 1444 1376 1444 c 0,15,16
 1295 1444 1295 1444 1230.5 1448.5 c 128,-1,17
 1166 1453 1166 1453 1110.5 1458 c 128,-1,18
 1055 1463 1055 1463 1001.5 1466.5 c 128,-1,19
 948 1470 948 1470 887 1471 c 1,0,-1
644 -20 m 0,20,21
 485 -20 485 -20 371 53 c 128,-1,22
 257 126 257 126 195.5 257 c 128,-1,23
 134 388 134 388 134 565 c 0,24,25
 134 737 134 737 186.5 905.5 c 128,-1,26
 239 1074 239 1074 338 1210 c 128,-1,27
 437 1346 437 1346 576.5 1428 c 128,-1,28
 716 1510 716 1510 891 1510 c 0,29,30
 1049 1510 1049 1510 1163 1437.5 c 128,-1,31
 1277 1365 1277 1365 1338 1234.5 c 128,-1,32
 1399 1104 1399 1104 1399 926 c 0,33,34
 1399 755 1399 755 1347 586.5 c 128,-1,35
 1295 418 1295 418 1197 281 c 128,-1,36
 1099 144 1099 144 959.5 62 c 128,-1,37
 820 -20 820 -20 644 -20 c 0,20,21
646 26 m 0,38,39
 810 26 810 26 940.5 104.5 c 128,-1,40
 1071 183 1071 183 1163 313 c 128,-1,41
 1255 443 1255 443 1304 601.5 c 128,-1,42
 1353 760 1353 760 1353 923 c 0,43,44
 1353 1088 1353 1088 1297.5 1209 c 128,-1,45
 1242 1330 1242 1330 1138 1397 c 128,-1,46
 1034 1464 1034 1464 890 1464 c 0,47,48
 725 1464 725 1464 594 1386 c 128,-1,49
 463 1308 463 1308 370.5 1178 c 128,-1,50
 278 1048 278 1048 229 888.5 c 128,-1,51
 180 729 180 729 180 567 c 256,52,53
 180 405 180 405 235.5 283 c 128,-1,54
 291 161 291 161 395.5 93.5 c 128,-1,55
 500 26 500 26 646 26 c 0,38,39
EndSplineSet
Position2: "'cpsp' Capital Spacing in Latin lookup 0 subtable" dx=0 dy=0 dh=0 dv=0
EndChar

StartChar: uni03F4
Encoding: 1012 1012 368
Width: 1467
GlyphClass: 2
Flags: W
AnchorPoint: "Anchor-4" 1399 926 basechar 0
AnchorPoint: "Anchor-1" 891 1490 basechar 0
AnchorPoint: "Anchor-0" 645 0 basechar 0
LayerCount: 2
Fore
SplineSet
1359 768 m 1,0,-1
 1351 722 l 1,1,-1
 177 722 l 1,2,-1
 185 768 l 1,3,-1
 1359 768 l 1,0,-1
644 -20 m 0,4,5
 485 -20 485 -20 371 53 c 128,-1,6
 257 126 257 126 195.5 257 c 128,-1,7
 134 388 134 388 134 565 c 0,8,9
 134 737 134 737 186.5 905.5 c 128,-1,10
 239 1074 239 1074 338 1210 c 128,-1,11
 437 1346 437 1346 576.5 1428 c 128,-1,12
 716 1510 716 1510 891 1510 c 0,13,14
 1049 1510 1049 1510 1163 1437.5 c 128,-1,15
 1277 1365 1277 1365 1338 1234.5 c 128,-1,16
 1399 1104 1399 1104 1399 926 c 0,17,18
 1399 755 1399 755 1347 586.5 c 128,-1,19
 1295 418 1295 418 1197 281 c 128,-1,20
 1099 144 1099 144 959.5 62 c 128,-1,21
 820 -20 820 -20 644 -20 c 0,4,5
646 26 m 0,22,23
 810 26 810 26 940.5 104.5 c 128,-1,24
 1071 183 1071 183 1163 313 c 128,-1,25
 1255 443 1255 443 1304 601.5 c 128,-1,26
 1353 760 1353 760 1353 923 c 0,27,28
 1353 1088 1353 1088 1297.5 1209 c 128,-1,29
 1242 1330 1242 1330 1138 1397 c 128,-1,30
 1034 1464 1034 1464 890 1464 c 0,31,32
 725 1464 725 1464 594 1386 c 128,-1,33
 463 1308 463 1308 370.5 1178 c 128,-1,34
 278 1048 278 1048 229 888.5 c 128,-1,35
 180 729 180 729 180 567 c 256,36,37
 180 405 180 405 235.5 283 c 128,-1,38
 291 161 291 161 395.5 93.5 c 128,-1,39
 500 26 500 26 646 26 c 0,22,23
EndSplineSet
Position2: "'cpsp' Capital Spacing in Latin lookup 0 subtable" dx=0 dy=0 dh=0 dv=0
EndChar

StartChar: OE
Encoding: 338 338 375
Width: 1862
GlyphClass: 2
Flags: W
AnchorPoint: "Anchor-4" 1660 0 basechar 0
AnchorPoint: "Anchor-3" 1229 0 basechar 0
AnchorPoint: "Anchor-1" 1478 1490 basechar 0
AnchorPoint: "Anchor-0" 1231 0 basechar 0
LayerCount: 2
Fore
SplineSet
643 0 m 2,0,1
 458 0 458 0 335 94.5 c 128,-1,2
 212 189 212 189 162.5 357 c 128,-1,3
 113 525 113 525 149 744 c 0,4,5
 186 968 186 968 291 1135.5 c 128,-1,6
 396 1303 396 1303 550 1396.5 c 128,-1,7
 704 1490 704 1490 889 1490 c 2,8,-1
 1072 1490 l 1,9,-1
 1063 1442 l 1,10,-1
 881 1442 l 2,11,12
 713 1444 713 1444 570 1356.5 c 128,-1,13
 427 1269 427 1269 328.5 1111.5 c 128,-1,14
 230 954 230 954 195 744 c 0,15,16
 161 536 161 536 205.5 379.5 c 128,-1,17
 250 223 250 223 363.5 135 c 128,-1,18
 477 47 477 47 650 46 c 2,19,-1
 833 46 l 1,20,-1
 825 0 l 1,21,-1
 643 0 l 2,0,1
801 0 m 1,22,-1
 1048 1490 l 1,23,-1
 1896 1490 l 1,24,-1
 1888 1443 l 1,25,-1
 1088 1443 l 1,26,-1
 978 777 l 1,27,-1
 1718 777 l 1,28,-1
 1710 730 l 1,29,-1
 970 730 l 1,30,-1
 857 47 l 1,31,-1
 1668 47 l 1,32,-1
 1660 0 l 1,33,-1
 801 0 l 1,22,-1
EndSplineSet
Substitution2: "'c2sc' Capitals to Small Capitals in Latin lookup 67 subtable" oe.sc
Substitution2: "'aalt' Access All Alternates in Latin lookup 0 subtable" oe.sc
Position2: "'cpsp' Capital Spacing in Latin lookup 0 subtable" dx=0 dy=0 dh=0 dv=0
EndChar

StartChar: P
Encoding: 80 80 376
Width: 1183
GlyphClass: 2
Flags: W
AnchorPoint: "Anchor-1" 763 1490 basechar 0
LayerCount: 2
Fore
SplineSet
110 0 m 1,0,-1
 357 1490 l 1,1,-1
 819 1490 l 2,2,3
 944 1490 944 1490 1031 1436 c 128,-1,4
 1118 1382 1118 1382 1156.5 1284.5 c 128,-1,5
 1195 1187 1195 1187 1174 1059 c 0,6,7
 1153 933 1153 933 1082.5 836.5 c 128,-1,8
 1012 740 1012 740 907 685.5 c 128,-1,9
 802 631 802 631 677 631 c 2,10,-1
 239 631 l 1,11,-1
 247 678 l 1,12,-1
 684 678 l 2,13,14
 796 678 796 678 890 726 c 128,-1,15
 984 774 984 774 1047 860 c 128,-1,16
 1110 946 1110 946 1127 1060 c 0,17,18
 1147 1174 1147 1174 1112.5 1260.5 c 128,-1,19
 1078 1347 1078 1347 1000.5 1396 c 128,-1,20
 923 1445 923 1445 812 1445 c 2,21,-1
 396 1445 l 1,22,-1
 156 0 l 1,23,-1
 110 0 l 1,0,-1
EndSplineSet
Substitution2: "'ss06' Style Set 6 in Latin lookup 52 subtable" P.squared
Substitution2: "'ss05' Style Set 5 in Latin lookup 51 subtable" uni24C5
Position2: "'cpsp' Capital Spacing in Latin lookup 0 subtable" dx=0 dy=0 dh=0 dv=0
EndChar

StartChar: uni048E
Encoding: 1166 1166 379
Width: 1182
GlyphClass: 2
Flags: W
AnchorPoint: "Anchor-1" 756 1490 basechar 0
LayerCount: 2
Fore
SplineSet
849 913 m 1,0,-1
 1040 557 l 1,1,-1
 1000 531 l 1,2,-1
 808 889 l 1,3,-1
 849 913 l 1,0,-1
103 0 m 1,4,-1
 350 1490 l 1,5,-1
 812 1490 l 2,6,7
 937 1490 937 1490 1024 1436 c 128,-1,8
 1111 1382 1111 1382 1149.5 1284.5 c 128,-1,9
 1188 1187 1188 1187 1167 1059 c 0,10,11
 1146 933 1146 933 1075.5 836.5 c 128,-1,12
 1005 740 1005 740 900 685.5 c 128,-1,13
 795 631 795 631 670 631 c 2,14,-1
 232 631 l 1,15,-1
 240 678 l 1,16,-1
 677 678 l 2,17,18
 789 678 789 678 883 726 c 128,-1,19
 977 774 977 774 1040 860 c 128,-1,20
 1103 946 1103 946 1120 1060 c 0,21,22
 1140 1174 1140 1174 1105.5 1260.5 c 128,-1,23
 1071 1347 1071 1347 993.5 1396 c 128,-1,24
 916 1445 916 1445 805 1445 c 2,25,-1
 389 1445 l 1,26,-1
 149 0 l 1,27,-1
 103 0 l 1,4,-1
EndSplineSet
Position2: "'cpsp' Capital Spacing in Latin lookup 0 subtable" dx=0 dy=0 dh=0 dv=0
EndChar

StartChar: uni01A4
Encoding: 420 420 380
Width: 1343
GlyphClass: 2
Flags: W
AnchorPoint: "Anchor-1" 923 1490 basechar 0
LayerCount: 2
Fore
SplineSet
149 1118 m 1,0,-1
 176 1280 l 2,1,2
 193 1383 193 1383 252.5 1436.5 c 128,-1,3
 312 1490 312 1490 408 1490 c 2,4,-1
 517 1490 l 1,5,-1
 510 1445 l 1,6,-1
 404 1445 l 2,7,8
 324 1445 324 1445 280 1405 c 128,-1,9
 236 1365 236 1365 222 1280 c 2,10,-1
 195 1118 l 1,11,-1
 149 1118 l 1,0,-1
270 0 m 1,12,-1
 517 1490 l 1,13,-1
 979 1490 l 2,14,15
 1104 1490 1104 1490 1191 1436 c 128,-1,16
 1278 1382 1278 1382 1316.5 1284.5 c 128,-1,17
 1355 1187 1355 1187 1334 1059 c 0,18,19
 1313 933 1313 933 1242.5 836.5 c 128,-1,20
 1172 740 1172 740 1067 685.5 c 128,-1,21
 962 631 962 631 837 631 c 2,22,-1
 399 631 l 1,23,-1
 407 678 l 1,24,-1
 844 678 l 2,25,26
 956 678 956 678 1050 726 c 128,-1,27
 1144 774 1144 774 1207 860 c 128,-1,28
 1270 946 1270 946 1287 1060 c 0,29,30
 1307 1174 1307 1174 1272.5 1260.5 c 128,-1,31
 1238 1347 1238 1347 1160.5 1396 c 128,-1,32
 1083 1445 1083 1445 972 1445 c 2,33,-1
 556 1445 l 1,34,-1
 316 0 l 1,35,-1
 270 0 l 1,12,-1
EndSplineSet
Position2: "'cpsp' Capital Spacing in Latin lookup 0 subtable" dx=0 dy=0 dh=0 dv=0
EndChar

StartChar: Q
Encoding: 81 81 383
Width: 1467
GlyphClass: 2
Flags: W
AnchorPoint: "Anchor-4" 1399 926 basechar 0
AnchorPoint: "Anchor-1" 891 1490 basechar 0
AnchorPoint: "Anchor-0" 645 0 basechar 0
LayerCount: 2
Fore
SplineSet
782 466 m 1,0,-1
 835 466 l 1,1,-1
 1022 146 l 1,2,-1
 1030 134 l 1,3,-1
 1191 -140 l 1,4,-1
 1138 -140 l 1,5,-1
 991 110 l 1,6,-1
 983 122 l 1,7,-1
 782 466 l 1,0,-1
644 -20 m 0,8,9
 485 -20 485 -20 371 53 c 128,-1,10
 257 126 257 126 195.5 257 c 128,-1,11
 134 388 134 388 134 565 c 0,12,13
 134 737 134 737 186.5 905.5 c 128,-1,14
 239 1074 239 1074 338 1210 c 128,-1,15
 437 1346 437 1346 576.5 1428 c 128,-1,16
 716 1510 716 1510 891 1510 c 0,17,18
 1049 1510 1049 1510 1163 1437.5 c 128,-1,19
 1277 1365 1277 1365 1338 1234.5 c 128,-1,20
 1399 1104 1399 1104 1399 926 c 0,21,22
 1399 755 1399 755 1347 586.5 c 128,-1,23
 1295 418 1295 418 1197 281 c 128,-1,24
 1099 144 1099 144 959.5 62 c 128,-1,25
 820 -20 820 -20 644 -20 c 0,8,9
646 26 m 0,26,27
 810 26 810 26 940.5 104.5 c 128,-1,28
 1071 183 1071 183 1163 313 c 128,-1,29
 1255 443 1255 443 1304 601.5 c 128,-1,30
 1353 760 1353 760 1353 923 c 0,31,32
 1353 1088 1353 1088 1297.5 1209 c 128,-1,33
 1242 1330 1242 1330 1138 1397 c 128,-1,34
 1034 1464 1034 1464 890 1464 c 0,35,36
 725 1464 725 1464 594 1386 c 128,-1,37
 463 1308 463 1308 370.5 1178 c 128,-1,38
 278 1048 278 1048 229 888.5 c 128,-1,39
 180 729 180 729 180 567 c 256,40,41
 180 405 180 405 235.5 283 c 128,-1,42
 291 161 291 161 395.5 93.5 c 128,-1,43
 500 26 500 26 646 26 c 0,26,27
EndSplineSet
Substitution2: "'ss06' Style Set 6 in Latin lookup 52 subtable" Q.squared
Substitution2: "'ss05' Style Set 5 in Latin lookup 51 subtable" uni24C6
Position2: "'cpsp' Capital Spacing in Latin lookup 0 subtable" dx=0 dy=0 dh=0 dv=0
EndChar

StartChar: Q_rthook
Encoding: 586 586 384
Width: 1461
GlyphClass: 2
Flags: W
LayerCount: 2
Fore
SplineSet
1417 1490 m 1,0,-1
 1170 0 l 1,1,-1
 1124 0 l 1,2,-1
 1187 383 l 1,3,-1
 1181 383 l 1,4,5
 1085 184 1085 184 945.5 82 c 128,-1,6
 806 -20 806 -20 633 -20 c 0,7,8
 498 -20 498 -20 395 35.5 c 128,-1,9
 292 91 292 91 227.5 192.5 c 128,-1,10
 163 294 163 294 142 434.5 c 128,-1,11
 121 575 121 575 149 744 c 0,12,13
 178 915 178 915 245.5 1055.5 c 128,-1,14
 313 1196 313 1196 412 1298.5 c 128,-1,15
 511 1401 511 1401 633.5 1455.5 c 128,-1,16
 756 1510 756 1510 894 1510 c 0,17,18
 1065 1510 1065 1510 1168 1408.5 c 128,-1,19
 1271 1307 1271 1307 1301 1107 c 1,20,-1
 1307 1107 l 1,21,-1
 1371 1490 l 1,22,-1
 1417 1490 l 1,0,-1
648 26 m 0,23,24
 799 26 799 26 922 112.5 c 128,-1,25
 1045 199 1045 199 1129.5 360 c 128,-1,26
 1214 521 1214 521 1251 745 c 0,27,28
 1288 967 1288 967 1256 1129 c 128,-1,29
 1224 1291 1224 1291 1129.5 1377.5 c 128,-1,30
 1035 1464 1035 1464 886 1464 c 0,31,32
 716 1464 716 1464 572 1373 c 128,-1,33
 428 1282 428 1282 329.5 1120.5 c 128,-1,34
 231 959 231 959 195 745 c 0,35,36
 160 531 160 531 205 369 c 128,-1,37
 250 207 250 207 364 116.5 c 128,-1,38
 478 26 478 26 648 26 c 0,23,24
1239 -417 m 0,39,40
 1147 -417 1147 -417 1109 -369.5 c 128,-1,41
 1071 -322 1071 -322 1088 -219 c 2,42,-1
 1124 0 l 1,43,-1
 1170 0 l 1,44,-1
 1134 -219 l 2,45,46
 1121 -301 1121 -301 1147.5 -336.5 c 128,-1,47
 1174 -372 1174 -372 1246 -372 c 0,48,49
 1259 -372 1259 -372 1279 -372 c 128,-1,50
 1299 -372 1299 -372 1318 -372 c 1,51,-1
 1311 -418 l 1,52,53
 1294 -418 1294 -418 1273.5 -417.5 c 128,-1,54
 1253 -417 1253 -417 1239 -417 c 0,39,40
EndSplineSet
Position2: "'cpsp' Capital Spacing in Latin lookup 0 subtable" dx=0 dy=0 dh=0 dv=0
EndChar

StartChar: R
Encoding: 82 82 385
Width: 1223
GlyphClass: 2
Flags: W
AnchorPoint: "Anchor-1" 769 1490 basechar 0
AnchorPoint: "Anchor-0" 531 0 basechar 0
LayerCount: 2
Fore
SplineSet
110 0 m 1,0,-1
 357 1490 l 1,1,-1
 820 1490 l 2,2,3
 944 1490 944 1490 1031 1437 c 128,-1,4
 1118 1384 1118 1384 1157.5 1288.5 c 128,-1,5
 1197 1193 1197 1193 1174 1064 c 0,6,7
 1154 939 1154 939 1083.5 844 c 128,-1,8
 1013 749 1013 749 908 696 c 128,-1,9
 803 643 803 643 679 643 c 2,10,-1
 241 643 l 1,11,-1
 249 688 l 1,12,-1
 679 688 l 2,13,14
 790 688 790 688 885.5 735 c 128,-1,15
 981 782 981 782 1045.5 866.5 c 128,-1,16
 1110 951 1110 951 1129 1064 c 0,17,18
 1158 1237 1158 1237 1072.5 1341 c 128,-1,19
 987 1445 987 1445 819 1445 c 2,20,-1
 396 1445 l 1,21,-1
 156 0 l 1,22,-1
 110 0 l 1,0,-1
992 0 m 1,23,-1
 742 679 l 1,24,-1
 791 679 l 1,25,-1
 1041 0 l 1,26,-1
 992 0 l 1,23,-1
EndSplineSet
Substitution2: "'c2sc' Capitals to Small Capitals in Latin lookup 67 subtable" r.sc
Substitution2: "'ss06' Style Set 6 in Latin lookup 52 subtable" R.squared
Substitution2: "'ss05' Style Set 5 in Latin lookup 51 subtable" uni24C7
Substitution2: "'aalt' Access All Alternates in Latin lookup 0 subtable" r.sc
Position2: "'cpsp' Capital Spacing in Latin lookup 0 subtable" dx=0 dy=0 dh=0 dv=0
EndChar

StartChar: uni211F
Encoding: 8479 8479 395
Width: 1198
GlyphClass: 2
Flags: W
AnchorPoint: "Anchor-1" 763 1490 basechar 0
AnchorPoint: "Anchor-0" 525 0 basechar 0
LayerCount: 2
Fore
SplineSet
1142 1654 m 1,0,-1
 115 -328 l 1,1,-1
 71 -318 l 1,2,-1
 1077 1626 l 1,3,-1
 760 1754 l 1,4,-1
 786 1796 l 1,5,-1
 1142 1654 l 1,0,-1
104 0 m 1,6,-1
 351 1490 l 1,7,-1
 814 1490 l 2,8,9
 938 1490 938 1490 1025 1437 c 128,-1,10
 1112 1384 1112 1384 1151.5 1288.5 c 128,-1,11
 1191 1193 1191 1193 1168 1064 c 0,12,13
 1148 939 1148 939 1077.5 844 c 128,-1,14
 1007 749 1007 749 902 696 c 128,-1,15
 797 643 797 643 673 643 c 2,16,-1
 235 643 l 1,17,-1
 243 688 l 1,18,-1
 673 688 l 2,19,20
 784 688 784 688 879.5 735 c 128,-1,21
 975 782 975 782 1039.5 866.5 c 128,-1,22
 1104 951 1104 951 1123 1064 c 0,23,24
 1152 1237 1152 1237 1066.5 1341 c 128,-1,25
 981 1445 981 1445 813 1445 c 2,26,-1
 390 1445 l 1,27,-1
 150 0 l 1,28,-1
 104 0 l 1,6,-1
986 0 m 1,29,-1
 736 679 l 1,30,-1
 785 679 l 1,31,-1
 1035 0 l 1,32,-1
 986 0 l 1,29,-1
EndSplineSet
EndChar

StartChar: Rx
Encoding: 8478 8478 396
Width: 1133
Flags: W
LayerCount: 2
Fore
SplineSet
357 1490 m 1,0,-1
 795 1490 l 2,1,2
 920 1490 920 1490 1007 1437.5 c 128,-1,3
 1094 1385 1094 1385 1133.5 1289.5 c 128,-1,4
 1173 1194 1173 1194 1152 1064 c 0,5,6
 1130 939 1130 939 1059.5 843.5 c 128,-1,7
 989 748 989 748 884.5 695.5 c 128,-1,8
 780 643 780 643 655 643 c 1,9,-1
 641 642 l 1,10,-1
 241 642 l 1,11,-1
 248 691 l 1,12,-1
 662 691 l 2,13,14
 774 690 774 690 867.5 736.5 c 128,-1,15
 961 783 961 783 1023.5 867.5 c 128,-1,16
 1086 952 1086 952 1105 1064 c 0,17,18
 1119 1151 1119 1151 1102.5 1220.5 c 128,-1,19
 1086 1290 1086 1290 1043.5 1340 c 128,-1,20
 1001 1390 1001 1390 935.5 1416 c 128,-1,21
 870 1442 870 1442 786 1442 c 2,22,-1
 396 1443 l 1,23,-1
 158 0 l 1,24,-1
 111 0 l 1,25,-1
 357 1490 l 1,0,-1
997 0 m 1,26,-1
 613 679 l 1,27,-1
 668 679 l 1,28,-1
 1053 0 l 1,29,-1
 997 0 l 1,26,-1
557 0 m 1,30,-1
 497 0 l 1,31,-1
 1106 681 l 1,32,-1
 1166 681 l 1,33,-1
 557 0 l 1,30,-1
EndSplineSet
EndChar

StartChar: uni024C
Encoding: 588 588 397
Width: 1206
GlyphClass: 2
Flags: W
AnchorPoint: "Anchor-1" 771 1490 basechar 0
AnchorPoint: "Anchor-0" 533 0 basechar 0
LayerCount: 2
Fore
SplineSet
236 642 m 1,0,-1
 17 642 l 1,1,-1
 25 690 l 1,2,-1
 244 690 l 1,3,-1
 236 642 l 1,0,-1
112 0 m 1,4,-1
 359 1490 l 1,5,-1
 822 1490 l 2,6,7
 946 1490 946 1490 1033 1437 c 128,-1,8
 1120 1384 1120 1384 1159.5 1288.5 c 128,-1,9
 1199 1193 1199 1193 1176 1064 c 0,10,11
 1156 939 1156 939 1085.5 844 c 128,-1,12
 1015 749 1015 749 910 696 c 128,-1,13
 805 643 805 643 681 643 c 2,14,-1
 243 643 l 1,15,-1
 251 688 l 1,16,-1
 681 688 l 2,17,18
 792 688 792 688 887.5 735 c 128,-1,19
 983 782 983 782 1047.5 866.5 c 128,-1,20
 1112 951 1112 951 1131 1064 c 0,21,22
 1160 1237 1160 1237 1074.5 1341 c 128,-1,23
 989 1445 989 1445 821 1445 c 2,24,-1
 398 1445 l 1,25,-1
 158 0 l 1,26,-1
 112 0 l 1,4,-1
994 0 m 1,27,-1
 744 679 l 1,28,-1
 793 679 l 1,29,-1
 1043 0 l 1,30,-1
 994 0 l 1,27,-1
EndSplineSet
Position2: "'cpsp' Capital Spacing in Latin lookup 0 subtable" dx=0 dy=0 dh=0 dv=0
EndChar

StartChar: S
Encoding: 83 83 398
Width: 1191
GlyphClass: 2
Flags: W
AnchorPoint: "Anchor-3" 506 0 basechar 0
AnchorPoint: "Anchor-1" 753 1490 basechar 0
AnchorPoint: "Anchor-0" 505 0 basechar 0
LayerCount: 2
Fore
SplineSet
498 -22 m 0,0,1
 362 -22 362 -22 268 25 c 128,-1,2
 174 72 174 72 129 156 c 128,-1,3
 84 240 84 240 94 350 c 1,4,-1
 140 350 l 1,5,6
 131 250 131 250 170.5 177 c 128,-1,7
 210 104 210 104 293 64 c 128,-1,8
 376 24 376 24 498 24 c 0,9,10
 628 24 628 24 733 69 c 128,-1,11
 838 114 838 114 906 194 c 128,-1,12
 974 274 974 274 991 380 c 0,13,14
 1004 460 1004 460 980.5 520 c 128,-1,15
 957 580 957 580 890.5 626.5 c 128,-1,16
 824 673 824 673 707 712 c 2,17,-1
 547 766 l 2,18,19
 381 821 381 821 308 910.5 c 128,-1,20
 235 1000 235 1000 258 1130 c 0,21,22
 275 1240 275 1240 347 1326.5 c 128,-1,23
 419 1413 419 1413 527 1462.5 c 128,-1,24
 635 1512 635 1512 761 1512 c 0,25,26
 889 1512 889 1512 978 1461 c 128,-1,27
 1067 1410 1067 1410 1109 1322 c 128,-1,28
 1151 1234 1151 1234 1139 1118 c 1,29,-1
 1094 1118 l 1,30,31
 1107 1273 1107 1273 1020 1370 c 128,-1,32
 933 1467 933 1467 760 1467 c 0,33,34
 647 1467 647 1467 549 1423 c 128,-1,35
 451 1379 451 1379 385 1302 c 128,-1,36
 319 1225 319 1225 303 1127 c 0,37,38
 291 1052 291 1052 314.5 992.5 c 128,-1,39
 338 933 338 933 400.5 887.5 c 128,-1,40
 463 842 463 842 564 808 c 2,41,-1
 724 754 l 2,42,43
 816 724 816 724 880.5 687 c 128,-1,44
 945 650 945 650 983.5 604 c 128,-1,45
 1022 558 1022 558 1035 502 c 128,-1,46
 1048 446 1048 446 1037 377 c 0,47,48
 1019 261 1019 261 945.5 171 c 128,-1,49
 872 81 872 81 758 29.5 c 128,-1,50
 644 -22 644 -22 498 -22 c 0,0,1
EndSplineSet
Substitution2: "'ss06' Style Set 6 in Latin lookup 52 subtable" S.squared
Substitution2: "'ss05' Style Set 5 in Latin lookup 51 subtable" uni24C8
Position2: "'cpsp' Capital Spacing in Latin lookup 0 subtable" dx=0 dy=0 dh=0 dv=0
EndChar

StartChar: uni01A7
Encoding: 423 423 410
Width: 1190
GlyphClass: 2
Flags: W
AnchorPoint: "Anchor-3" 504 0 basechar 0
AnchorPoint: "Anchor-1" 751 1490 basechar 0
AnchorPoint: "Anchor-0" 504 0 basechar 0
LayerCount: 2
Fore
SplineSet
506 -23 m 0,0,1
 365 -23 365 -23 266.5 29 c 128,-1,2
 168 81 168 81 124 172 c 128,-1,3
 80 263 80 263 99 378 c 0,4,5
 110 447 110 447 142 503.5 c 128,-1,6
 174 560 174 560 227 606.5 c 128,-1,7
 280 653 280 653 357 690 c 128,-1,8
 434 727 434 727 535 756 c 2,9,-1
 714 809 l 2,10,11
 826 841 826 841 903 886.5 c 128,-1,12
 980 932 980 932 1024.5 992.5 c 128,-1,13
 1069 1053 1069 1053 1081 1128 c 0,14,15
 1097 1226 1097 1226 1059 1303 c 128,-1,16
 1021 1380 1021 1380 940 1423.5 c 128,-1,17
 859 1467 859 1467 745 1467 c 0,18,19
 630 1467 630 1467 535 1422 c 128,-1,20
 440 1377 440 1377 376 1298.5 c 128,-1,21
 312 1220 312 1220 287 1118 c 1,22,-1
 241 1118 l 1,23,24
 267 1233 267 1233 338.5 1322 c 128,-1,25
 410 1411 410 1411 515.5 1461.5 c 128,-1,26
 621 1512 621 1512 748 1512 c 256,27,28
 875 1512 875 1512 966.5 1462.5 c 128,-1,29
 1058 1413 1058 1413 1101.5 1326 c 128,-1,30
 1145 1239 1145 1239 1127 1128 c 0,31,32
 1105 999 1105 999 1003 908.5 c 128,-1,33
 901 818 901 818 716 763 c 2,34,-1
 540 711 l 2,35,36
 413 674 413 674 330.5 627 c 128,-1,37
 248 580 248 580 203 519.5 c 128,-1,38
 158 459 158 459 145 378 c 0,39,40
 119 221 119 221 218 122.5 c 128,-1,41
 317 24 317 24 510 24 c 0,42,43
 633 24 633 24 732 65 c 128,-1,44
 831 106 831 106 897 179.5 c 128,-1,45
 963 253 963 253 986 350 c 1,46,-1
 1032 350 l 1,47,48
 1007 241 1007 241 934 156.5 c 128,-1,49
 861 72 861 72 751.5 24.5 c 128,-1,50
 642 -23 642 -23 506 -23 c 0,0,1
EndSplineSet
Position2: "'cpsp' Capital Spacing in Latin lookup 0 subtable" dx=0 dy=0 dh=0 dv=0
EndChar

StartChar: uni1E9E
Encoding: 7838 7838 411
Width: 1187
Flags: W
LayerCount: 2
Fore
SplineSet
110 0 m 1,0,-1
 297 1121 l 2,1,2
 317 1242 317 1242 376.5 1329 c 128,-1,3
 436 1416 436 1416 529 1463 c 128,-1,4
 622 1510 622 1510 739 1510 c 0,5,6
 810 1510 810 1510 876 1489 c 128,-1,7
 942 1468 942 1468 996.5 1429 c 128,-1,8
 1051 1390 1051 1390 1090 1336 c 1,9,-1
 628 803 l 1,10,11
 782 803 782 803 880.5 757.5 c 128,-1,12
 979 712 979 712 1020 626 c 128,-1,13
 1061 540 1061 540 1040 415 c 0,14,15
 1018 285 1018 285 951.5 192 c 128,-1,16
 885 99 885 99 779.5 49.5 c 128,-1,17
 674 0 674 0 538 0 c 0,18,19
 488 0 488 0 443.5 9 c 128,-1,20
 399 18 399 18 360 34 c 1,21,-1
 381 76 l 1,22,23
 415 62 415 62 460 55 c 128,-1,24
 505 48 505 48 558 47 c 0,25,26
 729 48 729 48 847 145.5 c 128,-1,27
 965 243 965 243 993 409 c 0,28,29
 1005 479 1005 479 996 536 c 128,-1,30
 987 593 987 593 958 634.5 c 128,-1,31
 929 676 929 676 878.5 704.5 c 128,-1,32
 828 733 828 733 756 746.5 c 128,-1,33
 684 760 684 760 590 760 c 2,34,-1
 568 760 l 1,35,-1
 576 807 l 1,36,-1
 1031 1334 l 1,37,38
 971 1397 971 1397 890 1430.5 c 128,-1,39
 809 1464 809 1464 724 1465 c 0,40,41
 623 1465 623 1465 543 1421.5 c 128,-1,42
 463 1378 463 1378 411 1298.5 c 128,-1,43
 359 1219 359 1219 341 1109 c 2,44,-1
 158 0 l 1,45,-1
 110 0 l 1,0,-1
EndSplineSet
Position2: "'cpsp' Capital Spacing in Latin lookup 0 subtable" dx=0 dy=0 dh=0 dv=0
EndChar

StartChar: T
Encoding: 84 84 412
Width: 1236
GlyphClass: 2
Flags: W
AnchorPoint: "Anchor-3" 528 0 basechar 0
AnchorPoint: "Anchor-1" 774 1490 basechar 0
AnchorPoint: "Anchor-0" 527 0 basechar 0
LayerCount: 2
Fore
SplineSet
244 1445 m 1,0,-1
 252 1490 l 1,1,-1
 1298 1490 l 1,2,-1
 1290 1445 l 1,3,-1
 790 1445 l 1,4,-1
 551 0 l 1,5,-1
 505 0 l 1,6,-1
 744 1445 l 1,7,-1
 244 1445 l 1,0,-1
EndSplineSet
Substitution2: "'c2sc' Capitals to Small Capitals in Latin lookup 67 subtable" t.sc
Substitution2: "'ss06' Style Set 6 in Latin lookup 52 subtable" T.squared
Substitution2: "'ss05' Style Set 5 in Latin lookup 51 subtable" uni24C9
Substitution2: "'aalt' Access All Alternates in Latin lookup 0 subtable" t.sc
Position2: "'cpsp' Capital Spacing in Latin lookup 0 subtable" dx=0 dy=0 dh=0 dv=0
EndChar

StartChar: uni01AC
Encoding: 428 428 420
Width: 1211
GlyphClass: 2
Flags: W
LayerCount: 2
Fore
SplineSet
201 1118 m 1,0,-1
 228 1280 l 2,1,2
 245 1383 245 1383 304.5 1436.5 c 128,-1,3
 364 1490 364 1490 459 1490 c 2,4,-1
 569 1490 l 1,5,-1
 561 1445 l 1,6,-1
 455 1445 l 2,7,8
 376 1445 376 1445 332 1405 c 128,-1,9
 288 1365 288 1365 274 1280 c 2,10,-1
 247 1118 l 1,11,-1
 201 1118 l 1,0,-1
561 1445 m 1,12,-1
 569 1490 l 1,13,-1
 1273 1490 l 1,14,-1
 1265 1445 l 1,15,-1
 785 1445 l 1,16,-1
 546 0 l 1,17,-1
 500 0 l 1,18,-1
 739 1445 l 1,19,-1
 561 1445 l 1,12,-1
EndSplineSet
Position2: "'cpsp' Capital Spacing in Latin lookup 0 subtable" dx=0 dy=0 dh=0 dv=0
EndChar

StartChar: uni01AC.base
Encoding: 60940 60940 421
Width: 1193
GlyphClass: 2
Flags: W
LayerCount: 2
Fore
SplineSet
544 1445 m 1,0,-1
 552 1490 l 1,1,-1
 1255 1490 l 1,2,-1
 1248 1445 l 1,3,-1
 767 1445 l 1,4,-1
 529 0 l 1,5,-1
 483 0 l 1,6,-1
 721 1445 l 1,7,-1
 544 1445 l 1,0,-1
EndSplineSet
EndChar

StartChar: Trthook
Encoding: 430 430 422
Width: 1236
GlyphClass: 2
Flags: W
AnchorPoint: "Anchor-3" 528 0 basechar 0
AnchorPoint: "Anchor-1" 774 1490 basechar 0
AnchorPoint: "Anchor-0" 527 0 basechar 0
LayerCount: 2
Fore
SplineSet
530 0 m 1,0,-1
 502 -168 l 2,1,2
 484 -271 484 -271 515 -320 c 128,-1,3
 546 -369 546 -369 625 -370 c 2,4,-1
 673 -370 l 1,5,-1
 666 -416 l 1,6,-1
 612 -416 l 2,7,8
 564 -416 564 -416 529.5 -399.5 c 128,-1,9
 495 -383 495 -383 475 -351.5 c 128,-1,10
 455 -320 455 -320 449.5 -274 c 128,-1,11
 444 -228 444 -228 455 -168 c 2,12,-1
 484 0 l 1,13,-1
 530 0 l 1,0,-1
244 1445 m 1,14,-1
 252 1490 l 1,15,-1
 1298 1490 l 1,16,-1
 1290 1445 l 1,17,-1
 790 1445 l 1,18,-1
 551 0 l 1,19,-1
 505 0 l 1,20,-1
 744 1445 l 1,21,-1
 244 1445 l 1,14,-1
EndSplineSet
Position2: "'cpsp' Capital Spacing in Latin lookup 0 subtable" dx=0 dy=0 dh=0 dv=0
EndChar

StartChar: uni023E
Encoding: 574 574 423
Width: 1236
GlyphClass: 2
Flags: W
AnchorPoint: "Anchor-3" 528 0 basechar 0
AnchorPoint: "Anchor-1" 774 1490 basechar 0
AnchorPoint: "Anchor-0" 527 0 basechar 0
LayerCount: 2
Fore
SplineSet
102 -190 m 1,0,-1
 1133 1678 l 1,1,-1
 1179 1678 l 1,2,-1
 149 -190 l 1,3,-1
 102 -190 l 1,0,-1
244 1445 m 1,4,-1
 252 1490 l 1,5,-1
 1298 1490 l 1,6,-1
 1290 1445 l 1,7,-1
 790 1445 l 1,8,-1
 551 0 l 1,9,-1
 505 0 l 1,10,-1
 744 1445 l 1,11,-1
 244 1445 l 1,4,-1
EndSplineSet
Position2: "'cpsp' Capital Spacing in Latin lookup 0 subtable" dx=0 dy=0 dh=0 dv=0
EndChar

StartChar: U
Encoding: 85 85 425
Width: 1413
GlyphClass: 2
Flags: W
AnchorPoint: "Anchor-4" 1237 507 basechar 0
AnchorPoint: "Anchor-1" 863 1490 basechar 0
AnchorPoint: "Anchor-0" 616 0 basechar 0
LayerCount: 2
Fore
SplineSet
616 -19 m 0,0,1
 463 -19 463 -19 352 50 c 128,-1,2
 241 119 241 119 190.5 238.5 c 128,-1,3
 140 358 140 358 165 509 c 2,4,-1
 327 1490 l 1,5,-1
 373 1490 l 1,6,-1
 211 505 l 2,7,8
 188 367 188 367 233 259.5 c 128,-1,9
 278 152 278 152 378.5 89.5 c 128,-1,10
 479 27 479 27 617 27 c 0,11,12
 759 27 759 27 881 90 c 128,-1,13
 1003 153 1003 153 1085 262.5 c 128,-1,14
 1167 372 1167 372 1190 510 c 2,15,-1
 1353 1490 l 1,16,-1
 1399 1490 l 1,17,-1
 1237 506 l 2,18,19
 1212 354 1212 354 1122 235.5 c 128,-1,20
 1032 117 1032 117 900 49 c 128,-1,21
 768 -19 768 -19 616 -19 c 0,0,1
EndSplineSet
Substitution2: "'ss06' Style Set 6 in Latin lookup 52 subtable" U.squared
Substitution2: "'ss05' Style Set 5 in Latin lookup 51 subtable" uni24CA
Position2: "'cpsp' Capital Spacing in Latin lookup 0 subtable" dx=0 dy=0 dh=0 dv=0
EndChar

StartChar: Uhorn
Encoding: 431 431 426
Width: 1443
GlyphClass: 2
Flags: W
AnchorPoint: "Anchor-4" 1237 507 basechar 0
AnchorPoint: "Anchor-1" 863 1490 basechar 0
AnchorPoint: "Anchor-0" 616 0 basechar 0
LayerCount: 2
Fore
SplineSet
1361 1444 m 1,0,-1
 1369 1490 l 1,1,-1
 1482 1490 l 2,2,3
 1558 1490 1558 1490 1571 1567 c 2,4,-1
 1595 1714 l 1,5,-1
 1641 1714 l 1,6,-1
 1617 1567 l 2,7,8
 1607 1508 1607 1508 1570 1476 c 128,-1,9
 1533 1444 1533 1444 1474 1444 c 2,10,-1
 1361 1444 l 1,0,-1
616 -19 m 0,11,12
 463 -19 463 -19 352 50 c 128,-1,13
 241 119 241 119 190.5 238.5 c 128,-1,14
 140 358 140 358 165 509 c 2,15,-1
 327 1490 l 1,16,-1
 373 1490 l 1,17,-1
 211 505 l 2,18,19
 188 367 188 367 233 259.5 c 128,-1,20
 278 152 278 152 378.5 89.5 c 128,-1,21
 479 27 479 27 617 27 c 0,22,23
 759 27 759 27 881 90 c 128,-1,24
 1003 153 1003 153 1085 262.5 c 128,-1,25
 1167 372 1167 372 1190 510 c 2,26,-1
 1353 1490 l 1,27,-1
 1399 1490 l 1,28,-1
 1237 506 l 2,29,30
 1212 354 1212 354 1122 235.5 c 128,-1,31
 1032 117 1032 117 900 49 c 128,-1,32
 768 -19 768 -19 616 -19 c 0,11,12
EndSplineSet
Position2: "'cpsp' Capital Spacing in Latin lookup 0 subtable" dx=0 dy=0 dh=0 dv=0
EndChar

StartChar: uni0244
Encoding: 580 580 456
Width: 1416
GlyphClass: 2
Flags: W
AnchorPoint: "Anchor-4" 1199 507 basechar 0
AnchorPoint: "Anchor-1" 825 1490 basechar 0
AnchorPoint: "Anchor-0" 578 0 basechar 0
LayerCount: 2
Fore
SplineSet
1507 876 m 1,0,-1
 1499 830 l 1,1,-1
 12 830 l 1,2,-1
 21 876 l 1,3,-1
 1507 876 l 1,0,-1
578 -19 m 0,4,5
 425 -19 425 -19 314 50 c 128,-1,6
 203 119 203 119 152.5 238.5 c 128,-1,7
 102 358 102 358 127 509 c 2,8,-1
 289 1490 l 1,9,-1
 335 1490 l 1,10,-1
 173 505 l 2,11,12
 150 367 150 367 195 259.5 c 128,-1,13
 240 152 240 152 340.5 89.5 c 128,-1,14
 441 27 441 27 579 27 c 0,15,16
 721 27 721 27 843 90 c 128,-1,17
 965 153 965 153 1047 262.5 c 128,-1,18
 1129 372 1129 372 1152 510 c 2,19,-1
 1315 1490 l 1,20,-1
 1361 1490 l 1,21,-1
 1199 506 l 2,22,23
 1174 354 1174 354 1084 235.5 c 128,-1,24
 994 117 994 117 862 49 c 128,-1,25
 730 -19 730 -19 578 -19 c 0,4,5
EndSplineSet
Position2: "'cpsp' Capital Spacing in Latin lookup 0 subtable" dx=0 dy=0 dh=0 dv=0
EndChar

StartChar: V
Encoding: 86 86 457
Width: 1265
GlyphClass: 2
Flags: W
AnchorPoint: "Anchor-1" 789 1490 basechar 0
AnchorPoint: "Anchor-0" 542 0 basechar 0
LayerCount: 2
Fore
SplineSet
511 0 m 1,0,-1
 200 1490 l 1,1,-1
 246 1490 l 1,2,-1
 487 336 l 2,3,4
 504 257 504 257 520 177 c 128,-1,5
 536 97 536 97 552 16 c 1,6,-1
 534 16 l 1,7,8
 576 96 576 96 619 176.5 c 128,-1,9
 662 257 662 257 705 336 c 2,10,-1
 1326 1490 l 1,11,-1
 1378 1490 l 1,12,-1
 574 0 l 1,13,-1
 511 0 l 1,0,-1
EndSplineSet
Substitution2: "'ss06' Style Set 6 in Latin lookup 52 subtable" V.squared
Substitution2: "'ss05' Style Set 5 in Latin lookup 51 subtable" uni24CB
Position2: "'cpsp' Capital Spacing in Latin lookup 0 subtable" dx=0 dy=0 dh=0 dv=0
EndChar

StartChar: W
Encoding: 87 87 460
Width: 1856
GlyphClass: 2
Flags: W
AnchorPoint: "Anchor-1" 1085 1490 basechar 0
AnchorPoint: "Anchor-0" 838 0 basechar 0
LayerCount: 2
Fore
SplineSet
375 0 m 1,0,-1
 200 1490 l 1,1,-1
 248 1490 l 1,2,-1
 380 352 l 2,3,4
 387 297 387 297 393.5 240.5 c 128,-1,5
 400 184 400 184 406 128.5 c 128,-1,6
 412 73 412 73 419 17 c 1,7,-1
 406 17 l 1,8,9
 430 73 430 73 454 128.5 c 128,-1,10
 478 184 478 184 502.5 240.5 c 128,-1,11
 527 297 527 297 551 352 c 2,12,-1
 1049 1490 l 1,13,-1
 1119 1490 l 1,14,-1
 1240 352 l 2,15,16
 1246 297 1246 297 1252 240.5 c 128,-1,17
 1258 184 1258 184 1263 128.5 c 128,-1,18
 1268 73 1268 73 1274 17 c 1,19,-1
 1262 17 l 1,20,21
 1287 73 1287 73 1311 128.5 c 128,-1,22
 1335 184 1335 184 1360 240.5 c 128,-1,23
 1385 297 1385 297 1410 352 c 2,24,-1
 1921 1490 l 1,25,-1
 1970 1490 l 1,26,-1
 1301 0 l 1,27,-1
 1231 0 l 1,28,-1
 1113 1104 l 2,29,30
 1103 1197 1103 1197 1093.5 1288.5 c 128,-1,31
 1084 1380 1084 1380 1076 1473 c 1,32,-1
 1088 1473 l 1,33,34
 1048 1380 1048 1380 1008.5 1288.5 c 128,-1,35
 969 1197 969 1197 928 1104 c 2,36,-1
 445 0 l 1,37,-1
 375 0 l 1,0,-1
EndSplineSet
Substitution2: "'ss06' Style Set 6 in Latin lookup 52 subtable" W.squared
Substitution2: "'ss05' Style Set 5 in Latin lookup 51 subtable" uni24CC
Position2: "'cpsp' Capital Spacing in Latin lookup 0 subtable" dx=0 dy=0 dh=0 dv=0
EndChar

StartChar: X
Encoding: 88 88 467
Width: 1230
GlyphClass: 2
Flags: W
AnchorPoint: "Anchor-1" 772 1490 basechar 0
AnchorPoint: "Anchor-0" 525 0 basechar 0
LayerCount: 2
Fore
SplineSet
-44 0 m 1,0,-1
 637 774 l 1,1,-1
 631 740 l 1,2,-1
 219 1490 l 1,3,-1
 271 1490 l 1,4,-1
 528 1024 l 2,5,6
 551 984 551 984 573 943.5 c 128,-1,7
 595 903 595 903 617 861.5 c 128,-1,8
 639 820 639 820 660 777 c 1,9,-1
 639 777 l 1,10,11
 676 820 676 820 711 861.5 c 128,-1,12
 746 903 746 903 782 943.5 c 128,-1,13
 818 984 818 984 854 1024 c 2,14,-1
 1265 1490 l 1,15,-1
 1325 1490 l 1,16,-1
 663 740 l 1,17,-1
 669 774 l 1,18,-1
 1094 0 l 1,19,-1
 1041 0 l 1,20,-1
 769 496 l 2,21,22
 748 536 748 536 726.5 576 c 128,-1,23
 705 616 705 616 683.5 656 c 128,-1,24
 662 696 662 696 641 736 c 1,25,-1
 660 736 l 1,26,27
 625 696 625 696 591 656 c 128,-1,28
 557 616 557 616 522 576 c 128,-1,29
 487 536 487 536 452 496 c 2,30,-1
 16 0 l 1,31,-1
 -44 0 l 1,0,-1
EndSplineSet
Substitution2: "'ss06' Style Set 6 in Latin lookup 52 subtable" X.squared
Substitution2: "'ss05' Style Set 5 in Latin lookup 51 subtable" uni24CD
Position2: "'cpsp' Capital Spacing in Latin lookup 0 subtable" dx=0 dy=0 dh=0 dv=0
EndChar

StartChar: Y
Encoding: 89 89 473
Width: 1266
GlyphClass: 2
Flags: W
AnchorPoint: "Anchor-4" 567 0 basechar 0
AnchorPoint: "Anchor-1" 790 1490 basechar 0
AnchorPoint: "Anchor-0" 543 0 basechar 0
LayerCount: 2
Fore
SplineSet
521 0 m 1,0,-1
 638 706 l 1,1,-1
 200 1490 l 1,2,-1
 252 1490 l 1,3,-1
 530 993 l 2,4,5
 566 928 566 928 601 864.5 c 128,-1,6
 636 801 636 801 671 737 c 1,7,-1
 653 737 l 1,8,9
 709 801 709 801 765.5 864.5 c 128,-1,10
 822 928 822 928 878 993 c 2,11,-1
 1320 1490 l 1,12,-1
 1380 1490 l 1,13,-1
 684 706 l 1,14,-1
 567 0 l 1,15,-1
 521 0 l 1,0,-1
EndSplineSet
Substitution2: "'c2sc' Capitals to Small Capitals in Latin lookup 67 subtable" y.sc
Substitution2: "'ss06' Style Set 6 in Latin lookup 52 subtable" Y.squared
Substitution2: "'ss05' Style Set 5 in Latin lookup 51 subtable" uni24CE
Substitution2: "'aalt' Access All Alternates in Latin lookup 0 subtable" y.sc
Position2: "'cpsp' Capital Spacing in Latin lookup 0 subtable" dx=0 dy=0 dh=0 dv=0
EndChar

StartChar: uni01B3
Encoding: 435 435 474
Width: 1210
Flags: W
LayerCount: 2
Fore
SplineSet
563 724 m 1,0,-1
 569 760 l 1,1,-1
 603 760 l 1,2,-1
 597 724 l 1,3,-1
 563 724 l 1,0,-1
149 1490 m 1,4,-1
 204 1490 l 1,5,-1
 583 754 l 1,6,-1
 1157 1433 l 2,7,8
 1197 1478 1197 1478 1246 1496.5 c 128,-1,9
 1295 1515 1295 1515 1340 1509 c 128,-1,10
 1385 1503 1385 1503 1410 1475 c 1,11,-1
 1372 1445 l 1,12,13
 1340 1469 1340 1469 1287 1460 c 128,-1,14
 1234 1451 1234 1451 1189 1400 c 2,15,-1
 600 707 l 1,16,-1
 484 0 l 1,17,-1
 438 0 l 1,18,-1
 554 707 l 1,19,-1
 149 1490 l 1,4,-1
EndSplineSet
Position2: "'cpsp' Capital Spacing in Latin lookup 0 subtable" dx=0 dy=0 dh=0 dv=0
EndChar

StartChar: uni024E
Encoding: 590 590 484
Width: 1184
GlyphClass: 2
Flags: W
AnchorPoint: "Anchor-4" 567 0 basechar 0
AnchorPoint: "Anchor-1" 790 1490 basechar 0
AnchorPoint: "Anchor-0" 543 0 basechar 0
LayerCount: 2
Fore
SplineSet
1330 1174 m 1,0,-1
 1322 1128 l 1,1,-1
 59 1128 l 1,2,-1
 68 1174 l 1,3,-1
 1330 1174 l 1,0,-1
521 0 m 1,4,-1
 638 706 l 1,5,-1
 200 1490 l 1,6,-1
 252 1490 l 1,7,-1
 530 993 l 2,8,9
 566 928 566 928 601 864.5 c 128,-1,10
 636 801 636 801 671 737 c 1,11,-1
 653 737 l 1,12,13
 709 801 709 801 765.5 864.5 c 128,-1,14
 822 928 822 928 878 993 c 2,15,-1
 1320 1490 l 1,16,-1
 1380 1490 l 1,17,-1
 684 706 l 1,18,-1
 567 0 l 1,19,-1
 521 0 l 1,4,-1
EndSplineSet
Position2: "'cpsp' Capital Spacing in Latin lookup 0 subtable" dx=0 dy=0 dh=0 dv=0
EndChar

StartChar: Z
Encoding: 90 90 497
Width: 1177
GlyphClass: 2
Flags: W
AnchorPoint: "Anchor-1" 745 1490 basechar 0
AnchorPoint: "Anchor-0" 498 0 basechar 0
LayerCount: 2
Fore
SplineSet
33 0 m 1,0,-1
 40 46 l 1,1,-1
 1146 1443 l 1,2,-1
 277 1443 l 1,3,-1
 286 1490 l 1,4,-1
 1211 1490 l 1,5,-1
 1204 1442 l 1,6,-1
 98 47 l 1,7,-1
 977 47 l 1,8,-1
 969 0 l 1,9,-1
 33 0 l 1,0,-1
EndSplineSet
Substitution2: "'ss06' Style Set 6 in Latin lookup 52 subtable" Z.squared
Substitution2: "'ss05' Style Set 5 in Latin lookup 51 subtable" uni24CF
Position2: "'cpsp' Capital Spacing in Latin lookup 0 subtable" dx=0 dy=0 dh=0 dv=0
EndChar

StartChar: uni0224
Encoding: 548 548 504
Width: 1177
GlyphClass: 2
Flags: W
AnchorPoint: "Anchor-1" 745 1490 basechar 0
AnchorPoint: "Anchor-0" 498 0 basechar 0
LayerCount: 2
Fore
SplineSet
643 -418 m 1,0,-1
 650 -371 l 1,1,2
 669 -372 669 -372 689 -372 c 128,-1,3
 709 -372 709 -372 722 -372 c 0,4,5
 794 -372 794 -372 834 -337 c 128,-1,6
 874 -302 874 -302 887 -219 c 2,7,-1
 923 0 l 1,8,-1
 969 0 l 1,9,-1
 932 -219 l 2,10,11
 915 -322 915 -322 861 -369.5 c 128,-1,12
 807 -417 807 -417 715 -417 c 0,13,14
 703 -417 703 -417 682 -417.5 c 128,-1,15
 661 -418 661 -418 643 -418 c 1,0,-1
33 0 m 1,16,-1
 40 46 l 1,17,-1
 1146 1443 l 1,18,-1
 277 1443 l 1,19,-1
 286 1490 l 1,20,-1
 1211 1490 l 1,21,-1
 1204 1442 l 1,22,-1
 98 47 l 1,23,-1
 977 47 l 1,24,-1
 969 0 l 1,25,-1
 33 0 l 1,16,-1
EndSplineSet
Position2: "'cpsp' Capital Spacing in Latin lookup 0 subtable" dx=0 dy=0 dh=0 dv=0
EndChar

StartChar: uni2C7F
Encoding: 11391 11391 507
Width: 1201
Flags: W
LayerCount: 2
Fore
SplineSet
808 -436 m 0,0,1
 745 -436 745 -436 691 -404 c 128,-1,2
 637 -372 637 -372 588 -322.5 c 128,-1,3
 539 -273 539 -273 488 -217 c 128,-1,4
 437 -161 437 -161 378.5 -111.5 c 128,-1,5
 320 -62 320 -62 248 -31 c 128,-1,6
 176 0 176 0 85 0 c 2,7,-1
 33 0 l 1,8,-1
 40 47 l 1,9,-1
 1148 1443 l 1,10,-1
 277 1443 l 1,11,-1
 285 1490 l 1,12,-1
 1210 1490 l 1,13,-1
 1202 1443 l 1,14,-1
 96 46 l 1,15,16
 215 47 215 47 301.5 2.5 c 128,-1,17
 388 -42 388 -42 453.5 -107 c 128,-1,18
 519 -172 519 -172 576.5 -236.5 c 128,-1,19
 634 -301 634 -301 694.5 -345 c 128,-1,20
 755 -389 755 -389 832 -389 c 0,21,22
 855 -389 855 -389 881 -384.5 c 128,-1,23
 907 -380 907 -380 930 -375 c 1,24,-1
 924 -416 l 1,25,26
 906 -422 906 -422 873.5 -429 c 128,-1,27
 841 -436 841 -436 808 -436 c 0,0,1
EndSplineSet
Position2: "'cpsp' Capital Spacing in Latin lookup 0 subtable" dx=0 dy=0 dh=0 dv=0
EndChar

StartChar: a
Encoding: 97 97 508
Width: 1156
GlyphClass: 2
Flags: W
AnchorPoint: "Anchor-4" 899 0 basechar 0
AnchorPoint: "Anchor-1" 645 1087 basechar 0
AnchorPoint: "Anchor-0" 476 0 basechar 0
LayerCount: 2
Fore
SplineSet
453 -20 m 0,0,1
 321 -20 321 -20 232 51.5 c 128,-1,2
 143 123 143 123 107 250 c 128,-1,3
 71 377 71 377 99 543 c 0,4,5
 126 706 126 706 204.5 833 c 128,-1,6
 283 960 283 960 396 1031.5 c 128,-1,7
 509 1103 509 1103 640 1103 c 0,8,9
 734 1103 734 1103 808 1064.5 c 128,-1,10
 882 1026 882 1026 927.5 958.5 c 128,-1,11
 973 891 973 891 982 802 c 1,12,-1
 985 802 l 1,13,-1
 1033 1087 l 1,14,-1
 1079 1087 l 1,15,-1
 899 0 l 1,16,-1
 853 0 l 1,17,-1
 899 281 l 1,18,-1
 895 281 l 1,19,20
 856 193 856 193 788 125 c 128,-1,21
 720 57 720 57 634.5 18.5 c 128,-1,22
 549 -20 549 -20 453 -20 c 0,0,1
458 26 m 0,23,24
 578 26 578 26 678.5 92 c 128,-1,25
 779 158 779 158 848 274 c 128,-1,26
 917 390 917 390 943 543 c 0,27,28
 968 695 968 695 939 811 c 128,-1,29
 910 927 910 927 833 992.5 c 128,-1,30
 756 1058 756 1058 636 1058 c 0,31,32
 518 1058 518 1058 415.5 992.5 c 128,-1,33
 313 927 313 927 241.5 810.5 c 128,-1,34
 170 694 170 694 144 543 c 0,35,36
 119 391 119 391 150 274.5 c 128,-1,37
 181 158 181 158 260 92 c 128,-1,38
 339 26 339 26 458 26 c 0,23,24
EndSplineSet
Substitution2: "'smcp' Lowercase to Small Capitals in Latin lookup 68 subtable" a.sc
Substitution2: "'c2sc' Capitals to Small Capitals in Latin lookup 67 subtable" a.sc
Substitution2: "Single Substitution lookup 44 subtable" ordfeminine
Substitution2: "'sups' Superscript in Latin lookup 39 subtable" a.sups
Substitution2: "'subs' Subscript in Latin lookup 38 subtable" a.subs
Substitution2: "'sinf' Scientific Inferiors in Latin lookup 18 subtable" a.subs
AlternateSubs2: "'aalt' Access All Alternates in Latin lookup 1 subtable" ordfeminine a.sups a.subs a.sc
EndChar

StartChar: aturn
Encoding: 592 592 540
Width: 1156
GlyphClass: 2
Flags: W
AnchorPoint: "Anchor-4" 257 1087 basechar 0
AnchorPoint: "Anchor-1" 695 1087 basechar 0
AnchorPoint: "Anchor-0" 517 0 basechar 0
LayerCount: 2
Fore
SplineSet
703 1107 m 0,0,1
 836 1107 836 1107 924.5 1035.5 c 128,-1,2
 1013 964 1013 964 1049 837.5 c 128,-1,3
 1085 711 1085 711 1057 546 c 0,4,5
 1030 382 1030 382 951.5 255 c 128,-1,6
 873 128 873 128 760.5 56 c 128,-1,7
 648 -16 648 -16 516 -16 c 0,8,9
 422 -16 422 -16 348 22.5 c 128,-1,10
 274 61 274 61 229 129.5 c 128,-1,11
 184 198 184 198 174 287 c 1,12,-1
 171 287 l 1,13,-1
 123 0 l 1,14,-1
 77 0 l 1,15,-1
 257 1087 l 1,16,-1
 303 1087 l 1,17,-1
 257 808 l 1,18,-1
 261 808 l 1,19,20
 301 896 301 896 368.5 963.5 c 128,-1,21
 436 1031 436 1031 522 1069 c 128,-1,22
 608 1107 608 1107 703 1107 c 0,0,1
698 1061 m 0,23,24
 578 1061 578 1061 477.5 995.5 c 128,-1,25
 377 930 377 930 308 814 c 128,-1,26
 239 698 239 698 213 546 c 0,27,28
 188 393 188 393 217 277 c 128,-1,29
 246 161 246 161 323.5 96 c 128,-1,30
 401 31 401 31 520 31 c 256,31,32
 639 31 639 31 741 96 c 128,-1,33
 843 161 843 161 915 277 c 128,-1,34
 987 393 987 393 1012 546 c 0,35,36
 1036 698 1036 698 1005.5 814.5 c 128,-1,37
 975 931 975 931 896 996 c 128,-1,38
 817 1061 817 1061 698 1061 c 0,23,24
EndSplineSet
EndChar

StartChar: ae
Encoding: 230 230 544
Width: 1789
GlyphClass: 2
Flags: W
AnchorPoint: "Anchor-1" 959 1087 basechar 0
LayerCount: 2
Fore
SplineSet
350 -24 m 0,0,1
 191 -24 191 -24 112 64 c 128,-1,2
 33 152 33 152 59 303 c 0,3,4
 75 404 75 404 132.5 471 c 128,-1,5
 190 538 190 538 290 572 c 128,-1,6
 390 606 390 606 530 606 c 0,7,8
 586 606 586 606 639.5 606 c 128,-1,9
 693 606 693 606 747.5 605.5 c 128,-1,10
 802 605 802 605 857 605 c 1,11,-1
 849 560 l 1,12,13
 773 560 773 560 690 559.5 c 128,-1,14
 607 559 607 559 531 559 c 0,15,16
 339 559 339 559 233 495.5 c 128,-1,17
 127 432 127 432 106 303 c 0,18,19
 84 168 84 168 147 95 c 128,-1,20
 210 22 210 22 351 22 c 0,21,22
 481 22 481 22 576 81.5 c 128,-1,23
 671 141 671 141 730 244.5 c 128,-1,24
 789 348 789 348 809 478 c 2,25,-1
 863 803 l 2,26,27
 885 929 885 929 811 1009 c 128,-1,28
 737 1089 737 1089 599 1089 c 0,29,30
 503 1089 503 1089 420.5 1049 c 128,-1,31
 338 1009 338 1009 283 940 c 128,-1,32
 228 871 228 871 213 785 c 1,33,-1
 166 785 l 1,34,35
 183 885 183 885 244.5 964 c 128,-1,36
 306 1043 306 1043 398 1089 c 128,-1,37
 490 1135 490 1135 597 1135 c 0,38,39
 703 1135 703 1135 779.5 1091.5 c 128,-1,40
 856 1048 856 1048 891 973.5 c 128,-1,41
 926 899 926 899 909 802 c 2,42,-1
 848 451 l 1,43,-1
 848 447 l 1,44,45
 825 312 825 312 759.5 206 c 128,-1,46
 694 100 694 100 591 38 c 128,-1,47
 488 -24 488 -24 350 -24 c 0,0,1
1206 -16 m 0,48,49
 1072 -16 1072 -16 985 30.5 c 128,-1,50
 898 77 898 77 856 171 c 128,-1,51
 814 265 814 265 814 409 c 0,52,53
 814 567 814 567 857.5 700 c 128,-1,54
 901 833 901 833 981.5 930 c 128,-1,55
 1062 1027 1062 1027 1171.5 1080.5 c 128,-1,56
 1281 1134 1281 1134 1415 1134 c 0,57,58
 1511 1134 1511 1134 1580 1104 c 128,-1,59
 1649 1074 1649 1074 1686.5 1017 c 128,-1,60
 1724 960 1724 960 1724 880 c 0,61,62
 1724 792 1724 792 1677 730.5 c 128,-1,63
 1630 669 1630 669 1527 631.5 c 128,-1,64
 1424 594 1424 594 1257.5 576.5 c 128,-1,65
 1091 559 1091 559 851 559 c 1,66,-1
 852 605 l 1,67,68
 1085 605 1085 605 1243 619 c 128,-1,69
 1401 633 1401 633 1496.5 665 c 128,-1,70
 1592 697 1592 697 1634.5 750 c 128,-1,71
 1677 803 1677 803 1677 880 c 0,72,73
 1677 981 1677 981 1610.5 1034.5 c 128,-1,74
 1544 1088 1544 1088 1415 1088 c 0,75,76
 1252 1088 1252 1088 1126 1004.5 c 128,-1,77
 1000 921 1000 921 928.5 771 c 128,-1,78
 857 621 857 621 858 422 c 0,79,80
 858 420 858 420 858 418 c 128,-1,81
 858 416 858 416 857.5 413.5 c 128,-1,82
 857 411 857 411 857 409 c 0,83,84
 857 209 857 209 939.5 119.5 c 128,-1,85
 1022 30 1022 30 1206 30 c 0,86,87
 1335 30 1335 30 1425 75 c 128,-1,88
 1515 120 1515 120 1604 227 c 1,89,-1
 1640 199 l 1,90,91
 1546 85 1546 85 1444 34.5 c 128,-1,92
 1342 -16 1342 -16 1206 -16 c 0,48,49
EndSplineSet
EndChar

StartChar: b
Encoding: 98 98 548
Width: 1156
GlyphClass: 2
Flags: W
AnchorPoint: "Anchor-1" 732 1283 basechar 0
AnchorPoint: "Anchor-0" 519 0 basechar 0
LayerCount: 2
Fore
SplineSet
519 -20 m 0,0,1
 424 -20 424 -20 350 18 c 128,-1,2
 276 56 276 56 230.5 124.5 c 128,-1,3
 185 193 185 193 173 281 c 1,4,-1
 169 281 l 1,5,-1
 122 0 l 1,6,-1
 76 0 l 1,7,-1
 323 1490 l 1,8,-1
 369 1490 l 1,9,-1
 255 801 l 1,10,-1
 258 801 l 1,11,12
 297 892 297 892 364.5 959.5 c 128,-1,13
 432 1027 432 1027 518 1065 c 128,-1,14
 604 1103 604 1103 699 1103 c 0,15,16
 813 1103 813 1103 895.5 1049 c 128,-1,17
 978 995 978 995 1023 898.5 c 128,-1,18
 1068 802 1068 802 1068 672 c 0,19,20
 1068 548 1068 548 1029.5 425 c 128,-1,21
 991 302 991 302 919 201.5 c 128,-1,22
 847 101 847 101 746 40.5 c 128,-1,23
 645 -20 645 -20 519 -20 c 0,0,1
520 26 m 0,24,25
 634 26 634 26 726.5 82.5 c 128,-1,26
 819 139 819 139 885 232.5 c 128,-1,27
 951 326 951 326 986.5 440.5 c 128,-1,28
 1022 555 1022 555 1022 671 c 0,29,30
 1022 847 1022 847 935 952.5 c 128,-1,31
 848 1058 848 1058 698 1058 c 0,32,33
 582 1058 582 1058 489.5 1001 c 128,-1,34
 397 944 397 944 332.5 849.5 c 128,-1,35
 268 755 268 755 234 640 c 128,-1,36
 200 525 200 525 200 409 c 0,37,38
 200 236 200 236 284.5 131 c 128,-1,39
 369 26 369 26 520 26 c 0,24,25
EndSplineSet
Substitution2: "'sups' Superscript in Latin lookup 39 subtable" b.sups
Substitution2: "'subs' Subscript in Latin lookup 38 subtable" b.subs
Substitution2: "'sinf' Scientific Inferiors in Latin lookup 18 subtable" b.subs
AlternateSubs2: "'aalt' Access All Alternates in Latin lookup 1 subtable" b.sups b.subs
EndChar

StartChar: uni0183
Encoding: 387 387 550
Width: 1156
GlyphClass: 2
Flags: W
AnchorPoint: "Anchor-1" 732 1283 basechar 0
AnchorPoint: "Anchor-0" 519 0 basechar 0
LayerCount: 2
Fore
SplineSet
340 1445 m 1,0,-1
 323 1490 l 1,1,-1
 1009 1490 l 1,2,-1
 1002 1445 l 1,3,-1
 340 1445 l 1,0,-1
519 -20 m 0,4,5
 424 -20 424 -20 350 18 c 128,-1,6
 276 56 276 56 230.5 124.5 c 128,-1,7
 185 193 185 193 173 281 c 1,8,-1
 169 281 l 1,9,-1
 122 0 l 1,10,-1
 76 0 l 1,11,-1
 323 1490 l 1,12,-1
 369 1490 l 1,13,-1
 255 801 l 1,14,-1
 258 801 l 1,15,16
 297 892 297 892 364.5 959.5 c 128,-1,17
 432 1027 432 1027 518 1065 c 128,-1,18
 604 1103 604 1103 699 1103 c 0,19,20
 813 1103 813 1103 895.5 1049 c 128,-1,21
 978 995 978 995 1023 898.5 c 128,-1,22
 1068 802 1068 802 1068 672 c 0,23,24
 1068 548 1068 548 1029.5 425 c 128,-1,25
 991 302 991 302 919 201.5 c 128,-1,26
 847 101 847 101 746 40.5 c 128,-1,27
 645 -20 645 -20 519 -20 c 0,4,5
520 26 m 0,28,29
 634 26 634 26 726.5 82.5 c 128,-1,30
 819 139 819 139 885 232.5 c 128,-1,31
 951 326 951 326 986.5 440.5 c 128,-1,32
 1022 555 1022 555 1022 671 c 0,33,34
 1022 847 1022 847 935 952.5 c 128,-1,35
 848 1058 848 1058 698 1058 c 0,36,37
 582 1058 582 1058 489.5 1001 c 128,-1,38
 397 944 397 944 332.5 849.5 c 128,-1,39
 268 755 268 755 234 640 c 128,-1,40
 200 525 200 525 200 409 c 0,41,42
 200 236 200 236 284.5 131 c 128,-1,43
 369 26 369 26 520 26 c 0,28,29
EndSplineSet
EndChar

StartChar: uni0253
Encoding: 595 595 551
Width: 1155
GlyphClass: 2
Flags: W
AnchorPoint: "Anchor-1" 461 1490 basechar 0
AnchorPoint: "Anchor-0" 379 114 basechar 0
LayerCount: 2
Fore
SplineSet
524 -20 m 0,0,1
 430 -20 430 -20 354.5 18 c 128,-1,2
 279 56 279 56 232 124.5 c 128,-1,3
 185 193 185 193 173 280 c 1,4,-1
 169 280 l 1,5,-1
 123 0 l 1,6,-1
 77 0 l 1,7,-1
 224 888 l 1,8,-1
 270 888 l 1,9,-1
 255 801 l 1,10,-1
 259 801 l 1,11,12
 298 890 298 890 364 958.5 c 128,-1,13
 430 1027 430 1027 515 1065 c 128,-1,14
 600 1103 600 1103 694 1103 c 0,15,16
 826 1103 826 1103 916.5 1031.5 c 128,-1,17
 1007 960 1007 960 1045.5 833.5 c 128,-1,18
 1084 707 1084 707 1056 542 c 0,19,20
 1030 378 1030 378 954 251 c 128,-1,21
 878 124 878 124 767.5 52 c 128,-1,22
 657 -20 657 -20 524 -20 c 0,0,1
525 27 m 0,23,24
 643 27 643 27 744 92.5 c 128,-1,25
 845 158 845 158 915 274 c 128,-1,26
 985 390 985 390 1010 542 c 0,27,28
 1036 694 1036 694 1004.5 810.5 c 128,-1,29
 973 927 973 927 893.5 992 c 128,-1,30
 814 1057 814 1057 695 1057 c 0,31,32
 575 1057 575 1057 475 992 c 128,-1,33
 375 927 375 927 306.5 810.5 c 128,-1,34
 238 694 238 694 212 542 c 0,35,36
 187 391 187 391 217.5 274.5 c 128,-1,37
 248 158 248 158 326 92.5 c 128,-1,38
 404 27 404 27 525 27 c 0,23,24
224 889 m 1,39,-1
 262 1119 l 1,40,-1
 291 1293 l 2,41,42
 308 1394 308 1394 362 1442 c 128,-1,43
 416 1490 416 1490 508 1490 c 0,44,45
 522 1490 522 1490 542.5 1490.5 c 128,-1,46
 563 1491 563 1491 580 1491 c 1,47,-1
 572 1444 l 1,48,49
 553 1444 553 1444 533 1444 c 128,-1,50
 513 1444 513 1444 500 1444 c 0,51,52
 428 1444 428 1444 389.5 1409.5 c 128,-1,53
 351 1375 351 1375 337 1293 c 2,54,-1
 308 1118 l 1,55,-1
 270 889 l 1,56,-1
 224 889 l 1,39,-1
EndSplineSet
EndChar

StartChar: thorn
Encoding: 254 254 555
Width: 1127
Flags: W
LayerCount: 2
Fore
SplineSet
505 -24 m 0,0,1
 414 -24 414 -24 345 13 c 128,-1,2
 276 50 276 50 232.5 119 c 128,-1,3
 189 188 189 188 175 281 c 1,4,-1
 169 281 l 1,5,-1
 53 -418 l 1,6,-1
 7 -418 l 1,7,-1
 323 1490 l 1,8,-1
 369 1490 l 1,9,-1
 260 833 l 1,10,-1
 266 833 l 1,11,12
 310 926 310 926 376.5 993.5 c 128,-1,13
 443 1061 443 1061 525 1097.5 c 128,-1,14
 607 1134 607 1134 696 1134 c 0,15,16
 827 1134 827 1134 911 1058.5 c 128,-1,17
 995 983 995 983 1026.5 852 c 128,-1,18
 1058 721 1058 721 1031 556 c 256,19,20
 1004 391 1004 391 929.5 259.5 c 128,-1,21
 855 128 855 128 746 52 c 128,-1,22
 637 -24 637 -24 505 -24 c 0,0,1
512 22 m 0,23,24
 630 22 630 22 728 93 c 128,-1,25
 826 164 826 164 893 284.5 c 128,-1,26
 960 405 960 405 985 557 c 0,27,28
 1010 707 1010 707 982.5 828 c 128,-1,29
 955 949 955 949 881 1019 c 128,-1,30
 807 1089 807 1089 689 1089 c 256,31,32
 571 1089 571 1089 472.5 1018.5 c 128,-1,33
 374 948 374 948 307 828 c 128,-1,34
 240 708 240 708 215 557 c 256,35,36
 190 406 190 406 216.5 284.5 c 128,-1,37
 243 163 243 163 318 92.5 c 128,-1,38
 393 22 393 22 512 22 c 0,23,24
EndSplineSet
EndChar

StartChar: c
Encoding: 99 99 556
Width: 1058
GlyphClass: 2
Flags: W
AnchorPoint: "Anchor-3" 472 0 basechar 0
AnchorPoint: "Anchor-1" 652 1087 basechar 0
AnchorPoint: "Anchor-0" 472 0 basechar 0
LayerCount: 2
Fore
SplineSet
473 -16 m 0,0,1
 346 -16 346 -16 256.5 48.5 c 128,-1,2
 167 113 167 113 123.5 225.5 c 128,-1,3
 80 338 80 338 93 483 c 0,4,5
 103 607 103 607 149 718.5 c 128,-1,6
 195 830 195 830 270 917 c 128,-1,7
 345 1004 345 1004 442 1053.5 c 128,-1,8
 539 1103 539 1103 651 1103 c 0,9,10
 739 1103 739 1103 804 1073.5 c 128,-1,11
 869 1044 869 1044 912.5 998 c 128,-1,12
 956 952 956 952 978.5 900.5 c 128,-1,13
 1001 849 1001 849 1004 804 c 1,14,-1
 960 795 l 1,15,16
 957 836 957 836 937 881.5 c 128,-1,17
 917 927 917 927 879.5 967 c 128,-1,18
 842 1007 842 1007 785 1032.5 c 128,-1,19
 728 1058 728 1058 652 1058 c 0,20,21
 546 1058 546 1058 457 1010.5 c 128,-1,22
 368 963 368 963 299.5 881.5 c 128,-1,23
 231 800 231 800 189.5 695.5 c 128,-1,24
 148 591 148 591 139 476 c 0,25,26
 127 344 127 344 164.5 243.5 c 128,-1,27
 202 143 202 143 280.5 87 c 128,-1,28
 359 31 359 31 472 31 c 0,29,30
 551 31 551 31 617.5 57 c 128,-1,31
 684 83 684 83 736.5 124 c 128,-1,32
 789 165 789 165 826 211.5 c 128,-1,33
 863 258 863 258 879 298 c 1,34,-1
 922 285 l 1,35,36
 905 240 905 240 865 188 c 128,-1,37
 825 136 825 136 766.5 90 c 128,-1,38
 708 44 708 44 634 14 c 128,-1,39
 560 -16 560 -16 473 -16 c 0,0,1
EndSplineSet
Substitution2: "'sups' Superscript in Latin lookup 39 subtable" c.sups
Substitution2: "'subs' Subscript in Latin lookup 38 subtable" c.subs
Substitution2: "'sinf' Scientific Inferiors in Latin lookup 18 subtable" c.subs
AlternateSubs2: "'aalt' Access All Alternates in Latin lookup 1 subtable" c.sups c.subs
EndChar

StartChar: uni023C
Encoding: 572 572 557
Width: 1058
GlyphClass: 2
Flags: W
AnchorPoint: "Anchor-3" 472 0 basechar 0
AnchorPoint: "Anchor-1" 652 1087 basechar 0
AnchorPoint: "Anchor-0" 472 0 basechar 0
LayerCount: 2
Fore
SplineSet
18 -418 m 1,0,-1
 1027 1513 l 1,1,-1
 1075 1513 l 1,2,-1
 66 -418 l 1,3,-1
 18 -418 l 1,0,-1
473 -16 m 0,4,5
 346 -16 346 -16 256.5 48.5 c 128,-1,6
 167 113 167 113 123.5 225.5 c 128,-1,7
 80 338 80 338 93 483 c 0,8,9
 103 607 103 607 149 718.5 c 128,-1,10
 195 830 195 830 270 917 c 128,-1,11
 345 1004 345 1004 442 1053.5 c 128,-1,12
 539 1103 539 1103 651 1103 c 0,13,14
 739 1103 739 1103 804 1073.5 c 128,-1,15
 869 1044 869 1044 912.5 998 c 128,-1,16
 956 952 956 952 978.5 900.5 c 128,-1,17
 1001 849 1001 849 1004 804 c 1,18,-1
 960 795 l 1,19,20
 957 836 957 836 937 881.5 c 128,-1,21
 917 927 917 927 879.5 967 c 128,-1,22
 842 1007 842 1007 785 1032.5 c 128,-1,23
 728 1058 728 1058 652 1058 c 0,24,25
 546 1058 546 1058 457 1010.5 c 128,-1,26
 368 963 368 963 299.5 881.5 c 128,-1,27
 231 800 231 800 189.5 695.5 c 128,-1,28
 148 591 148 591 139 476 c 0,29,30
 127 344 127 344 164.5 243.5 c 128,-1,31
 202 143 202 143 280.5 87 c 128,-1,32
 359 31 359 31 472 31 c 0,33,34
 551 31 551 31 617.5 57 c 128,-1,35
 684 83 684 83 736.5 124 c 128,-1,36
 789 165 789 165 826 211.5 c 128,-1,37
 863 258 863 258 879 298 c 1,38,-1
 922 285 l 1,39,40
 905 240 905 240 865 188 c 128,-1,41
 825 136 825 136 766.5 90 c 128,-1,42
 708 44 708 44 634 14 c 128,-1,43
 560 -16 560 -16 473 -16 c 0,4,5
EndSplineSet
Ligature2: "'ccmp' Glyph Composition/Decomposition in Latin lookup 6 subtable" c uni0338
EndChar

StartChar: uni0188
Encoding: 392 392 558
Width: 1058
GlyphClass: 2
Flags: W
AnchorPoint: "Anchor-3" 472 0 basechar 0
AnchorPoint: "Anchor-1" 652 1087 basechar 0
AnchorPoint: "Anchor-0" 472 0 basechar 0
LayerCount: 2
Fore
SplineSet
961 799 m 1,0,-1
 936 1034 l 2,1,2
 922 1132 922 1132 973 1187.5 c 128,-1,3
 1024 1243 1024 1243 1118 1243 c 0,4,5
 1132 1243 1132 1243 1152.5 1243 c 128,-1,6
 1173 1243 1173 1243 1191 1243 c 1,7,-1
 1182 1197 l 1,8,9
 1164 1197 1164 1197 1143.5 1197 c 128,-1,10
 1123 1197 1123 1197 1111 1197 c 0,11,12
 1038 1197 1038 1197 1004.5 1159 c 128,-1,13
 971 1121 971 1121 979 1045 c 2,14,-1
 1004 805 l 1,15,-1
 961 799 l 1,0,-1
473 -16 m 0,16,17
 346 -16 346 -16 256.5 48.5 c 128,-1,18
 167 113 167 113 123.5 225.5 c 128,-1,19
 80 338 80 338 93 483 c 0,20,21
 103 607 103 607 149 718.5 c 128,-1,22
 195 830 195 830 270 917 c 128,-1,23
 345 1004 345 1004 442 1053.5 c 128,-1,24
 539 1103 539 1103 651 1103 c 0,25,26
 739 1103 739 1103 804 1073.5 c 128,-1,27
 869 1044 869 1044 912.5 998 c 128,-1,28
 956 952 956 952 978.5 900.5 c 128,-1,29
 1001 849 1001 849 1004 804 c 1,30,-1
 960 795 l 1,31,32
 957 836 957 836 937 881.5 c 128,-1,33
 917 927 917 927 879.5 967 c 128,-1,34
 842 1007 842 1007 785 1032.5 c 128,-1,35
 728 1058 728 1058 652 1058 c 0,36,37
 546 1058 546 1058 457 1010.5 c 128,-1,38
 368 963 368 963 299.5 881.5 c 128,-1,39
 231 800 231 800 189.5 695.5 c 128,-1,40
 148 591 148 591 139 476 c 0,41,42
 127 344 127 344 164.5 243.5 c 128,-1,43
 202 143 202 143 280.5 87 c 128,-1,44
 359 31 359 31 472 31 c 0,45,46
 551 31 551 31 617.5 57 c 128,-1,47
 684 83 684 83 736.5 124 c 128,-1,48
 789 165 789 165 826 211.5 c 128,-1,49
 863 258 863 258 879 298 c 1,50,-1
 922 285 l 1,51,52
 905 240 905 240 865 188 c 128,-1,53
 825 136 825 136 766.5 90 c 128,-1,54
 708 44 708 44 634 14 c 128,-1,55
 560 -16 560 -16 473 -16 c 0,16,17
EndSplineSet
EndChar

StartChar: d
Encoding: 100 100 567
Width: 1155
GlyphClass: 2
Flags: W
AnchorPoint: "Anchor-1" 668 1283 basechar 0
AnchorPoint: "Anchor-0" 456 0 basechar 0
LayerCount: 2
Fore
SplineSet
456 -20 m 0,0,1
 285 -20 285 -20 186 98 c 128,-1,2
 87 216 87 216 87 409 c 0,3,4
 87 536 87 536 126 659.5 c 128,-1,5
 165 783 165 783 237.5 883.5 c 128,-1,6
 310 984 310 984 411 1043.5 c 128,-1,7
 512 1103 512 1103 635 1103 c 0,8,9
 731 1103 731 1103 806 1064.5 c 128,-1,10
 881 1026 881 1026 927 958 c 128,-1,11
 973 890 973 890 982 801 c 1,12,-1
 985 801 l 1,13,-1
 1099 1490 l 1,14,-1
 1146 1490 l 1,15,-1
 899 0 l 1,16,-1
 853 0 l 1,17,-1
 899 280 l 1,18,-1
 896 280 l 1,19,20
 855 192 855 192 787.5 124.5 c 128,-1,21
 720 57 720 57 635.5 18.5 c 128,-1,22
 551 -20 551 -20 456 -20 c 0,0,1
457 26 m 0,23,24
 574 26 574 26 666 83.5 c 128,-1,25
 758 141 758 141 823 235.5 c 128,-1,26
 888 330 888 330 921.5 445 c 128,-1,27
 955 560 955 560 955 675 c 0,28,29
 955 849 955 849 870.5 953.5 c 128,-1,30
 786 1058 786 1058 635 1058 c 0,31,32
 521 1058 521 1058 428.5 1001.5 c 128,-1,33
 336 945 336 945 269.5 851.5 c 128,-1,34
 203 758 203 758 168 643.5 c 128,-1,35
 133 529 133 529 133 413 c 0,36,37
 133 238 133 238 220 132 c 128,-1,38
 307 26 307 26 457 26 c 0,23,24
EndSplineSet
Substitution2: "'sups' Superscript in Latin lookup 39 subtable" d.sups
Substitution2: "'subs' Subscript in Latin lookup 38 subtable" d.subs
Substitution2: "'sinf' Scientific Inferiors in Latin lookup 18 subtable" d.subs
AlternateSubs2: "'aalt' Access All Alternates in Latin lookup 1 subtable" d.sups d.subs
EndChar

StartChar: drthook
Encoding: 598 598 569
Width: 1155
GlyphClass: 2
Flags: W
AnchorPoint: "Anchor-1" 668 1283 basechar 0
AnchorPoint: "Anchor-0" 456 0 basechar 0
LayerCount: 2
Fore
SplineSet
968 -417 m 0,0,1
 876 -417 876 -417 838 -369 c 128,-1,2
 800 -321 800 -321 817 -219 c 2,3,-1
 901 290 l 1,4,-1
 947 290 l 1,5,-1
 863 -219 l 2,6,7
 850 -302 850 -302 876.5 -337 c 128,-1,8
 903 -372 903 -372 975 -372 c 0,9,10
 988 -372 988 -372 1008 -372 c 128,-1,11
 1028 -372 1028 -372 1047 -372 c 1,12,-1
 1040 -418 l 1,13,14
 1023 -418 1023 -418 1002.5 -417.5 c 128,-1,15
 982 -417 982 -417 968 -417 c 0,0,1
456 -20 m 0,16,17
 285 -20 285 -20 186 98 c 128,-1,18
 87 216 87 216 87 409 c 0,19,20
 87 536 87 536 126 659.5 c 128,-1,21
 165 783 165 783 237.5 883.5 c 128,-1,22
 310 984 310 984 411 1043.5 c 128,-1,23
 512 1103 512 1103 635 1103 c 0,24,25
 731 1103 731 1103 806 1064.5 c 128,-1,26
 881 1026 881 1026 927 958 c 128,-1,27
 973 890 973 890 982 801 c 1,28,-1
 985 801 l 1,29,-1
 1099 1490 l 1,30,-1
 1146 1490 l 1,31,-1
 899 0 l 1,32,-1
 853 0 l 1,33,-1
 899 280 l 1,34,-1
 896 280 l 1,35,36
 855 192 855 192 787.5 124.5 c 128,-1,37
 720 57 720 57 635.5 18.5 c 128,-1,38
 551 -20 551 -20 456 -20 c 0,16,17
457 26 m 0,39,40
 574 26 574 26 666 83.5 c 128,-1,41
 758 141 758 141 823 235.5 c 128,-1,42
 888 330 888 330 921.5 445 c 128,-1,43
 955 560 955 560 955 675 c 0,44,45
 955 849 955 849 870.5 953.5 c 128,-1,46
 786 1058 786 1058 635 1058 c 0,47,48
 521 1058 521 1058 428.5 1001.5 c 128,-1,49
 336 945 336 945 269.5 851.5 c 128,-1,50
 203 758 203 758 168 643.5 c 128,-1,51
 133 529 133 529 133 413 c 0,52,53
 133 238 133 238 220 132 c 128,-1,54
 307 26 307 26 457 26 c 0,39,40
EndSplineSet
EndChar

StartChar: uni0257
Encoding: 599 599 570
Width: 1156
GlyphClass: 2
Flags: W
AnchorPoint: "Anchor-4" 899 0 basechar 0
AnchorPoint: "Anchor-1" 645 1087 basechar 0
AnchorPoint: "Anchor-0" 476 0 basechar 0
LayerCount: 2
Fore
SplineSet
995 858 m 1,0,-1
 1033 1088 l 1,1,-1
 1062 1262 l 2,2,3
 1079 1363 1079 1363 1133 1411 c 128,-1,4
 1187 1459 1187 1459 1279 1459 c 0,5,6
 1293 1459 1293 1459 1313.5 1459.5 c 128,-1,7
 1334 1460 1334 1460 1351 1460 c 1,8,-1
 1343 1413 l 1,9,10
 1324 1413 1324 1413 1304 1413 c 128,-1,11
 1284 1413 1284 1413 1271 1413 c 0,12,13
 1199 1413 1199 1413 1160.5 1378.5 c 128,-1,14
 1122 1344 1122 1344 1108 1262 c 2,15,-1
 1079 1087 l 1,16,-1
 1041 858 l 1,17,-1
 995 858 l 1,0,-1
453 -20 m 0,18,19
 321 -20 321 -20 232 51.5 c 128,-1,20
 143 123 143 123 107 250 c 128,-1,21
 71 377 71 377 99 543 c 0,22,23
 126 706 126 706 204.5 833 c 128,-1,24
 283 960 283 960 396 1031.5 c 128,-1,25
 509 1103 509 1103 640 1103 c 0,26,27
 734 1103 734 1103 808 1064.5 c 128,-1,28
 882 1026 882 1026 927.5 958.5 c 128,-1,29
 973 891 973 891 982 802 c 1,30,-1
 985 802 l 1,31,-1
 1033 1087 l 1,32,-1
 1079 1087 l 1,33,-1
 899 0 l 1,34,-1
 853 0 l 1,35,-1
 899 281 l 1,36,-1
 895 281 l 1,37,38
 856 193 856 193 788 125 c 128,-1,39
 720 57 720 57 634.5 18.5 c 128,-1,40
 549 -20 549 -20 453 -20 c 0,18,19
458 26 m 0,41,42
 578 26 578 26 678.5 92 c 128,-1,43
 779 158 779 158 848 274 c 128,-1,44
 917 390 917 390 943 543 c 0,45,46
 968 695 968 695 939 811 c 128,-1,47
 910 927 910 927 833 992.5 c 128,-1,48
 756 1058 756 1058 636 1058 c 0,49,50
 518 1058 518 1058 415.5 992.5 c 128,-1,51
 313 927 313 927 241.5 810.5 c 128,-1,52
 170 694 170 694 144 543 c 0,53,54
 119 391 119 391 150 274.5 c 128,-1,55
 181 158 181 158 260 92 c 128,-1,56
 339 26 339 26 458 26 c 0,41,42
EndSplineSet
EndChar

StartChar: uni018C
Encoding: 396 396 571
Width: 1155
GlyphClass: 2
Flags: W
AnchorPoint: "Anchor-1" 668 1283 basechar 0
AnchorPoint: "Anchor-0" 456 0 basechar 0
LayerCount: 2
Fore
SplineSet
1114 1445 m 1,0,-1
 452 1445 l 1,1,-1
 459 1490 l 1,2,-1
 1146 1490 l 1,3,-1
 1114 1445 l 1,0,-1
456 -20 m 0,4,5
 285 -20 285 -20 186 98 c 128,-1,6
 87 216 87 216 87 409 c 0,7,8
 87 536 87 536 126 659.5 c 128,-1,9
 165 783 165 783 237.5 883.5 c 128,-1,10
 310 984 310 984 411 1043.5 c 128,-1,11
 512 1103 512 1103 635 1103 c 0,12,13
 731 1103 731 1103 806 1064.5 c 128,-1,14
 881 1026 881 1026 927 958 c 128,-1,15
 973 890 973 890 982 801 c 1,16,-1
 985 801 l 1,17,-1
 1099 1490 l 1,18,-1
 1146 1490 l 1,19,-1
 899 0 l 1,20,-1
 853 0 l 1,21,-1
 899 280 l 1,22,-1
 896 280 l 1,23,24
 855 192 855 192 787.5 124.5 c 128,-1,25
 720 57 720 57 635.5 18.5 c 128,-1,26
 551 -20 551 -20 456 -20 c 0,4,5
457 26 m 0,27,28
 574 26 574 26 666 83.5 c 128,-1,29
 758 141 758 141 823 235.5 c 128,-1,30
 888 330 888 330 921.5 445 c 128,-1,31
 955 560 955 560 955 675 c 0,32,33
 955 849 955 849 870.5 953.5 c 128,-1,34
 786 1058 786 1058 635 1058 c 0,35,36
 521 1058 521 1058 428.5 1001.5 c 128,-1,37
 336 945 336 945 269.5 851.5 c 128,-1,38
 203 758 203 758 168 643.5 c 128,-1,39
 133 529 133 529 133 413 c 0,40,41
 133 238 133 238 220 132 c 128,-1,42
 307 26 307 26 457 26 c 0,27,28
EndSplineSet
EndChar

StartChar: uni0221
Encoding: 545 545 572
Width: 1475
GlyphClass: 2
Flags: W
AnchorPoint: "Anchor-1" 668 1283 basechar 0
AnchorPoint: "Anchor-0" 456 0 basechar 0
LayerCount: 2
Fore
SplineSet
1043 -410 m 0,0,1
 969 -410 969 -410 916 -379 c 128,-1,2
 863 -348 863 -348 838.5 -292 c 128,-1,3
 814 -236 814 -236 827 -160 c 2,4,-1
 863 60 l 1,5,-1
 909 60 l 1,6,-1
 873 -160 l 2,7,8
 857 -254 857 -254 908 -308.5 c 128,-1,9
 959 -363 959 -363 1051 -363 c 0,10,11
 1139 -363 1139 -363 1206 -314 c 128,-1,12
 1273 -265 1273 -265 1287 -184 c 0,13,14
 1301 -101 1301 -101 1247.5 -51.5 c 128,-1,15
 1194 -2 1194 -2 1107 -2 c 0,16,17
 1050 -2 1050 -2 993 -30 c 128,-1,18
 936 -58 936 -58 870.5 -122 c 128,-1,19
 805 -186 805 -186 720 -293 c 2,20,-1
 639 -396 l 1,21,-1
 603 -371 l 1,22,-1
 687 -267 l 2,23,24
 824 -96 824 -96 920.5 -26 c 128,-1,25
 1017 44 1017 44 1114 44 c 0,26,27
 1222 44 1222 44 1286 -19 c 128,-1,28
 1350 -82 1350 -82 1333 -183 c 0,29,30
 1316 -286 1316 -286 1233 -348 c 128,-1,31
 1150 -410 1150 -410 1043 -410 c 0,0,1
456 -20 m 0,32,33
 285 -20 285 -20 186 98 c 128,-1,34
 87 216 87 216 87 409 c 0,35,36
 87 536 87 536 126 659.5 c 128,-1,37
 165 783 165 783 237.5 883.5 c 128,-1,38
 310 984 310 984 411 1043.5 c 128,-1,39
 512 1103 512 1103 635 1103 c 0,40,41
 731 1103 731 1103 806 1064.5 c 128,-1,42
 881 1026 881 1026 927 958 c 128,-1,43
 973 890 973 890 982 801 c 1,44,-1
 985 801 l 1,45,-1
 1099 1490 l 1,46,-1
 1146 1490 l 1,47,-1
 899 0 l 1,48,-1
 853 0 l 1,49,-1
 899 280 l 1,50,-1
 896 280 l 1,51,52
 855 192 855 192 787.5 124.5 c 128,-1,53
 720 57 720 57 635.5 18.5 c 128,-1,54
 551 -20 551 -20 456 -20 c 0,32,33
457 26 m 0,55,56
 574 26 574 26 666 83.5 c 128,-1,57
 758 141 758 141 823 235.5 c 128,-1,58
 888 330 888 330 921.5 445 c 128,-1,59
 955 560 955 560 955 675 c 0,60,61
 955 849 955 849 870.5 953.5 c 128,-1,62
 786 1058 786 1058 635 1058 c 0,63,64
 521 1058 521 1058 428.5 1001.5 c 128,-1,65
 336 945 336 945 269.5 851.5 c 128,-1,66
 203 758 203 758 168 643.5 c 128,-1,67
 133 529 133 529 133 413 c 0,68,69
 133 238 133 238 220 132 c 128,-1,70
 307 26 307 26 457 26 c 0,55,56
EndSplineSet
EndChar

StartChar: uni02A3
Encoding: 675 675 580
Width: 1970
GlyphClass: 2
Flags: W
AnchorPoint: "Anchor-1" 668 1283 basechar 0
AnchorPoint: "Anchor-0" 456 0 basechar 0
LayerCount: 2
Fore
SplineSet
1004 0 m 1,0,-1
 1012 46 l 1,1,-1
 1848 1064 l 1,2,-1
 1849 1070 l 1,3,-1
 1029 1070 l 1,4,-1
 1036 1118 l 1,5,-1
 1917 1118 l 1,6,-1
 1910 1070 l 1,7,-1
 1074 52 l 1,8,-1
 1074 46 l 1,9,-1
 1769 46 l 1,10,-1
 1761 0 l 1,11,-1
 1004 0 l 1,0,-1
456 -20 m 0,12,13
 285 -20 285 -20 186 98 c 128,-1,14
 87 216 87 216 87 409 c 0,15,16
 87 536 87 536 126 659.5 c 128,-1,17
 165 783 165 783 237.5 883.5 c 128,-1,18
 310 984 310 984 411 1043.5 c 128,-1,19
 512 1103 512 1103 635 1103 c 0,20,21
 731 1103 731 1103 806 1064.5 c 128,-1,22
 881 1026 881 1026 927 958 c 128,-1,23
 973 890 973 890 982 801 c 1,24,-1
 985 801 l 1,25,-1
 1099 1490 l 1,26,-1
 1146 1490 l 1,27,-1
 899 0 l 1,28,-1
 853 0 l 1,29,-1
 899 280 l 1,30,-1
 896 280 l 1,31,32
 855 192 855 192 787.5 124.5 c 128,-1,33
 720 57 720 57 635.5 18.5 c 128,-1,34
 551 -20 551 -20 456 -20 c 0,12,13
457 26 m 0,35,36
 574 26 574 26 666 83.5 c 128,-1,37
 758 141 758 141 823 235.5 c 128,-1,38
 888 330 888 330 921.5 445 c 128,-1,39
 955 560 955 560 955 675 c 0,40,41
 955 849 955 849 870.5 953.5 c 128,-1,42
 786 1058 786 1058 635 1058 c 0,43,44
 521 1058 521 1058 428.5 1001.5 c 128,-1,45
 336 945 336 945 269.5 851.5 c 128,-1,46
 203 758 203 758 168 643.5 c 128,-1,47
 133 529 133 529 133 413 c 0,48,49
 133 238 133 238 220 132 c 128,-1,50
 307 26 307 26 457 26 c 0,35,36
EndSplineSet
EndChar

StartChar: dyogh
Encoding: 676 676 582
Width: 1933
GlyphClass: 2
Flags: W
AnchorPoint: "Anchor-1" 668 1283 basechar 0
AnchorPoint: "Anchor-0" 456 0 basechar 0
LayerCount: 2
Fore
SplineSet
886 -88 m 1,0,1
 884 -176 884 -176 927 -243.5 c 128,-1,2
 970 -311 970 -311 1049 -349.5 c 128,-1,3
 1128 -388 1128 -388 1232 -388 c 0,4,5
 1358 -388 1358 -388 1455 -333.5 c 128,-1,6
 1552 -279 1552 -279 1613.5 -191 c 128,-1,7
 1675 -103 1675 -103 1692 0 c 0,8,9
 1713 123 1713 123 1665.5 211 c 128,-1,10
 1618 299 1618 299 1518.5 345 c 128,-1,11
 1419 391 1419 391 1283 391 c 2,12,-1
 1227 391 l 1,13,-1
 1234 436 l 1,14,-1
 1807 1041 l 1,15,-1
 1807 1042 l 1,16,-1
 1046 1042 l 1,17,-1
 1054 1088 l 1,18,-1
 1880 1088 l 1,19,-1
 1874 1050 l 1,20,-1
 1289 433 l 1,21,-1
 1289 432 l 1,22,23
 1404 432 1404 432 1494.5 402.5 c 128,-1,24
 1585 373 1585 373 1645 316.5 c 128,-1,25
 1705 260 1705 260 1730 180.5 c 128,-1,26
 1755 101 1755 101 1738 0 c 0,27,28
 1719 -118 1719 -118 1649 -217 c 128,-1,29
 1579 -316 1579 -316 1470 -375 c 128,-1,30
 1361 -434 1361 -434 1224 -434 c 0,31,32
 1107 -434 1107 -434 1019 -389.5 c 128,-1,33
 931 -345 931 -345 883.5 -266.5 c 128,-1,34
 836 -188 836 -188 840 -88 c 1,35,-1
 886 -88 l 1,0,1
456 -20 m 0,36,37
 285 -20 285 -20 186 98 c 128,-1,38
 87 216 87 216 87 409 c 0,39,40
 87 536 87 536 126 659.5 c 128,-1,41
 165 783 165 783 237.5 883.5 c 128,-1,42
 310 984 310 984 411 1043.5 c 128,-1,43
 512 1103 512 1103 635 1103 c 0,44,45
 731 1103 731 1103 806 1064.5 c 128,-1,46
 881 1026 881 1026 927 958 c 128,-1,47
 973 890 973 890 982 801 c 1,48,-1
 985 801 l 1,49,-1
 1099 1490 l 1,50,-1
 1146 1490 l 1,51,-1
 899 0 l 1,52,-1
 853 0 l 1,53,-1
 899 280 l 1,54,-1
 896 280 l 1,55,56
 855 192 855 192 787.5 124.5 c 128,-1,57
 720 57 720 57 635.5 18.5 c 128,-1,58
 551 -20 551 -20 456 -20 c 0,36,37
457 26 m 0,59,60
 574 26 574 26 666 83.5 c 128,-1,61
 758 141 758 141 823 235.5 c 128,-1,62
 888 330 888 330 921.5 445 c 128,-1,63
 955 560 955 560 955 675 c 0,64,65
 955 849 955 849 870.5 953.5 c 128,-1,66
 786 1058 786 1058 635 1058 c 0,67,68
 521 1058 521 1058 428.5 1001.5 c 128,-1,69
 336 945 336 945 269.5 851.5 c 128,-1,70
 203 758 203 758 168 643.5 c 128,-1,71
 133 529 133 529 133 413 c 0,72,73
 133 238 133 238 220 132 c 128,-1,74
 307 26 307 26 457 26 c 0,59,60
EndSplineSet
EndChar

StartChar: e
Encoding: 101 101 584
Width: 1067
GlyphClass: 2
Flags: W
AnchorPoint: "Anchor-4" 925 251 basechar 0
AnchorPoint: "Anchor-3" 471 0 basechar 0
AnchorPoint: "Anchor-1" 660 1087 basechar 0
AnchorPoint: "Anchor-0" 470 0 basechar 0
LayerCount: 2
Fore
SplineSet
477 -16 m 0,0,1
 361 -16 361 -16 273 37 c 128,-1,2
 185 90 185 90 136.5 185.5 c 128,-1,3
 88 281 88 281 88 409 c 0,4,5
 88 551 88 551 130.5 676.5 c 128,-1,6
 173 802 173 802 251.5 898.5 c 128,-1,7
 330 995 330 995 437 1049 c 128,-1,8
 544 1103 544 1103 673 1103 c 0,9,10
 779 1103 779 1103 851 1066 c 128,-1,11
 923 1029 923 1029 959.5 964.5 c 128,-1,12
 996 900 996 900 996 816 c 0,13,14
 996 705 996 705 933 643 c 128,-1,15
 870 581 870 581 753.5 553 c 128,-1,16
 637 525 637 525 477 518.5 c 128,-1,17
 317 512 317 512 123 512 c 1,18,-1
 123 558 l 1,19,20
 310 558 310 558 462 563.5 c 128,-1,21
 614 569 614 569 723 592 c 128,-1,22
 832 615 832 615 891 668 c 128,-1,23
 950 721 950 721 950 815 c 0,24,25
 950 923 950 923 880.5 990 c 128,-1,26
 811 1057 811 1057 673 1057 c 0,27,28
 554 1057 554 1057 455.5 1006 c 128,-1,29
 357 955 357 955 285 866 c 128,-1,30
 213 777 213 777 173.5 659.5 c 128,-1,31
 134 542 134 542 134 410 c 0,32,33
 134 294 134 294 176 209 c 128,-1,34
 218 124 218 124 295.5 77 c 128,-1,35
 373 30 373 30 477 30 c 0,36,37
 607 30 607 30 715 97 c 128,-1,38
 823 164 823 164 884 270 c 1,39,-1
 926 255 l 1,40,41
 862 138 862 138 741.5 61 c 128,-1,42
 621 -16 621 -16 477 -16 c 0,0,1
EndSplineSet
Substitution2: "'sups' Superscript in Latin lookup 39 subtable" e.sups
Substitution2: "'subs' Subscript in Latin lookup 38 subtable" e.subs
Substitution2: "'sinf' Scientific Inferiors in Latin lookup 18 subtable" e.subs
AlternateSubs2: "'aalt' Access All Alternates in Latin lookup 1 subtable" e.sups e.subs
EndChar

StartChar: uni0247
Encoding: 583 583 586
Width: 1117
GlyphClass: 2
Flags: W
AnchorPoint: "Anchor-4" 959 251 basechar 0
AnchorPoint: "Anchor-3" 505 0 basechar 0
AnchorPoint: "Anchor-1" 694 1087 basechar 0
AnchorPoint: "Anchor-0" 504 0 basechar 0
LayerCount: 2
Fore
SplineSet
-61 -418 m 1,0,-1
 1131 1490 l 1,1,-1
 1181 1490 l 1,2,-1
 -6 -418 l 1,3,-1
 -61 -418 l 1,0,-1
511 -16 m 0,4,5
 395 -16 395 -16 307 37 c 128,-1,6
 219 90 219 90 170.5 185.5 c 128,-1,7
 122 281 122 281 122 409 c 0,8,9
 122 551 122 551 164.5 676.5 c 128,-1,10
 207 802 207 802 285.5 898.5 c 128,-1,11
 364 995 364 995 471 1049 c 128,-1,12
 578 1103 578 1103 707 1103 c 0,13,14
 813 1103 813 1103 885 1066 c 128,-1,15
 957 1029 957 1029 993.5 964.5 c 128,-1,16
 1030 900 1030 900 1030 816 c 0,17,18
 1030 705 1030 705 967 643 c 128,-1,19
 904 581 904 581 787.5 553 c 128,-1,20
 671 525 671 525 511 518.5 c 128,-1,21
 351 512 351 512 157 512 c 1,22,-1
 157 558 l 1,23,24
 344 558 344 558 496 563.5 c 128,-1,25
 648 569 648 569 757 592 c 128,-1,26
 866 615 866 615 925 668 c 128,-1,27
 984 721 984 721 984 815 c 0,28,29
 984 923 984 923 914.5 990 c 128,-1,30
 845 1057 845 1057 707 1057 c 0,31,32
 588 1057 588 1057 489.5 1006 c 128,-1,33
 391 955 391 955 319 866 c 128,-1,34
 247 777 247 777 207.5 659.5 c 128,-1,35
 168 542 168 542 168 410 c 0,36,37
 168 294 168 294 210 209 c 128,-1,38
 252 124 252 124 329.5 77 c 128,-1,39
 407 30 407 30 511 30 c 0,40,41
 641 30 641 30 749 97 c 128,-1,42
 857 164 857 164 918 270 c 1,43,-1
 960 255 l 1,44,45
 896 138 896 138 775.5 61 c 128,-1,46
 655 -16 655 -16 511 -16 c 0,4,5
EndSplineSet
EndChar

StartChar: eturn
Encoding: 477 477 615
Width: 1067
GlyphClass: 2
Flags: W
AnchorPoint: "Anchor-4" 142 836 basechar 0
AnchorPoint: "Anchor-3" 596 1087 basechar 0
AnchorPoint: "Anchor-1" 610 1087 basechar 0
AnchorPoint: "Anchor-0" 430 0 basechar 0
LayerCount: 2
Fore
SplineSet
590 1103 m 0,0,1
 707 1103 707 1103 794.5 1050 c 128,-1,2
 882 997 882 997 930.5 901.5 c 128,-1,3
 979 806 979 806 979 678 c 0,4,5
 979 537 979 537 936.5 411 c 128,-1,6
 894 285 894 285 815.5 189.5 c 128,-1,7
 737 94 737 94 630 39 c 128,-1,8
 523 -16 523 -16 394 -16 c 0,9,10
 288 -16 288 -16 216 21.5 c 128,-1,11
 144 59 144 59 107.5 124.5 c 128,-1,12
 71 190 71 190 71 271 c 0,13,14
 71 382 71 382 134 444 c 128,-1,15
 197 506 197 506 313.5 534 c 128,-1,16
 430 562 430 562 590 569 c 128,-1,17
 750 576 750 576 944 576 c 1,18,-1
 944 530 l 1,19,20
 757 530 757 530 605 525 c 128,-1,21
 453 520 453 520 344 496 c 128,-1,22
 235 472 235 472 176 420 c 128,-1,23
 117 368 117 368 117 273 c 0,24,25
 117 165 117 165 186.5 97.5 c 128,-1,26
 256 30 256 30 394 30 c 0,27,28
 513 30 513 30 611.5 81 c 128,-1,29
 710 132 710 132 782 222 c 128,-1,30
 854 312 854 312 893.5 429 c 128,-1,31
 933 546 933 546 933 679 c 0,32,33
 933 794 933 794 891 879 c 128,-1,34
 849 964 849 964 772 1010.5 c 128,-1,35
 695 1057 695 1057 590 1057 c 0,36,37
 460 1057 460 1057 352.5 990.5 c 128,-1,38
 245 924 245 924 183 818 c 1,39,-1
 141 832 l 1,40,41
 205 950 205 950 325 1026.5 c 128,-1,42
 445 1103 445 1103 590 1103 c 0,0,1
EndSplineSet
EndChar

StartChar: _part.f_base
Encoding: 1114123 -1 616
Width: 615
GlyphClass: 2
Flags: W
AnchorPoint: "Anchor-1" 570 1520 basechar 0
LayerCount: 2
Fore
SplineSet
-82 -442 m 0,0,1
 -97 -442 -97 -442 -111.5 -441.5 c 128,-1,2
 -126 -441 -126 -441 -139 -438.5 c 128,-1,3
 -152 -436 -152 -436 -165 -434 c 1,4,-1
 -150 -390 l 1,5,6
 -132 -393 -132 -393 -115.5 -394.5 c 128,-1,7
 -99 -396 -99 -396 -79 -396 c 0,8,9
 5 -396 5 -396 63.5 -350 c 128,-1,10
 122 -304 122 -304 137 -214 c 2,11,-1
 387 1296 l 2,12,13
 399 1370 399 1370 436 1420 c 128,-1,14
 473 1470 473 1470 528.5 1496.5 c 128,-1,15
 584 1523 584 1523 652 1523 c 0,16,17
 676 1523 676 1523 696 1521 c 128,-1,18
 716 1519 716 1519 736 1515 c 1,19,-1
 719 1472 l 1,20,21
 702 1475 702 1475 686.5 1476 c 128,-1,22
 671 1477 671 1477 649 1477 c 0,23,24
 565 1477 565 1477 507 1431 c 128,-1,25
 449 1385 449 1385 433 1295 c 2,26,-1
 184 -214 l 2,27,28
 171 -288 171 -288 134.5 -338.5 c 128,-1,29
 98 -389 98 -389 42 -415.5 c 128,-1,30
 -14 -442 -14 -442 -82 -442 c 0,0,1
EndSplineSet
EndChar

StartChar: f
Encoding: 102 102 617
Width: 541
GlyphClass: 2
Flags: W
AnchorPoint: "Anchor-1" 515 1520 basechar 0
AnchorPoint: "Anchor-0" 141 0 basechar 0
LayerCount: 2
Fore
SplineSet
597 1087 m 1,0,-1
 590 1041 l 1,1,-1
 88 1041 l 1,2,-1
 96 1087 l 1,3,-1
 597 1087 l 1,0,-1
-136 -442 m 0,4,5
 -152 -442 -152 -442 -166 -441.5 c 128,-1,6
 -180 -441 -180 -441 -193.5 -438.5 c 128,-1,7
 -207 -436 -207 -436 -220 -434 c 1,8,-1
 -205 -390 l 1,9,10
 -186 -393 -186 -393 -169.5 -394.5 c 128,-1,11
 -153 -396 -153 -396 -133 -396 c 0,12,13
 -49 -396 -49 -396 9.5 -350 c 128,-1,14
 68 -304 68 -304 83 -214 c 2,15,-1
 332 1296 l 2,16,17
 345 1370 345 1370 382 1420 c 128,-1,18
 419 1470 419 1470 474 1496.5 c 128,-1,19
 529 1523 529 1523 598 1523 c 0,20,21
 621 1523 621 1523 641.5 1521 c 128,-1,22
 662 1519 662 1519 681 1515 c 1,23,-1
 665 1472 l 1,24,25
 647 1475 647 1475 632 1476 c 128,-1,26
 617 1477 617 1477 594 1477 c 0,27,28
 511 1477 511 1477 453 1431 c 128,-1,29
 395 1385 395 1385 379 1295 c 2,30,-1
 129 -214 l 2,31,32
 117 -288 117 -288 80 -338.5 c 128,-1,33
 43 -389 43 -389 -12.5 -415.5 c 128,-1,34
 -68 -442 -68 -442 -136 -442 c 0,4,5
EndSplineSet
Substitution2: "'cv12' Character Variants 12 in Latin lookup 65 subtable" f.1
Substitution2: "'salt' Stylistic Alternatives in Latin lookup 46 subtable" f.1
Substitution2: "'sups' Superscript in Latin lookup 39 subtable" f.sups
Substitution2: "'subs' Subscript in Latin lookup 38 subtable" f.subs
Substitution2: "Single Substitution lookup 36 subtable" f.1
Substitution2: "Single Substitution lookup 35 subtable" f.i.1
Substitution2: "Single Substitution lookup 34 subtable" f.i
Substitution2: "'sinf' Scientific Inferiors in Latin lookup 18 subtable" f.subs
AlternateSubs2: "'aalt' Access All Alternates in Latin lookup 1 subtable" f.sups f.subs
EndChar

StartChar: f.1
Encoding: 60941 60941 618
Width: 499
GlyphClass: 2
Flags: W
AnchorPoint: "Anchor-1" 473 1520 basechar 0
AnchorPoint: "Anchor-0" 100 0 basechar 0
LayerCount: 2
Fore
SplineSet
556 1087 m 1,0,-1
 548 1041 l 1,1,-1
 267 1041 l 1,2,-1
 275 1087 l 1,3,-1
 556 1087 l 1,0,-1
-178 -442 m 0,4,5
 -194 -442 -194 -442 -207.5 -441.5 c 128,-1,6
 -221 -441 -221 -441 -234.5 -438.5 c 128,-1,7
 -248 -436 -248 -436 -261 -434 c 1,8,-1
 -247 -390 l 1,9,10
 -228 -393 -228 -393 -211.5 -394.5 c 128,-1,11
 -195 -396 -195 -396 -174 -396 c 0,12,13
 -90 -396 -90 -396 -31.5 -350 c 128,-1,14
 27 -304 27 -304 41 -214 c 2,15,-1
 291 1296 l 2,16,17
 304 1370 304 1370 340.5 1420 c 128,-1,18
 377 1470 377 1470 432.5 1496.5 c 128,-1,19
 488 1523 488 1523 557 1523 c 0,20,21
 580 1523 580 1523 600 1521 c 128,-1,22
 620 1519 620 1519 639 1515 c 1,23,-1
 624 1472 l 1,24,25
 606 1475 606 1475 591 1476 c 128,-1,26
 576 1477 576 1477 553 1477 c 0,27,28
 470 1477 470 1477 411.5 1431 c 128,-1,29
 353 1385 353 1385 338 1295 c 2,30,-1
 87 -214 l 2,31,32
 76 -288 76 -288 38.5 -338.5 c 128,-1,33
 1 -389 1 -389 -54 -415.5 c 128,-1,34
 -109 -442 -109 -442 -178 -442 c 0,4,5
EndSplineSet
EndChar

StartChar: f.i
Encoding: 60942 60942 619
Width: 463
GlyphClass: 2
Flags: W
AnchorPoint: "Anchor-1" 493 1520 basechar 0
AnchorPoint: "Anchor-0" 120 0 basechar 0
LayerCount: 2
Fore
SplineSet
-159 -442 m 0,0,1
 -174 -442 -174 -442 -188 -441.5 c 128,-1,2
 -202 -441 -202 -441 -215 -438.5 c 128,-1,3
 -228 -436 -228 -436 -241 -434 c 1,4,-1
 -227 -390 l 1,5,6
 -209 -393 -209 -393 -192.5 -394.5 c 128,-1,7
 -176 -396 -176 -396 -155 -396 c 0,8,9
 -71 -396 -71 -396 -12.5 -350 c 128,-1,10
 46 -304 46 -304 60 -214 c 2,11,-1
 311 1296 l 2,12,13
 323 1370 323 1370 359.5 1420 c 128,-1,14
 396 1470 396 1470 452 1496.5 c 128,-1,15
 508 1523 508 1523 576 1523 c 0,16,17
 600 1523 600 1523 620 1521.5 c 128,-1,18
 640 1520 640 1520 659 1516 c 1,19,-1
 643 1472 l 1,20,21
 626 1475 626 1475 610.5 1476 c 128,-1,22
 595 1477 595 1477 573 1477 c 0,23,24
 489 1477 489 1477 430.5 1431 c 128,-1,25
 372 1385 372 1385 357 1295 c 2,26,-1
 107 -214 l 2,27,28
 95 -288 95 -288 58 -338.5 c 128,-1,29
 21 -389 21 -389 -34.5 -415.5 c 128,-1,30
 -90 -442 -90 -442 -159 -442 c 0,0,1
109 1041 m 1,31,-1
 117 1087 l 1,32,-1
 559 1087 l 1,33,-1
 551 1041 l 1,34,-1
 109 1041 l 1,31,-1
EndSplineSet
Substitution2: "Single Substitution lookup 35 subtable" f.i.1
EndChar

StartChar: f.i.1
Encoding: 60943 60943 620
Width: 444
GlyphClass: 2
Flags: W
AnchorPoint: "Anchor-1" 473 1520 basechar 0
AnchorPoint: "Anchor-0" 100 0 basechar 0
LayerCount: 2
Fore
SplineSet
-178 -442 m 0,0,1
 -194 -442 -194 -442 -207.5 -441.5 c 128,-1,2
 -221 -441 -221 -441 -234.5 -438.5 c 128,-1,3
 -248 -436 -248 -436 -261 -434 c 1,4,-1
 -247 -390 l 1,5,6
 -228 -393 -228 -393 -211.5 -394.5 c 128,-1,7
 -195 -396 -195 -396 -174 -396 c 0,8,9
 -90 -396 -90 -396 -31.5 -350 c 128,-1,10
 27 -304 27 -304 41 -214 c 2,11,-1
 291 1296 l 2,12,13
 304 1370 304 1370 340.5 1420 c 128,-1,14
 377 1470 377 1470 432.5 1496.5 c 128,-1,15
 488 1523 488 1523 557 1523 c 0,16,17
 580 1523 580 1523 600 1521.5 c 128,-1,18
 620 1520 620 1520 639 1516 c 1,19,-1
 623 1472 l 1,20,21
 606 1475 606 1475 590.5 1476 c 128,-1,22
 575 1477 575 1477 553 1477 c 0,23,24
 470 1477 470 1477 411.5 1431 c 128,-1,25
 353 1385 353 1385 338 1295 c 2,26,-1
 87 -214 l 2,27,28
 76 -288 76 -288 38.5 -338.5 c 128,-1,29
 1 -389 1 -389 -54.5 -415.5 c 128,-1,30
 -110 -442 -110 -442 -178 -442 c 0,0,1
272 1041 m 1,31,-1
 280 1087 l 1,32,-1
 540 1087 l 1,33,-1
 531 1041 l 1,34,-1
 272 1041 l 1,31,-1
EndSplineSet
EndChar

StartChar: g
Encoding: 103 103 628
Width: 1155
GlyphClass: 2
Flags: W
AnchorPoint: "Anchor-1" 653 1087 basechar 0
AnchorPoint: "Anchor-0" 396 -435 basechar 0
LayerCount: 2
Fore
SplineSet
403 -434 m 0,0,1
 293 -434 293 -434 214 -403.5 c 128,-1,2
 135 -373 135 -373 89 -312.5 c 128,-1,3
 43 -252 43 -252 33 -164 c 1,4,-1
 79 -156 l 1,5,6
 88 -233 88 -233 128 -284.5 c 128,-1,7
 168 -336 168 -336 237.5 -362 c 128,-1,8
 307 -388 307 -388 404 -388 c 0,9,10
 590 -388 590 -388 706 -288.5 c 128,-1,11
 822 -189 822 -189 851 -10 c 2,12,-1
 899 281 l 1,13,-1
 896 281 l 1,14,15
 855 193 855 193 787 128 c 128,-1,16
 719 63 719 63 635 27.5 c 128,-1,17
 551 -8 551 -8 459 -8 c 0,18,19
 345 -8 345 -8 261.5 44 c 128,-1,20
 178 96 178 96 132.5 190.5 c 128,-1,21
 87 285 87 285 87 413 c 0,22,23
 87 538 87 538 126 660 c 128,-1,24
 165 782 165 782 237 882.5 c 128,-1,25
 309 983 309 983 410 1043 c 128,-1,26
 511 1103 511 1103 636 1103 c 0,27,28
 709 1103 709 1103 769 1081.5 c 128,-1,29
 829 1060 829 1060 874 1019 c 128,-1,30
 919 978 919 978 946 923 c 128,-1,31
 973 868 973 868 982 802 c 1,32,-1
 985 801 l 1,33,-1
 1032 1087 l 1,34,-1
 1079 1087 l 1,35,-1
 896 -14 l 2,36,37
 874 -147 874 -147 809 -241 c 128,-1,38
 744 -335 744 -335 641 -384.5 c 128,-1,39
 538 -434 538 -434 403 -434 c 0,0,1
459 39 m 0,40,41
 576 39 576 39 668 94 c 128,-1,42
 760 149 760 149 824 241.5 c 128,-1,43
 888 334 888 334 921 447 c 128,-1,44
 954 560 954 560 954 676 c 0,45,46
 954 850 954 850 870.5 954 c 128,-1,47
 787 1058 787 1058 635 1058 c 0,48,49
 522 1058 522 1058 430 1002 c 128,-1,50
 338 946 338 946 271 853 c 128,-1,51
 204 760 204 760 169 645.5 c 128,-1,52
 134 531 134 531 134 415 c 0,53,54
 134 241 134 241 221 140 c 128,-1,55
 308 39 308 39 459 39 c 0,40,41
EndSplineSet
Substitution2: "'smcp' Lowercase to Small Capitals in Latin lookup 68 subtable" g.sc
Substitution2: "'sups' Superscript in Latin lookup 39 subtable" g.sups
Substitution2: "'subs' Subscript in Latin lookup 38 subtable" g.subs
Substitution2: "'sinf' Scientific Inferiors in Latin lookup 18 subtable" g.subs
AlternateSubs2: "'aalt' Access All Alternates in Latin lookup 1 subtable" g.sc g.sups g.subs
EndChar

StartChar: uni0260
Encoding: 608 608 629
Width: 1155
GlyphClass: 2
Flags: W
AnchorPoint: "Anchor-1" 653 1087 basechar 0
AnchorPoint: "Anchor-0" 396 -435 basechar 0
LayerCount: 2
Fore
SplineSet
994 858 m 1,0,-1
 1032 1088 l 1,1,-1
 1062 1262 l 2,2,3
 1079 1363 1079 1363 1132.5 1411 c 128,-1,4
 1186 1459 1186 1459 1278 1459 c 0,5,6
 1292 1459 1292 1459 1312.5 1459.5 c 128,-1,7
 1333 1460 1333 1460 1350 1460 c 1,8,-1
 1342 1413 l 1,9,10
 1323 1413 1323 1413 1303.5 1413 c 128,-1,11
 1284 1413 1284 1413 1271 1413 c 0,12,13
 1198 1413 1198 1413 1160 1378.5 c 128,-1,14
 1122 1344 1122 1344 1107 1262 c 2,15,-1
 1079 1087 l 1,16,-1
 1040 858 l 1,17,-1
 994 858 l 1,0,-1
403 -434 m 0,18,19
 293 -434 293 -434 214 -403.5 c 128,-1,20
 135 -373 135 -373 89 -312.5 c 128,-1,21
 43 -252 43 -252 33 -164 c 1,22,-1
 79 -156 l 1,23,24
 88 -233 88 -233 128 -284.5 c 128,-1,25
 168 -336 168 -336 237.5 -362 c 128,-1,26
 307 -388 307 -388 404 -388 c 0,27,28
 590 -388 590 -388 706 -288.5 c 128,-1,29
 822 -189 822 -189 851 -10 c 2,30,-1
 899 281 l 1,31,-1
 896 281 l 1,32,33
 855 193 855 193 787 128 c 128,-1,34
 719 63 719 63 635 27.5 c 128,-1,35
 551 -8 551 -8 459 -8 c 0,36,37
 345 -8 345 -8 261.5 44 c 128,-1,38
 178 96 178 96 132.5 190.5 c 128,-1,39
 87 285 87 285 87 413 c 0,40,41
 87 538 87 538 126 660 c 128,-1,42
 165 782 165 782 237 882.5 c 128,-1,43
 309 983 309 983 410 1043 c 128,-1,44
 511 1103 511 1103 636 1103 c 0,45,46
 709 1103 709 1103 769 1081.5 c 128,-1,47
 829 1060 829 1060 874 1019 c 128,-1,48
 919 978 919 978 946 923 c 128,-1,49
 973 868 973 868 982 802 c 1,50,-1
 985 801 l 1,51,-1
 1032 1087 l 1,52,-1
 1079 1087 l 1,53,-1
 896 -14 l 2,54,55
 874 -147 874 -147 809 -241 c 128,-1,56
 744 -335 744 -335 641 -384.5 c 128,-1,57
 538 -434 538 -434 403 -434 c 0,18,19
459 39 m 0,58,59
 576 39 576 39 668 94 c 128,-1,60
 760 149 760 149 824 241.5 c 128,-1,61
 888 334 888 334 921 447 c 128,-1,62
 954 560 954 560 954 676 c 0,63,64
 954 850 954 850 870.5 954 c 128,-1,65
 787 1058 787 1058 635 1058 c 0,66,67
 522 1058 522 1058 430 1002 c 128,-1,68
 338 946 338 946 271 853 c 128,-1,69
 204 760 204 760 169 645.5 c 128,-1,70
 134 531 134 531 134 415 c 0,71,72
 134 241 134 241 221 140 c 128,-1,73
 308 39 308 39 459 39 c 0,58,59
EndSplineSet
Substitution2: "'smcp' Lowercase to Small Capitals in Latin lookup 68 subtable" uni0260.sc
Substitution2: "'c2sc' Capitals to Small Capitals in Latin lookup 67 subtable" uni0260.sc
Substitution2: "'aalt' Access All Alternates in Latin lookup 0 subtable" uni0260.sc
EndChar

StartChar: g.sc
Encoding: 610 610 638
Width: 1107
GlyphClass: 2
Flags: W
AnchorPoint: "Anchor-1" 650 1087 basechar 0
AnchorPoint: "Anchor-0" 471 0 basechar 0
LayerCount: 2
Fore
SplineSet
481 -15 m 0,0,1
 359 -15 359 -15 271 38 c 128,-1,2
 183 91 183 91 135.5 188 c 128,-1,3
 88 285 88 285 88 417 c 0,4,5
 88 542 88 542 127.5 664 c 128,-1,6
 167 786 167 786 240.5 885 c 128,-1,7
 314 984 314 984 419.5 1043 c 128,-1,8
 525 1102 525 1102 657 1102 c 0,9,10
 788 1102 788 1102 870.5 1047 c 128,-1,11
 953 992 953 992 993.5 909.5 c 128,-1,12
 1034 827 1034 827 1034 746 c 1,13,-1
 987 746 l 1,14,15
 986 821 986 821 949.5 892.5 c 128,-1,16
 913 964 913 964 840 1010.5 c 128,-1,17
 767 1057 767 1057 656 1057 c 0,18,19
 534 1057 534 1057 437 1001.5 c 128,-1,20
 340 946 340 946 272.5 853.5 c 128,-1,21
 205 761 205 761 169.5 647.5 c 128,-1,22
 134 534 134 534 134 417 c 0,23,24
 134 241 134 241 226 136 c 128,-1,25
 318 31 318 31 483 31 c 0,26,27
 604 31 604 31 700.5 84 c 128,-1,28
 797 137 797 137 861.5 234.5 c 128,-1,29
 926 332 926 332 947 462 c 1,30,-1
 965 453 l 1,31,-1
 569 453 l 1,32,-1
 578 497 l 1,33,-1
 1000 497 l 1,34,-1
 992 453 l 2,35,36
 969 314 969 314 899 208.5 c 128,-1,37
 829 103 829 103 722.5 44 c 128,-1,38
 616 -15 616 -15 481 -15 c 0,0,1
EndSplineSet
EndChar

StartChar: uni0260.sc
Encoding: 60947 60947 639
Width: 1167
GlyphClass: 2
Flags: W
AnchorPoint: "Anchor-1" 650 1087 basechar 0
AnchorPoint: "Anchor-0" 471 0 basechar 0
LayerCount: 2
Fore
SplineSet
989 746 m 1,0,-1
 1006 994 l 2,1,2
 1010 1061 1010 1061 1033.5 1105 c 128,-1,3
 1057 1149 1057 1149 1099 1171 c 128,-1,4
 1141 1193 1141 1193 1198 1193 c 0,5,6
 1212 1193 1212 1193 1228.5 1192.5 c 128,-1,7
 1245 1192 1245 1192 1262 1192 c 1,8,-1
 1254 1147 l 1,9,10
 1235 1147 1235 1147 1219 1147 c 128,-1,11
 1203 1147 1203 1147 1190 1147 c 0,12,13
 1116 1147 1116 1147 1086.5 1108.5 c 128,-1,14
 1057 1070 1057 1070 1052 1000 c 2,15,-1
 1034 746 l 1,16,-1
 989 746 l 1,0,-1
481 -15 m 0,17,18
 359 -15 359 -15 271 38 c 128,-1,19
 183 91 183 91 135.5 188 c 128,-1,20
 88 285 88 285 88 417 c 0,21,22
 88 542 88 542 127.5 664 c 128,-1,23
 167 786 167 786 240.5 885 c 128,-1,24
 314 984 314 984 419.5 1043 c 128,-1,25
 525 1102 525 1102 657 1102 c 0,26,27
 788 1102 788 1102 870.5 1047 c 128,-1,28
 953 992 953 992 993.5 909.5 c 128,-1,29
 1034 827 1034 827 1034 746 c 1,30,-1
 987 746 l 1,31,32
 986 821 986 821 949.5 892.5 c 128,-1,33
 913 964 913 964 840 1010.5 c 128,-1,34
 767 1057 767 1057 656 1057 c 0,35,36
 534 1057 534 1057 437 1001.5 c 128,-1,37
 340 946 340 946 272.5 853.5 c 128,-1,38
 205 761 205 761 169.5 647.5 c 128,-1,39
 134 534 134 534 134 417 c 0,40,41
 134 241 134 241 226 136 c 128,-1,42
 318 31 318 31 483 31 c 0,43,44
 604 31 604 31 700.5 84 c 128,-1,45
 797 137 797 137 861.5 234.5 c 128,-1,46
 926 332 926 332 947 462 c 1,47,-1
 965 453 l 1,48,-1
 569 453 l 1,49,-1
 578 497 l 1,50,-1
 1000 497 l 1,51,-1
 992 453 l 2,52,53
 969 314 969 314 899 208.5 c 128,-1,54
 829 103 829 103 722.5 44 c 128,-1,55
 616 -15 616 -15 481 -15 c 0,17,18
EndSplineSet
EndChar

StartChar: h
Encoding: 104 104 640
Width: 1133
GlyphClass: 2
Flags: W
AnchorPoint: "Anchor-3" 100 0 basechar 0
AnchorPoint: "Anchor-1" 347 1490 basechar 0
AnchorPoint: "Anchor-0" 477 0 basechar 0
LayerCount: 2
Fore
SplineSet
242 719 m 2,0,-1
 122 0 l 1,1,-1
 76 0 l 1,2,-1
 323 1490 l 1,3,-1
 369 1490 l 1,4,-1
 262 848 l 1,5,-1
 251 848 l 1,6,7
 289 934 289 934 353 990 c 128,-1,8
 417 1046 417 1046 496.5 1074.5 c 128,-1,9
 576 1103 576 1103 661 1103 c 0,10,11
 776 1103 776 1103 857.5 1054.5 c 128,-1,12
 939 1006 939 1006 976.5 920.5 c 128,-1,13
 1014 835 1014 835 995 719 c 2,14,-1
 877 0 l 1,15,-1
 830 0 l 1,16,-1
 950 720 l 2,17,18
 975 872 975 872 894.5 964.5 c 128,-1,19
 814 1057 814 1057 661 1057 c 0,20,21
 557 1057 557 1057 467.5 1013.5 c 128,-1,22
 378 970 378 970 318 893.5 c 128,-1,23
 258 817 258 817 242 719 c 2,0,-1
EndSplineSet
Substitution2: "'smcp' Lowercase to Small Capitals in Latin lookup 68 subtable" h.sc
Substitution2: "'sups' Superscript in Latin lookup 39 subtable" h.sups
Substitution2: "'subs' Subscript in Latin lookup 38 subtable" h.subs
Substitution2: "'sinf' Scientific Inferiors in Latin lookup 18 subtable" h.subs
AlternateSubs2: "'aalt' Access All Alternates in Latin lookup 1 subtable" h.sups h.subs h.sc
EndChar

StartChar: uni0452
Encoding: 1106 1106 643
Width: 1133
GlyphClass: 2
Flags: W
AnchorPoint: "Anchor-3" 100 0 basechar 0
AnchorPoint: "Anchor-1" 347 1490 basechar 0
AnchorPoint: "Anchor-0" 477 0 basechar 0
LayerCount: 2
Fore
SplineSet
623 -417 m 0,0,1
 611 -417 611 -417 590 -417.5 c 128,-1,2
 569 -418 569 -418 551 -418 c 1,3,-1
 559 -372 l 1,4,5
 578 -372 578 -372 597.5 -372 c 128,-1,6
 617 -372 617 -372 631 -372 c 0,7,8
 702 -372 702 -372 742 -337 c 128,-1,9
 782 -302 782 -302 794 -219 c 2,10,-1
 830 0 l 1,11,-1
 877 0 l 1,12,-1
 840 -219 l 2,13,14
 823 -322 823 -322 769 -369.5 c 128,-1,15
 715 -417 715 -417 623 -417 c 0,0,1
242 719 m 2,16,-1
 122 0 l 1,17,-1
 76 0 l 1,18,-1
 323 1490 l 1,19,-1
 369 1490 l 1,20,-1
 262 848 l 1,21,-1
 251 848 l 1,22,23
 289 934 289 934 353 990 c 128,-1,24
 417 1046 417 1046 496.5 1074.5 c 128,-1,25
 576 1103 576 1103 661 1103 c 0,26,27
 776 1103 776 1103 857.5 1054.5 c 128,-1,28
 939 1006 939 1006 976.5 920.5 c 128,-1,29
 1014 835 1014 835 995 719 c 2,30,-1
 877 0 l 1,31,-1
 830 0 l 1,32,-1
 950 720 l 2,33,34
 975 872 975 872 894.5 964.5 c 128,-1,35
 814 1057 814 1057 661 1057 c 0,36,37
 557 1057 557 1057 467.5 1013.5 c 128,-1,38
 378 970 378 970 318 893.5 c 128,-1,39
 258 817 258 817 242 719 c 2,16,-1
56 1260 m 1,40,-1
 63 1306 l 1,41,-1
 617 1306 l 1,42,-1
 610 1260 l 1,43,-1
 56 1260 l 1,40,-1
EndSplineSet
EndChar

StartChar: uni0266
Encoding: 614 614 644
Width: 1133
GlyphClass: 2
Flags: W
AnchorPoint: "Anchor-1" 659 1087 basechar 0
AnchorPoint: "Anchor-0" 477 0 basechar 0
LayerCount: 2
Fore
SplineSet
219 858 m 1,0,-1
 257 1088 l 1,1,-1
 285 1262 l 2,2,3
 302 1363 302 1363 356.5 1411 c 128,-1,4
 411 1459 411 1459 503 1459 c 0,5,6
 517 1459 517 1459 537.5 1459.5 c 128,-1,7
 558 1460 558 1460 575 1460 c 1,8,-1
 567 1413 l 1,9,10
 548 1413 548 1413 527.5 1413 c 128,-1,11
 507 1413 507 1413 494 1413 c 0,12,13
 423 1413 423 1413 384 1378.5 c 128,-1,14
 345 1344 345 1344 332 1262 c 2,15,-1
 302 1087 l 1,16,-1
 265 858 l 1,17,-1
 219 858 l 1,0,-1
241 718 m 2,18,-1
 123 0 l 1,19,-1
 77 0 l 1,20,-1
 256 1087 l 1,21,-1
 303 1087 l 1,22,-1
 263 848 l 1,23,-1
 251 848 l 1,24,25
 309 976 309 976 425 1039.5 c 128,-1,26
 541 1103 541 1103 668 1103 c 0,27,28
 784 1103 784 1103 863.5 1054.5 c 128,-1,29
 943 1006 943 1006 979 920 c 128,-1,30
 1015 834 1015 834 996 718 c 2,31,-1
 877 0 l 1,32,-1
 831 0 l 1,33,-1
 950 721 l 2,34,35
 976 873 976 873 897.5 965 c 128,-1,36
 819 1057 819 1057 668 1057 c 0,37,38
 563 1057 563 1057 472 1013.5 c 128,-1,39
 381 970 381 970 319.5 893.5 c 128,-1,40
 258 817 258 817 241 718 c 2,18,-1
EndSplineSet
EndChar

StartChar: uni0267
Encoding: 615 615 645
Width: 1133
GlyphClass: 2
Flags: W
AnchorPoint: "Anchor-1" 659 1087 basechar 0
AnchorPoint: "Anchor-0" 477 0 basechar 0
LayerCount: 2
Fore
SplineSet
624 -417 m 0,0,1
 611 -417 611 -417 590 -417.5 c 128,-1,2
 569 -418 569 -418 552 -418 c 1,3,-1
 559 -372 l 1,4,5
 578 -372 578 -372 598 -372 c 128,-1,6
 618 -372 618 -372 631 -372 c 0,7,8
 703 -372 703 -372 742.5 -337 c 128,-1,9
 782 -302 782 -302 795 -219 c 2,10,-1
 831 0 l 1,11,-1
 877 0 l 1,12,-1
 841 -219 l 2,13,14
 824 -322 824 -322 770 -369.5 c 128,-1,15
 716 -417 716 -417 624 -417 c 0,0,1
241 718 m 2,16,-1
 123 0 l 1,17,-1
 77 0 l 1,18,-1
 256 1087 l 1,19,-1
 303 1087 l 1,20,-1
 263 848 l 1,21,-1
 251 848 l 1,22,23
 309 976 309 976 425 1039.5 c 128,-1,24
 541 1103 541 1103 668 1103 c 0,25,26
 784 1103 784 1103 863.5 1054.5 c 128,-1,27
 943 1006 943 1006 979 920 c 128,-1,28
 1015 834 1015 834 996 718 c 2,29,-1
 877 0 l 1,30,-1
 831 0 l 1,31,-1
 950 721 l 2,32,33
 976 873 976 873 897.5 965 c 128,-1,34
 819 1057 819 1057 668 1057 c 0,35,36
 563 1057 563 1057 472 1013.5 c 128,-1,37
 381 970 381 970 319.5 893.5 c 128,-1,38
 258 817 258 817 241 718 c 2,16,-1
219 858 m 1,39,-1
 257 1088 l 1,40,-1
 285 1262 l 2,41,42
 302 1363 302 1363 356.5 1411 c 128,-1,43
 411 1459 411 1459 503 1459 c 0,44,45
 517 1459 517 1459 537.5 1459.5 c 128,-1,46
 558 1460 558 1460 575 1460 c 1,47,-1
 567 1413 l 1,48,49
 548 1413 548 1413 527.5 1413 c 128,-1,50
 507 1413 507 1413 494 1413 c 0,51,52
 423 1413 423 1413 384 1378.5 c 128,-1,53
 345 1344 345 1344 332 1262 c 2,54,-1
 302 1087 l 1,55,-1
 265 858 l 1,56,-1
 219 858 l 1,39,-1
EndSplineSet
EndChar

StartChar: uni0195
Encoding: 405 405 646
Width: 1817
Flags: W
LayerCount: 2
Fore
SplineSet
76 0 m 1,0,-1
 323 1490 l 1,1,-1
 369 1490 l 1,2,-1
 278 940 l 1,3,-1
 284 940 l 1,4,5
 339 1029 339 1029 438 1080.5 c 128,-1,6
 537 1132 537 1132 651 1132 c 0,7,8
 764 1132 764 1132 841.5 1084 c 128,-1,9
 919 1036 919 1036 953.5 950 c 128,-1,10
 988 864 988 864 969 750 c 2,11,-1
 927 494 l 1,12,-1
 881 494 l 1,13,-1
 924 751 l 2,14,15
 947 899 947 899 869.5 992.5 c 128,-1,16
 792 1086 792 1086 643 1086 c 0,17,18
 545 1086 545 1086 461 1043 c 128,-1,19
 377 1000 377 1000 320 924 c 128,-1,20
 263 848 263 848 248 750 c 2,21,-1
 123 0 l 1,22,-1
 76 0 l 1,0,-1
1104 -18 m 0,23,24
 1001 -18 1001 -18 940.5 31.5 c 128,-1,25
 880 81 880 81 863 183 c 128,-1,26
 846 285 846 285 871 441 c 2,27,-1
 902 622 l 1,28,-1
 948 622 l 1,29,-1
 918 441 l 2,30,31
 894 296 894 296 906.5 204.5 c 128,-1,32
 919 113 919 113 970 71 c 128,-1,33
 1021 29 1021 29 1110 28 c 0,34,35
 1250 29 1250 29 1358.5 140.5 c 128,-1,36
 1467 252 1467 252 1548.5 475.5 c 128,-1,37
 1630 699 1630 699 1685 1032 c 1,38,-1
 1698 1118 l 1,39,-1
 1746 1118 l 1,40,-1
 1730 1016 l 2,41,42
 1672 671 1672 671 1584.5 441 c 128,-1,43
 1497 211 1497 211 1377.5 96.5 c 128,-1,44
 1258 -18 1258 -18 1104 -18 c 0,23,24
EndSplineSet
EndChar

StartChar: hturn
Encoding: 613 613 647
Width: 1133
GlyphClass: 2
Flags: W
AnchorPoint: "Anchor-3" 1034 1087 basechar 0
AnchorPoint: "Anchor-1" 666 1087 basechar 0
AnchorPoint: "Anchor-0" 657 1087 basechar 0
LayerCount: 2
Fore
SplineSet
892 368 m 2,0,-1
 1011 1087 l 1,1,-1
 1057 1087 l 1,2,-1
 810 -403 l 1,3,-1
 764 -403 l 1,4,-1
 871 241 l 1,5,-1
 883 241 l 1,6,7
 845 155 845 155 780.5 98 c 128,-1,8
 716 41 716 41 636.5 12.5 c 128,-1,9
 557 -16 557 -16 473 -16 c 0,10,11
 358 -16 358 -16 276 32.5 c 128,-1,12
 194 81 194 81 156.5 168 c 128,-1,13
 119 255 119 255 138 368 c 2,14,-1
 257 1087 l 1,15,-1
 303 1087 l 1,16,-1
 184 369 l 2,17,18
 159 216 159 216 239.5 123 c 128,-1,19
 320 30 320 30 472 30 c 0,20,21
 576 30 576 30 665.5 73.5 c 128,-1,22
 755 117 755 117 815.5 193.5 c 128,-1,23
 876 270 876 270 892 368 c 2,0,-1
EndSplineSet
EndChar

StartChar: hturnlthook
Encoding: 686 686 648
Width: 1183
Flags: W
LayerCount: 2
Fore
SplineSet
811 -418 m 1,0,-1
 920 241 l 1,1,-1
 932 241 l 1,2,3
 875 112 875 112 760 48 c 128,-1,4
 645 -16 645 -16 518 -16 c 0,5,6
 404 -16 404 -16 322.5 33 c 128,-1,7
 241 82 241 82 204.5 168 c 128,-1,8
 168 254 168 254 187 368 c 2,9,-1
 272 881 l 2,10,11
 287 974 287 974 262.5 1010 c 128,-1,12
 238 1046 238 1046 161 1046 c 0,13,14
 150 1046 150 1046 138 1045.5 c 128,-1,15
 126 1045 126 1045 113.5 1044.5 c 128,-1,16
 101 1044 101 1044 88 1044 c 1,17,-1
 97 1089 l 1,18,19
 115 1091 115 1091 133.5 1091 c 128,-1,20
 152 1091 152 1091 169 1091 c 0,21,22
 217 1091 217 1091 249 1079.5 c 128,-1,23
 281 1068 281 1068 300 1043 c 128,-1,24
 319 1018 319 1018 323 977.5 c 128,-1,25
 327 937 327 937 318 881 c 2,26,-1
 233 369 l 2,27,28
 208 217 208 217 286.5 123.5 c 128,-1,29
 365 30 365 30 517 30 c 0,30,31
 621 30 621 30 711.5 73.5 c 128,-1,32
 802 117 802 117 863.5 193.5 c 128,-1,33
 925 270 925 270 941 368 c 2,34,-1
 1060 1087 l 1,35,-1
 1106 1087 l 1,36,-1
 857 -418 l 1,37,-1
 811 -418 l 1,0,-1
EndSplineSet
EndChar

StartChar: hturnhook2
Encoding: 687 687 649
Width: 1182
Flags: W
LayerCount: 2
Fore
SplineSet
995 -417 m 0,0,1
 903 -417 903 -417 865.5 -369 c 128,-1,2
 828 -321 828 -321 844 -219 c 2,3,-1
 920 241 l 1,4,-1
 932 241 l 1,5,6
 874 112 874 112 757.5 48 c 128,-1,7
 641 -16 641 -16 513 -16 c 0,8,9
 399 -16 399 -16 319 33 c 128,-1,10
 239 82 239 82 203.5 168 c 128,-1,11
 168 254 168 254 187 368 c 2,12,-1
 272 881 l 2,13,14
 287 974 287 974 262.5 1010 c 128,-1,15
 238 1046 238 1046 161 1046 c 0,16,17
 150 1046 150 1046 138 1045.5 c 128,-1,18
 126 1045 126 1045 113.5 1044.5 c 128,-1,19
 101 1044 101 1044 88 1044 c 1,20,-1
 97 1089 l 1,21,22
 115 1091 115 1091 133.5 1091 c 128,-1,23
 152 1091 152 1091 169 1091 c 0,24,25
 217 1091 217 1091 249 1079.5 c 128,-1,26
 281 1068 281 1068 300 1043 c 128,-1,27
 319 1018 319 1018 323 977.5 c 128,-1,28
 327 937 327 937 318 881 c 2,29,-1
 233 369 l 2,30,31
 208 217 208 217 284.5 123.5 c 128,-1,32
 361 30 361 30 513 30 c 0,33,34
 617 30 617 30 708.5 73.5 c 128,-1,35
 800 117 800 117 862.5 193.5 c 128,-1,36
 925 270 925 270 941 368 c 2,37,-1
 1060 1087 l 1,38,-1
 1106 1087 l 1,39,-1
 890 -219 l 2,40,41
 877 -301 877 -301 903 -336.5 c 128,-1,42
 929 -372 929 -372 1002 -372 c 0,43,44
 1015 -372 1015 -372 1035 -372 c 128,-1,45
 1055 -372 1055 -372 1074 -372 c 1,46,-1
 1067 -418 l 1,47,48
 1056 -418 1056 -418 1042.5 -417.5 c 128,-1,49
 1029 -417 1029 -417 1016.5 -417 c 128,-1,50
 1004 -417 1004 -417 995 -417 c 0,0,1
EndSplineSet
EndChar

StartChar: dotlessi
Encoding: 305 305 660
Width: 379
GlyphClass: 2
Flags: W
AnchorPoint: "Anchor-4" 123 0 basechar 0
AnchorPoint: "Anchor-1" 280 1087 basechar 0
AnchorPoint: "Anchor-0" 100 0 basechar 0
LayerCount: 2
Fore
SplineSet
77 0 m 1,0,-1
 256 1087 l 1,1,-1
 303 1087 l 1,2,-1
 123 0 l 1,3,-1
 77 0 l 1,0,-1
EndSplineSet
EndChar

StartChar: uni0237
Encoding: 567 567 682
Width: 385
GlyphClass: 2
Flags: W
AnchorPoint: "Anchor-1" 286 1087 basechar 0
AnchorPoint: "Anchor-0" 4 -441 basechar 0
LayerCount: 2
Fore
SplineSet
263 1087 m 1,0,-1
 309 1087 l 1,1,-1
 102 -162 l 2,2,3
 89 -241 89 -241 44 -298.5 c 128,-1,4
 -1 -356 -1 -356 -64 -387 c 128,-1,5
 -127 -418 -127 -418 -196 -418 c 2,6,-1
 -214 -418 l 1,7,-1
 -207 -372 l 1,8,-1
 -189 -372 l 2,9,10
 -106 -372 -106 -372 -33 -316 c 128,-1,11
 40 -260 40 -260 56 -162 c 2,12,-1
 263 1087 l 1,0,-1
EndSplineSet
EndChar

StartChar: i.sc
Encoding: 60950 60950 689
Width: 495
GlyphClass: 2
Flags: W
AnchorPoint: "Anchor-4" 333 0 basechar 0
AnchorPoint: "Anchor-1" 337 1087 basechar 0
AnchorPoint: "Anchor-0" 157 0 basechar 0
LayerCount: 2
Fore
SplineSet
-18 0 m 1,0,-1
 -11 45 l 1,1,-1
 141 45 l 1,2,-1
 306 1043 l 1,3,-1
 154 1043 l 1,4,-1
 162 1087 l 1,5,-1
 513 1087 l 1,6,-1
 505 1043 l 1,7,-1
 353 1043 l 1,8,-1
 188 45 l 1,9,-1
 340 45 l 1,10,-1
 333 0 l 1,11,-1
 -18 0 l 1,0,-1
EndSplineSet
EndChar

StartChar: jcrosstail.ccmp
Encoding: 57423 57423 691
Width: 390
GlyphClass: 2
Flags: W
AnchorPoint: "Anchor-4" 211 0 basechar 0
AnchorPoint: "Anchor-1" 368 1087 basechar 0
AnchorPoint: "Anchor-0" 65 -460 basechar 0
LayerCount: 2
Fore
SplineSet
-84 -418 m 256,0,1
 -139 -418 -139 -418 -185.5 -387.5 c 128,-1,2
 -232 -357 -232 -357 -256 -305.5 c 128,-1,3
 -280 -254 -280 -254 -270 -192 c 0,4,5
 -259 -128 -259 -128 -217 -76.5 c 128,-1,6
 -175 -25 -175 -25 -112 5 c 128,-1,7
 -49 35 -49 35 23 34 c 2,8,-1
 356 34 l 1,9,-1
 348 -14 l 1,10,-1
 17 -12 l 2,11,12
 -72 -11 -72 -11 -141.5 -64 c 128,-1,13
 -211 -117 -211 -117 -223 -192 c 0,14,15
 -236 -269 -236 -269 -189.5 -320.5 c 128,-1,16
 -143 -372 -143 -372 -75 -372 c 0,17,18
 12 -372 12 -372 69.5 -312.5 c 128,-1,19
 127 -253 127 -253 141 -168 c 2,20,-1
 177 50 l 1,21,-1
 225 50 l 1,22,-1
 188 -168 l 2,23,24
 179 -221 179 -221 156 -266.5 c 128,-1,25
 133 -312 133 -312 98 -346.5 c 128,-1,26
 63 -381 63 -381 17 -399.5 c 128,-1,27
 -29 -418 -29 -418 -84 -418 c 256,0,1
165 0 m 1,28,-1
 345 1087 l 1,29,-1
 391 1087 l 1,30,-1
 211 0 l 1,31,-1
 165 0 l 1,28,-1
EndSplineSet
EndChar

StartChar: k
Encoding: 107 107 698
Width: 923
GlyphClass: 2
Flags: W
AnchorPoint: "Anchor-1" 347 1490 basechar 0
AnchorPoint: "Anchor-0" 417 0 basechar 0
LayerCount: 2
Fore
SplineSet
184 450 m 1,0,-1
 198 531 l 1,1,-1
 216 531 l 1,2,-1
 871 1087 l 1,3,-1
 937 1087 l 1,4,-1
 382 617 l 1,5,-1
 375 611 l 1,6,-1
 184 450 l 1,0,-1
76 0 m 1,7,-1
 323 1490 l 1,8,-1
 369 1490 l 1,9,-1
 122 0 l 1,10,-1
 76 0 l 1,7,-1
735 0 m 1,11,-1
 346 617 l 1,12,-1
 387 645 l 1,13,-1
 795 0 l 1,14,-1
 735 0 l 1,11,-1
EndSplineSet
Substitution2: "'sups' Superscript in Latin lookup 39 subtable" k.sups
Substitution2: "'subs' Subscript in Latin lookup 38 subtable" k.subs
Substitution2: "'sinf' Scientific Inferiors in Latin lookup 18 subtable" k.subs
AlternateSubs2: "'aalt' Access All Alternates in Latin lookup 1 subtable" k.sups k.subs
EndChar

StartChar: uni0199
Encoding: 409 409 699
Width: 924
GlyphClass: 2
Flags: W
AnchorPoint: "Anchor-1" 280 1087 basechar 0
AnchorPoint: "Anchor-0" 417 0 basechar 0
LayerCount: 2
Fore
SplineSet
219 858 m 1,0,-1
 257 1088 l 1,1,-1
 286 1262 l 2,2,3
 303 1363 303 1363 357 1411 c 128,-1,4
 411 1459 411 1459 503 1459 c 0,5,6
 517 1459 517 1459 537.5 1459.5 c 128,-1,7
 558 1460 558 1460 575 1460 c 1,8,-1
 567 1413 l 1,9,10
 548 1413 548 1413 528 1413 c 128,-1,11
 508 1413 508 1413 495 1413 c 0,12,13
 423 1413 423 1413 384.5 1378.5 c 128,-1,14
 346 1344 346 1344 332 1262 c 2,15,-1
 303 1087 l 1,16,-1
 265 858 l 1,17,-1
 219 858 l 1,0,-1
185 450 m 1,18,-1
 199 531 l 1,19,-1
 217 531 l 1,20,-1
 872 1087 l 1,21,-1
 937 1087 l 1,22,-1
 383 617 l 1,23,-1
 376 611 l 1,24,-1
 185 450 l 1,18,-1
77 0 m 1,25,-1
 257 1087 l 1,26,-1
 303 1087 l 1,27,-1
 123 0 l 1,28,-1
 77 0 l 1,25,-1
736 0 m 1,29,-1
 347 617 l 1,30,-1
 387 645 l 1,31,-1
 795 0 l 1,32,-1
 736 0 l 1,29,-1
EndSplineSet
EndChar

StartChar: kturn
Encoding: 670 670 705
Width: 923
GlyphClass: 2
Flags: W
AnchorPoint: "Anchor-1" 533 1087 basechar 0
AnchorPoint: "Anchor-0" 508 1087 basechar 0
LayerCount: 2
Fore
SplineSet
739 637 m 1,0,-1
 725 556 l 1,1,-1
 707 556 l 1,2,-1
 53 0 l 1,3,-1
 -13 0 l 1,4,-1
 541 472 l 1,5,-1
 548 478 l 1,6,-1
 739 637 l 1,0,-1
847 1087 m 1,7,-1
 600 -403 l 1,8,-1
 554 -403 l 1,9,-1
 801 1087 l 1,10,-1
 847 1087 l 1,7,-1
188 1087 m 1,11,-1
 577 472 l 1,12,-1
 538 442 l 1,13,-1
 130 1087 l 1,14,-1
 188 1087 l 1,11,-1
EndSplineSet
EndChar

StartChar: k.base
Encoding: 60951 60951 706
Width: 924
GlyphClass: 2
Flags: W
AnchorPoint: "Anchor-1" 280 1087 basechar 0
AnchorPoint: "Anchor-0" 417 0 basechar 0
LayerCount: 2
Fore
SplineSet
185 450 m 1,0,-1
 199 531 l 1,1,-1
 217 531 l 1,2,-1
 871 1087 l 1,3,-1
 938 1087 l 1,4,-1
 383 617 l 1,5,-1
 376 611 l 1,6,-1
 185 450 l 1,0,-1
77 0 m 1,7,-1
 257 1087 l 1,8,-1
 303 1087 l 1,9,-1
 123 0 l 1,10,-1
 77 0 l 1,7,-1
736 0 m 1,11,-1
 347 617 l 1,12,-1
 387 645 l 1,13,-1
 795 0 l 1,14,-1
 736 0 l 1,11,-1
EndSplineSet
EndChar

StartChar: l
Encoding: 1114124 -1 707
Width: 379
GlyphClass: 2
Flags: W
AnchorPoint: "Anchor-1" 347 1490 basechar 0
AnchorPoint: "Anchor-0" 101 0 basechar 0
LayerCount: 2
Fore
SplineSet
369 1490 m 1,0,-1
 122 0 l 1,1,-1
 76 0 l 1,2,-1
 323 1490 l 1,3,-1
 369 1490 l 1,0,-1
EndSplineSet
Substitution2: "'smcp' Lowercase to Small Capitals in Latin lookup 68 subtable" l.sc
Substitution2: "'c2sc' Capitals to Small Capitals in Latin lookup 67 subtable" l.sc
Substitution2: "'cv05' Character Variants 05 in Latin lookup 59 subtable" l.ss02
Substitution2: "'ss04' Style Set 4 in Latin lookup 50 subtable" l.ss02
Substitution2: "'ss02' Style Set 2 in Latin lookup 48 subtable" l.ss02
Substitution2: "'salt' Stylistic Alternatives in Latin lookup 46 subtable" l.ss02
Substitution2: "'sups' Superscript in Latin lookup 39 subtable" l.sups
Substitution2: "'subs' Subscript in Latin lookup 38 subtable" l.subs
Substitution2: "'sinf' Scientific Inferiors in Latin lookup 18 subtable" l.subs
AlternateSubs2: "'aalt' Access All Alternates in Latin lookup 1 subtable" l.sc l.sups l.subs
EndChar

StartChar: lrthook
Encoding: 621 621 711
Width: 379
GlyphClass: 2
Flags: W
AnchorPoint: "Anchor-1" 347 1490 basechar 0
AnchorPoint: "Anchor-0" 101 0 basechar 0
LayerCount: 2
Fore
SplineSet
192 -417 m 0,0,1
 100 -417 100 -417 61.5 -369.5 c 128,-1,2
 23 -322 23 -322 41 -219 c 2,3,-1
 77 0 l 1,4,-1
 122 0 l 1,5,-1
 87 -219 l 2,6,7
 74 -301 74 -301 100.5 -336.5 c 128,-1,8
 127 -372 127 -372 199 -372 c 0,9,10
 212 -372 212 -372 232 -372 c 128,-1,11
 252 -372 252 -372 271 -372 c 1,12,-1
 263 -418 l 1,13,14
 247 -418 247 -418 226 -417.5 c 128,-1,15
 205 -417 205 -417 192 -417 c 0,0,1
369 1490 m 1,16,-1
 122 0 l 1,17,-1
 76 0 l 1,18,-1
 323 1490 l 1,19,-1
 369 1490 l 1,16,-1
EndSplineSet
EndChar

StartChar: uni026C
Encoding: 1114128 -1 712
Width: 622
Flags: W
LayerCount: 2
Fore
SplineSet
595 677 m 1,0,-1
 266 676 l 2,1,2
 194 676 194 676 140 707 c 128,-1,3
 86 738 86 738 60 790 c 128,-1,4
 34 842 34 842 43 905 c 0,5,6
 54 968 54 968 93.5 1019 c 128,-1,7
 133 1070 133 1070 189 1100 c 128,-1,8
 245 1130 245 1130 303 1130 c 0,9,10
 358 1130 358 1130 398 1111 c 128,-1,11
 438 1092 438 1092 463 1058.5 c 128,-1,12
 488 1025 488 1025 495.5 979.5 c 128,-1,13
 503 934 503 934 495 881 c 2,14,-1
 455 641 l 1,15,-1
 409 642 l 1,16,-1
 448 881 l 2,17,18
 463 967 463 967 427.5 1026 c 128,-1,19
 392 1085 392 1085 299 1085 c 0,20,21
 254 1085 254 1085 209 1060.5 c 128,-1,22
 164 1036 164 1036 131.5 995.5 c 128,-1,23
 99 955 99 955 91 904 c 0,24,25
 78 830 78 830 129.5 776.5 c 128,-1,26
 181 723 181 723 270 722 c 2,27,-1
 601 723 l 1,28,-1
 595 677 l 1,0,-1
595 1490 m 1,29,-1
 348 0 l 1,30,-1
 302 0 l 1,31,-1
 548 1490 l 1,32,-1
 595 1490 l 1,29,-1
EndSplineSet
Substitution2: "'cv05' Character Variants 05 in Latin lookup 59 subtable" uni026C.ss02
Substitution2: "'ss04' Style Set 4 in Latin lookup 50 subtable" uni026C.ss02
Substitution2: "'ss02' Style Set 2 in Latin lookup 48 subtable" uni026C.ss02
Substitution2: "'salt' Stylistic Alternatives in Latin lookup 46 subtable" uni026C.ss02
EndChar

StartChar: uni0234
Encoding: 564 564 713
Width: 699
GlyphClass: 2
Flags: W
AnchorPoint: "Anchor-1" 347 1490 basechar 0
AnchorPoint: "Anchor-0" 101 0 basechar 0
LayerCount: 2
Fore
SplineSet
267 -410 m 0,0,1
 192 -410 192 -410 139.5 -379 c 128,-1,2
 87 -348 87 -348 62 -292 c 128,-1,3
 37 -236 37 -236 50 -160 c 2,4,-1
 87 60 l 1,5,-1
 132 60 l 1,6,-1
 96 -160 l 2,7,8
 80 -254 80 -254 131 -308.5 c 128,-1,9
 182 -363 182 -363 274 -363 c 0,10,11
 362 -363 362 -363 429 -314 c 128,-1,12
 496 -265 496 -265 511 -184 c 0,13,14
 524 -101 524 -101 471 -51.5 c 128,-1,15
 418 -2 418 -2 330 -2 c 0,16,17
 274 -2 274 -2 217 -30 c 128,-1,18
 160 -58 160 -58 94.5 -122 c 128,-1,19
 29 -186 29 -186 -57 -293 c 2,20,-1
 -137 -396 l 1,21,-1
 -174 -371 l 1,22,-1
 -90 -267 l 2,23,24
 48 -96 48 -96 144.5 -26 c 128,-1,25
 241 44 241 44 337 44 c 0,26,27
 445 44 445 44 509 -19 c 128,-1,28
 573 -82 573 -82 556 -183 c 0,29,30
 539 -286 539 -286 456 -348 c 128,-1,31
 373 -410 373 -410 267 -410 c 0,0,1
369 1490 m 1,32,-1
 122 0 l 1,33,-1
 76 0 l 1,34,-1
 323 1490 l 1,35,-1
 369 1490 l 1,32,-1
EndSplineSet
EndChar

StartChar: l.ss02
Encoding: 57424 57424 722
AltUni2: 00006c.ffffffff.0
Width: 416
GlyphClass: 2
Flags: W
AnchorPoint: "Anchor-1" 346 1490 basechar 0
AnchorPoint: "Anchor-0" 172 0 basechar 0
LayerCount: 2
Fore
SplineSet
278 -1 m 0,0,1
 182 -12 182 -12 135.5 31 c 128,-1,2
 89 74 89 74 106 176 c 2,3,-1
 324 1490 l 1,4,-1
 370 1490 l 1,5,-1
 151 176 l 2,6,7
 138 92 138 92 173 64.5 c 128,-1,8
 208 37 208 37 284 46 c 0,9,10
 290 47 290 47 291.5 47 c 128,-1,11
 293 47 293 47 298 47 c 1,12,-1
 296 2 l 2,13,14
 292 1 292 1 287.5 0.5 c 128,-1,15
 283 0 283 0 278 -1 c 0,0,1
EndSplineSet
EndChar

StartChar: uni026C.ss02
Encoding: 57428 57428 726
AltUni2: 00026c.ffffffff.0
Width: 669
GlyphClass: 2
Flags: W
AnchorPoint: "Anchor-1" 594 1490 basechar 0
AnchorPoint: "Anchor-0" 420 0 basechar 0
LayerCount: 2
Fore
SplineSet
270 676 m 2,0,1
 161 676 161 676 104.5 741.5 c 128,-1,2
 48 807 48 807 65 904 c 0,3,4
 76 969 76 969 114 1020 c 128,-1,5
 152 1071 152 1071 208 1100.5 c 128,-1,6
 264 1130 264 1130 328 1130 c 0,7,8
 395 1130 395 1130 438 1099 c 128,-1,9
 481 1068 481 1068 498 1015 c 128,-1,10
 515 962 515 962 504 893 c 2,11,-1
 489 804 l 1,12,-1
 457 804 l 1,13,-1
 471 892 l 2,14,15
 485 975 485 975 443 1029.5 c 128,-1,16
 401 1084 401 1084 321 1084 c 0,17,18
 244 1084 244 1084 185.5 1033 c 128,-1,19
 127 982 127 982 113 904 c 0,20,21
 101 825 101 825 144.5 773.5 c 128,-1,22
 188 722 188 722 278 722 c 2,23,-1
 653 722 l 1,24,-1
 645 676 l 1,25,-1
 270 676 l 2,0,1
525 -1 m 0,26,27
 430 -12 430 -12 383 31 c 128,-1,28
 336 74 336 74 353 176 c 2,29,-1
 571 1490 l 1,30,-1
 617 1490 l 1,31,-1
 399 176 l 2,32,33
 385 92 385 92 420 64.5 c 128,-1,34
 455 37 455 37 532 46 c 0,35,36
 537 47 537 47 538.5 47 c 128,-1,37
 540 47 540 47 546 47 c 1,38,-1
 544 2 l 2,39,40
 540 1 540 1 535 0.5 c 128,-1,41
 530 0 530 0 525 -1 c 0,26,27
EndSplineSet
EndChar

StartChar: l.sc
Encoding: 60952 60952 736
Width: 764
GlyphClass: 2
Flags: W
AnchorPoint: "Anchor-1" 262 1087 basechar 0
AnchorPoint: "Anchor-0" 358 0 basechar 0
LayerCount: 2
Fore
SplineSet
57 0 m 1,0,-1
 237 1087 l 1,1,-1
 286 1087 l 1,2,-1
 112 44 l 1,3,-1
 676 44 l 1,4,-1
 668 0 l 1,5,-1
 57 0 l 1,0,-1
EndSplineSet
EndChar

StartChar: m
Encoding: 109 109 737
Width: 1710
GlyphClass: 2
Flags: W
AnchorPoint: "Anchor-1" 945 1087 basechar 0
AnchorPoint: "Anchor-0" 766 0 basechar 0
LayerCount: 2
Fore
SplineSet
76 0 m 1,0,-1
 256 1087 l 1,1,-1
 303 1087 l 1,2,-1
 261 835 l 1,3,-1
 245 837 l 1,4,5
 282 930 282 930 346 988.5 c 128,-1,6
 410 1047 410 1047 485.5 1075 c 128,-1,7
 561 1103 561 1103 634 1103 c 0,8,9
 718 1103 718 1103 780 1068.5 c 128,-1,10
 842 1034 842 1034 876.5 970.5 c 128,-1,11
 911 907 911 907 911 817 c 1,12,-1
 893 822 l 1,13,14
 927 911 927 911 988 974 c 128,-1,15
 1049 1037 1049 1037 1128 1070 c 128,-1,16
 1207 1103 1207 1103 1294 1103 c 0,17,18
 1400 1103 1400 1103 1469 1056 c 128,-1,19
 1538 1009 1538 1009 1565.5 922.5 c 128,-1,20
 1593 836 1593 836 1573 717 c 2,21,-1
 1454 0 l 1,22,-1
 1409 0 l 1,23,-1
 1528 721 l 2,24,25
 1546 830 1546 830 1523 904.5 c 128,-1,26
 1500 979 1500 979 1441 1018 c 128,-1,27
 1382 1057 1382 1057 1293 1057 c 0,28,29
 1202 1057 1202 1057 1120.5 1017 c 128,-1,30
 1039 977 1039 977 982 901 c 128,-1,31
 925 825 925 825 907 717 c 2,32,-1
 789 0 l 1,33,-1
 743 0 l 1,34,-1
 862 722 l 2,35,36
 889 884 889 884 826 970.5 c 128,-1,37
 763 1057 763 1057 633 1057 c 0,38,39
 538 1057 538 1057 455 1013 c 128,-1,40
 372 969 372 969 315 892.5 c 128,-1,41
 258 816 258 816 241 718 c 2,42,-1
 122 0 l 1,43,-1
 76 0 l 1,0,-1
EndSplineSet
Substitution2: "'smcp' Lowercase to Small Capitals in Latin lookup 68 subtable" m.sc
Substitution2: "'c2sc' Capitals to Small Capitals in Latin lookup 67 subtable" m.sc
Substitution2: "'sups' Superscript in Latin lookup 39 subtable" m.sups
Substitution2: "'subs' Subscript in Latin lookup 38 subtable" m.subs
Substitution2: "'sinf' Scientific Inferiors in Latin lookup 18 subtable" m.subs
AlternateSubs2: "'aalt' Access All Alternates in Latin lookup 1 subtable" m.sups m.subs m.sc
EndChar

StartChar: uni0271
Encoding: 625 625 738
Width: 1710
GlyphClass: 2
Flags: W
AnchorPoint: "Anchor-1" 945 1087 basechar 0
AnchorPoint: "Anchor-0" 766 0 basechar 0
LayerCount: 2
Fore
SplineSet
1202 -417 m 0,0,1
 1188 -417 1188 -417 1167 -417.5 c 128,-1,2
 1146 -418 1146 -418 1130 -418 c 1,3,-1
 1136 -372 l 1,4,5
 1155 -372 1155 -372 1175.5 -372 c 128,-1,6
 1196 -372 1196 -372 1208 -372 c 0,7,8
 1281 -372 1281 -372 1320 -337 c 128,-1,9
 1359 -302 1359 -302 1373 -219 c 2,10,-1
 1409 0 l 1,11,-1
 1454 0 l 1,12,-1
 1419 -219 l 2,13,14
 1402 -322 1402 -322 1348 -369.5 c 128,-1,15
 1294 -417 1294 -417 1202 -417 c 0,0,1
76 0 m 1,16,-1
 256 1087 l 1,17,-1
 303 1087 l 1,18,-1
 261 835 l 1,19,-1
 245 837 l 1,20,21
 282 930 282 930 346 988.5 c 128,-1,22
 410 1047 410 1047 485.5 1075 c 128,-1,23
 561 1103 561 1103 634 1103 c 0,24,25
 718 1103 718 1103 780 1068.5 c 128,-1,26
 842 1034 842 1034 876.5 970.5 c 128,-1,27
 911 907 911 907 911 817 c 1,28,-1
 893 822 l 1,29,30
 927 911 927 911 988 974 c 128,-1,31
 1049 1037 1049 1037 1128 1070 c 128,-1,32
 1207 1103 1207 1103 1294 1103 c 0,33,34
 1400 1103 1400 1103 1469 1056 c 128,-1,35
 1538 1009 1538 1009 1565.5 922.5 c 128,-1,36
 1593 836 1593 836 1573 717 c 2,37,-1
 1454 0 l 1,38,-1
 1409 0 l 1,39,-1
 1528 721 l 2,40,41
 1546 830 1546 830 1523 904.5 c 128,-1,42
 1500 979 1500 979 1441 1018 c 128,-1,43
 1382 1057 1382 1057 1293 1057 c 0,44,45
 1202 1057 1202 1057 1120.5 1017 c 128,-1,46
 1039 977 1039 977 982 901 c 128,-1,47
 925 825 925 825 907 717 c 2,48,-1
 789 0 l 1,49,-1
 743 0 l 1,50,-1
 862 722 l 2,51,52
 889 884 889 884 826 970.5 c 128,-1,53
 763 1057 763 1057 633 1057 c 0,54,55
 538 1057 538 1057 455 1013 c 128,-1,56
 372 969 372 969 315 892.5 c 128,-1,57
 258 816 258 816 241 718 c 2,58,-1
 122 0 l 1,59,-1
 76 0 l 1,16,-1
EndSplineSet
EndChar

StartChar: mturn
Encoding: 623 623 739
Width: 1710
GlyphClass: 2
Flags: W
AnchorPoint: "Anchor-1" 947 1087 basechar 0
AnchorPoint: "Anchor-0" 767 0 basechar 0
LayerCount: 2
Fore
SplineSet
1634 1087 m 1,0,-1
 1454 0 l 1,1,-1
 1409 0 l 1,2,-1
 1450 252 l 1,3,-1
 1466 251 l 1,4,5
 1429 160 1429 160 1365.5 100.5 c 128,-1,6
 1302 41 1302 41 1226 12.5 c 128,-1,7
 1150 -16 1150 -16 1077 -16 c 0,8,9
 993 -16 993 -16 931 18.5 c 128,-1,10
 869 53 869 53 834.5 118 c 128,-1,11
 800 183 800 183 800 270 c 1,12,-1
 818 267 l 1,13,14
 784 178 784 178 723 115 c 128,-1,15
 662 52 662 52 583 18 c 128,-1,16
 504 -16 504 -16 417 -16 c 0,17,18
 312 -16 312 -16 242.5 31 c 128,-1,19
 173 78 173 78 146 165.5 c 128,-1,20
 119 253 119 253 138 370 c 2,21,-1
 256 1087 l 1,22,-1
 303 1087 l 1,23,-1
 183 366 l 2,24,25
 165 259 165 259 188 184 c 128,-1,26
 211 109 211 109 270 69.5 c 128,-1,27
 329 30 329 30 418 30 c 0,28,29
 510 30 510 30 591 70 c 128,-1,30
 672 110 672 110 729 186 c 128,-1,31
 786 262 786 262 804 370 c 2,32,-1
 923 1087 l 1,33,-1
 969 1087 l 1,34,-1
 849 367 l 2,35,36
 822 204 822 204 885 117 c 128,-1,37
 948 30 948 30 1078 30 c 0,38,39
 1173 30 1173 30 1256 74.5 c 128,-1,40
 1339 119 1339 119 1396.5 195.5 c 128,-1,41
 1454 272 1454 272 1470 371 c 2,42,-1
 1588 1087 l 1,43,-1
 1634 1087 l 1,0,-1
EndSplineSet
EndChar

StartChar: mturndescend
Encoding: 624 624 740
Width: 1710
GlyphClass: 2
Flags: W
AnchorPoint: "Anchor-1" 947 1087 basechar 0
AnchorPoint: "Anchor-0" 767 0 basechar 0
LayerCount: 2
Fore
SplineSet
1339 -418 m 1,0,-1
 1408 0 l 1,1,-1
 1454 0 l 1,2,-1
 1385 -418 l 1,3,-1
 1339 -418 l 1,0,-1
1634 1087 m 1,4,-1
 1454 0 l 1,5,-1
 1409 0 l 1,6,-1
 1450 252 l 1,7,-1
 1466 251 l 1,8,9
 1429 160 1429 160 1365.5 100.5 c 128,-1,10
 1302 41 1302 41 1226 12.5 c 128,-1,11
 1150 -16 1150 -16 1077 -16 c 0,12,13
 993 -16 993 -16 931 18.5 c 128,-1,14
 869 53 869 53 834.5 118 c 128,-1,15
 800 183 800 183 800 270 c 1,16,-1
 818 267 l 1,17,18
 784 178 784 178 723 115 c 128,-1,19
 662 52 662 52 583 18 c 128,-1,20
 504 -16 504 -16 417 -16 c 0,21,22
 312 -16 312 -16 242.5 31 c 128,-1,23
 173 78 173 78 146 165.5 c 128,-1,24
 119 253 119 253 138 370 c 2,25,-1
 256 1087 l 1,26,-1
 303 1087 l 1,27,-1
 183 366 l 2,28,29
 165 259 165 259 188 184 c 128,-1,30
 211 109 211 109 270 69.5 c 128,-1,31
 329 30 329 30 418 30 c 0,32,33
 510 30 510 30 591 70 c 128,-1,34
 672 110 672 110 729 186 c 128,-1,35
 786 262 786 262 804 370 c 2,36,-1
 923 1087 l 1,37,-1
 969 1087 l 1,38,-1
 849 367 l 2,39,40
 822 204 822 204 885 117 c 128,-1,41
 948 30 948 30 1078 30 c 0,42,43
 1173 30 1173 30 1256 74.5 c 128,-1,44
 1339 119 1339 119 1396.5 195.5 c 128,-1,45
 1454 272 1454 272 1470 371 c 2,46,-1
 1588 1087 l 1,47,-1
 1634 1087 l 1,4,-1
EndSplineSet
EndChar

StartChar: n
Encoding: 110 110 744
Width: 1133
GlyphClass: 2
Flags: W
AnchorPoint: "Anchor-1" 659 1087 basechar 0
AnchorPoint: "Anchor-0" 477 0 basechar 0
LayerCount: 2
Fore
SplineSet
241 718 m 2,0,-1
 123 0 l 1,1,-1
 77 0 l 1,2,-1
 256 1087 l 1,3,-1
 303 1087 l 1,4,-1
 263 848 l 1,5,-1
 251 848 l 1,6,7
 309 976 309 976 425 1039.5 c 128,-1,8
 541 1103 541 1103 668 1103 c 0,9,10
 784 1103 784 1103 863.5 1054.5 c 128,-1,11
 943 1006 943 1006 979 920 c 128,-1,12
 1015 834 1015 834 996 718 c 2,13,-1
 877 0 l 1,14,-1
 831 0 l 1,15,-1
 950 721 l 2,16,17
 976 873 976 873 897.5 965 c 128,-1,18
 819 1057 819 1057 668 1057 c 0,19,20
 563 1057 563 1057 472 1013.5 c 128,-1,21
 381 970 381 970 319.5 893.5 c 128,-1,22
 258 817 258 817 241 718 c 2,0,-1
EndSplineSet
Substitution2: "'smcp' Lowercase to Small Capitals in Latin lookup 68 subtable" n.sc
Substitution2: "'c2sc' Capitals to Small Capitals in Latin lookup 67 subtable" n.sc
Substitution2: "'sups' Superscript in Latin lookup 39 subtable" n.sups
Substitution2: "'subs' Subscript in Latin lookup 38 subtable" n.subs
Substitution2: "'numr' Numerators in Latin lookup 19 subtable" n.numr
Substitution2: "'sinf' Scientific Inferiors in Latin lookup 18 subtable" n.subs
AlternateSubs2: "'aalt' Access All Alternates in Latin lookup 1 subtable" n.sc n.numr n.sups n.subs
EndChar

StartChar: nrthook
Encoding: 627 627 746
Width: 1133
GlyphClass: 2
Flags: W
AnchorPoint: "Anchor-1" 659 1087 basechar 0
AnchorPoint: "Anchor-0" 477 0 basechar 0
LayerCount: 2
Fore
SplineSet
946 -417 m 0,0,1
 854 -417 854 -417 816 -369.5 c 128,-1,2
 778 -322 778 -322 795 -219 c 2,3,-1
 831 0 l 1,4,-1
 877 0 l 1,5,-1
 841 -219 l 2,6,7
 828 -301 828 -301 854.5 -336.5 c 128,-1,8
 881 -372 881 -372 953 -372 c 0,9,10
 966 -372 966 -372 986 -372 c 128,-1,11
 1006 -372 1006 -372 1025 -372 c 1,12,-1
 1018 -418 l 1,13,14
 1001 -418 1001 -418 980.5 -417.5 c 128,-1,15
 960 -417 960 -417 946 -417 c 0,0,1
241 718 m 2,16,-1
 123 0 l 1,17,-1
 77 0 l 1,18,-1
 256 1087 l 1,19,-1
 303 1087 l 1,20,-1
 263 848 l 1,21,-1
 251 848 l 1,22,23
 309 976 309 976 425 1039.5 c 128,-1,24
 541 1103 541 1103 668 1103 c 0,25,26
 784 1103 784 1103 863.5 1054.5 c 128,-1,27
 943 1006 943 1006 979 920 c 128,-1,28
 1015 834 1015 834 996 718 c 2,29,-1
 877 0 l 1,30,-1
 831 0 l 1,31,-1
 950 721 l 2,32,33
 976 873 976 873 897.5 965 c 128,-1,34
 819 1057 819 1057 668 1057 c 0,35,36
 563 1057 563 1057 472 1013.5 c 128,-1,37
 381 970 381 970 319.5 893.5 c 128,-1,38
 258 817 258 817 241 718 c 2,16,-1
EndSplineSet
EndChar

StartChar: eng
Encoding: 331 331 747
Width: 1133
GlyphClass: 2
Flags: W
AnchorPoint: "Anchor-1" 659 1087 basechar 0
AnchorPoint: "Anchor-0" 477 0 basechar 0
LayerCount: 2
Fore
SplineSet
552 -418 m 1,0,-1
 559 -371 l 1,1,2
 578 -372 578 -372 598 -372 c 128,-1,3
 618 -372 618 -372 631 -372 c 0,4,5
 703 -372 703 -372 742.5 -337 c 128,-1,6
 782 -302 782 -302 795 -219 c 2,7,-1
 831 0 l 1,8,-1
 877 0 l 1,9,-1
 841 -219 l 2,10,11
 824 -322 824 -322 770 -369.5 c 128,-1,12
 716 -417 716 -417 624 -417 c 0,13,14
 611 -417 611 -417 590 -417.5 c 128,-1,15
 569 -418 569 -418 552 -418 c 1,0,-1
241 718 m 2,16,-1
 123 0 l 1,17,-1
 77 0 l 1,18,-1
 256 1087 l 1,19,-1
 303 1087 l 1,20,-1
 263 848 l 1,21,-1
 251 848 l 1,22,23
 309 976 309 976 425 1039.5 c 128,-1,24
 541 1103 541 1103 668 1103 c 0,25,26
 784 1103 784 1103 863.5 1054.5 c 128,-1,27
 943 1006 943 1006 979 920 c 128,-1,28
 1015 834 1015 834 996 718 c 2,29,-1
 877 0 l 1,30,-1
 831 0 l 1,31,-1
 950 721 l 2,32,33
 976 873 976 873 897.5 965 c 128,-1,34
 819 1057 819 1057 668 1057 c 0,35,36
 563 1057 563 1057 472 1013.5 c 128,-1,37
 381 970 381 970 319.5 893.5 c 128,-1,38
 258 817 258 817 241 718 c 2,16,-1
EndSplineSet
EndChar

StartChar: uni0235
Encoding: 565 565 748
Width: 1453
GlyphClass: 2
Flags: W
AnchorPoint: "Anchor-1" 659 1087 basechar 0
AnchorPoint: "Anchor-0" 477 0 basechar 0
LayerCount: 2
Fore
SplineSet
1021 -410 m 0,0,1
 947 -410 947 -410 894 -379 c 128,-1,2
 841 -348 841 -348 816.5 -292 c 128,-1,3
 792 -236 792 -236 805 -160 c 2,4,-1
 841 60 l 1,5,-1
 887 60 l 1,6,-1
 851 -160 l 2,7,8
 835 -254 835 -254 886 -308.5 c 128,-1,9
 937 -363 937 -363 1029 -363 c 0,10,11
 1117 -363 1117 -363 1184 -314 c 128,-1,12
 1251 -265 1251 -265 1265 -184 c 0,13,14
 1279 -101 1279 -101 1225.5 -51.5 c 128,-1,15
 1172 -2 1172 -2 1085 -2 c 0,16,17
 1028 -2 1028 -2 971 -30 c 128,-1,18
 914 -58 914 -58 848.5 -122 c 128,-1,19
 783 -186 783 -186 698 -293 c 2,20,-1
 617 -396 l 1,21,-1
 581 -371 l 1,22,-1
 665 -267 l 2,23,24
 802 -96 802 -96 898.5 -26 c 128,-1,25
 995 44 995 44 1092 44 c 0,26,27
 1199 44 1199 44 1263.5 -19 c 128,-1,28
 1328 -82 1328 -82 1311 -183 c 0,29,30
 1294 -286 1294 -286 1211 -348 c 128,-1,31
 1128 -410 1128 -410 1021 -410 c 0,0,1
241 718 m 2,32,-1
 123 0 l 1,33,-1
 77 0 l 1,34,-1
 256 1087 l 1,35,-1
 303 1087 l 1,36,-1
 263 848 l 1,37,-1
 251 848 l 1,38,39
 309 976 309 976 425 1039.5 c 128,-1,40
 541 1103 541 1103 668 1103 c 0,41,42
 784 1103 784 1103 863.5 1054.5 c 128,-1,43
 943 1006 943 1006 979 920 c 128,-1,44
 1015 834 1015 834 996 718 c 2,45,-1
 877 0 l 1,46,-1
 831 0 l 1,47,-1
 950 721 l 2,48,49
 976 873 976 873 897.5 965 c 128,-1,50
 819 1057 819 1057 668 1057 c 0,51,52
 563 1057 563 1057 472 1013.5 c 128,-1,53
 381 970 381 970 319.5 893.5 c 128,-1,54
 258 817 258 817 241 718 c 2,32,-1
EndSplineSet
EndChar

StartChar: nlfthook
Encoding: 626 626 749
Width: 1133
GlyphClass: 2
Flags: W
AnchorPoint: "Anchor-1" 659 1087 basechar 0
AnchorPoint: "Anchor-0" 477 0 basechar 0
LayerCount: 2
Fore
SplineSet
-130 -417 m 0,0,1
 -143 -417 -143 -417 -164 -417.5 c 128,-1,2
 -185 -418 -185 -418 -202 -418 c 1,3,-1
 -195 -372 l 1,4,5
 -176 -372 -176 -372 -156 -372 c 128,-1,6
 -136 -372 -136 -372 -123 -372 c 0,7,8
 -51 -372 -51 -372 -11.5 -337 c 128,-1,9
 28 -302 28 -302 41 -219 c 2,10,-1
 77 0 l 1,11,-1
 123 0 l 1,12,-1
 87 -219 l 2,13,14
 70 -322 70 -322 16 -369.5 c 128,-1,15
 -38 -417 -38 -417 -130 -417 c 0,0,1
241 718 m 2,16,-1
 123 0 l 1,17,-1
 77 0 l 1,18,-1
 256 1087 l 1,19,-1
 303 1087 l 1,20,-1
 263 848 l 1,21,-1
 251 848 l 1,22,23
 309 976 309 976 425 1039.5 c 128,-1,24
 541 1103 541 1103 668 1103 c 0,25,26
 784 1103 784 1103 863.5 1054.5 c 128,-1,27
 943 1006 943 1006 979 920 c 128,-1,28
 1015 834 1015 834 996 718 c 2,29,-1
 877 0 l 1,30,-1
 831 0 l 1,31,-1
 950 721 l 2,32,33
 976 873 976 873 897.5 965 c 128,-1,34
 819 1057 819 1057 668 1057 c 0,35,36
 563 1057 563 1057 472 1013.5 c 128,-1,37
 381 970 381 970 319.5 893.5 c 128,-1,38
 258 817 258 817 241 718 c 2,16,-1
EndSplineSet
EndChar

StartChar: n.sc
Encoding: 60953 60953 760
Width: 1233
GlyphClass: 2
Flags: W
AnchorPoint: "Anchor-1" 707 1087 basechar 0
AnchorPoint: "Anchor-0" 527 0 basechar 0
LayerCount: 2
Fore
SplineSet
77 0 m 1,0,-1
 257 1087 l 1,1,-1
 311 1087 l 1,2,-1
 780 321 l 2,3,4
 825 247 825 247 869.5 172 c 128,-1,5
 914 97 914 97 957 23 c 1,6,-1
 935 23 l 1,7,8
 943 72 943 72 951.5 122 c 128,-1,9
 960 172 960 172 968 221.5 c 128,-1,10
 976 271 976 271 984 321 c 2,11,-1
 1111 1087 l 1,12,-1
 1157 1087 l 1,13,-1
 977 0 l 1,14,-1
 922 0 l 1,15,-1
 452 769 l 2,16,17
 408 843 408 843 364.5 917 c 128,-1,18
 321 991 321 991 278 1065 c 1,19,-1
 299 1065 l 1,20,21
 291 1015 291 1015 283 966 c 128,-1,22
 275 917 275 917 267 867.5 c 128,-1,23
 259 818 259 818 250 769 c 2,24,-1
 123 0 l 1,25,-1
 77 0 l 1,0,-1
EndSplineSet
EndChar

StartChar: o
Encoding: 111 111 761
Width: 1122
GlyphClass: 2
Flags: W
AnchorPoint: "Anchor-4" 1025 542 basechar 0
AnchorPoint: "Anchor-1" 653 1087 basechar 0
AnchorPoint: "Anchor-0" 473 0 basechar 0
LayerCount: 2
Fore
SplineSet
471 -20 m 0,0,1
 354 -20 354 -20 268 36.5 c 128,-1,2
 182 93 182 93 135 192.5 c 128,-1,3
 88 292 88 292 88 422 c 0,4,5
 88 548 88 548 129.5 669 c 128,-1,6
 171 790 171 790 247 888 c 128,-1,7
 323 986 323 986 426.5 1044.5 c 128,-1,8
 530 1103 530 1103 653 1103 c 0,9,10
 770 1103 770 1103 855 1047 c 128,-1,11
 940 991 940 991 987.5 892 c 128,-1,12
 1035 793 1035 793 1035 663 c 0,13,14
 1035 537 1035 537 993.5 415.5 c 128,-1,15
 952 294 952 294 876.5 195.5 c 128,-1,16
 801 97 801 97 697.5 38.5 c 128,-1,17
 594 -20 594 -20 471 -20 c 0,0,1
471 27 m 0,18,19
 585 27 585 27 679.5 81.5 c 128,-1,20
 774 136 774 136 843.5 227.5 c 128,-1,21
 913 319 913 319 951 432.5 c 128,-1,22
 989 546 989 546 989 662 c 0,23,24
 989 781 989 781 948.5 869.5 c 128,-1,25
 908 958 908 958 832.5 1008 c 128,-1,26
 757 1058 757 1058 653 1058 c 0,27,28
 542 1058 542 1058 447.5 1004.5 c 128,-1,29
 353 951 353 951 282.5 860.5 c 128,-1,30
 212 770 212 770 173 656.5 c 128,-1,31
 134 543 134 543 134 423 c 0,32,33
 134 244 134 244 224.5 135.5 c 128,-1,34
 315 27 315 27 471 27 c 0,18,19
EndSplineSet
Substitution2: "Single Substitution lookup 44 subtable" ordmasculine
Substitution2: "'sups' Superscript in Latin lookup 39 subtable" o.sups
Substitution2: "'subs' Subscript in Latin lookup 38 subtable" o.subs
Substitution2: "'sinf' Scientific Inferiors in Latin lookup 18 subtable" o.subs
AlternateSubs2: "'aalt' Access All Alternates in Latin lookup 1 subtable" ordmasculine o.sups o.subs
EndChar

StartChar: ohorn
Encoding: 417 417 765
Width: 1122
GlyphClass: 2
Flags: W
AnchorPoint: "Anchor-4" 1025 542 basechar 0
AnchorPoint: "Anchor-1" 653 1087 basechar 0
AnchorPoint: "Anchor-0" 473 0 basechar 0
LayerCount: 2
Fore
SplineSet
647 1063 m 1,0,-1
 653 1103 l 1,1,2
 697 1101 697 1101 739 1098.5 c 128,-1,3
 781 1096 781 1096 824 1093.5 c 128,-1,4
 867 1091 867 1091 910 1089 c 128,-1,5
 953 1087 953 1087 995 1087 c 0,6,7
 1072 1087 1072 1087 1085 1164 c 2,8,-1
 1110 1311 l 1,9,-1
 1156 1311 l 1,10,-1
 1131 1164 l 2,11,12
 1124 1125 1124 1125 1105 1097.5 c 128,-1,13
 1086 1070 1086 1070 1056.5 1056 c 128,-1,14
 1027 1042 1027 1042 988 1042 c 0,15,16
 902 1043 902 1043 817.5 1050.5 c 128,-1,17
 733 1058 733 1058 647 1063 c 1,0,-1
471 -20 m 0,18,19
 354 -20 354 -20 268 36.5 c 128,-1,20
 182 93 182 93 135 192.5 c 128,-1,21
 88 292 88 292 88 422 c 0,22,23
 88 548 88 548 129.5 669 c 128,-1,24
 171 790 171 790 247 888 c 128,-1,25
 323 986 323 986 426.5 1044.5 c 128,-1,26
 530 1103 530 1103 653 1103 c 0,27,28
 770 1103 770 1103 855 1047 c 128,-1,29
 940 991 940 991 987.5 892 c 128,-1,30
 1035 793 1035 793 1035 663 c 0,31,32
 1035 537 1035 537 993.5 415.5 c 128,-1,33
 952 294 952 294 876.5 195.5 c 128,-1,34
 801 97 801 97 697.5 38.5 c 128,-1,35
 594 -20 594 -20 471 -20 c 0,18,19
471 27 m 0,36,37
 585 27 585 27 679.5 81.5 c 128,-1,38
 774 136 774 136 843.5 227.5 c 128,-1,39
 913 319 913 319 951 432.5 c 128,-1,40
 989 546 989 546 989 662 c 0,41,42
 989 781 989 781 948.5 869.5 c 128,-1,43
 908 958 908 958 832.5 1008 c 128,-1,44
 757 1058 757 1058 653 1058 c 0,45,46
 542 1058 542 1058 447.5 1004.5 c 128,-1,47
 353 951 353 951 282.5 860.5 c 128,-1,48
 212 770 212 770 173 656.5 c 128,-1,49
 134 543 134 543 134 423 c 0,50,51
 134 244 134 244 224.5 135.5 c 128,-1,52
 315 27 315 27 471 27 c 0,36,37
EndSplineSet
EndChar

StartChar: uni1EE1
Encoding: 7905 7905 795
Width: 1122
GlyphClass: 2
Flags: W
AnchorPoint: "Anchor-4" 1025 542 basechar 0
AnchorPoint: "Anchor-1" 720 1494 basechar 0
AnchorPoint: "Anchor-0" 473 0 basechar 0
LayerCount: 2
Fore
SplineSet
471 -20 m 0,0,1
 354 -20 354 -20 268 36.5 c 128,-1,2
 182 93 182 93 135 192.5 c 128,-1,3
 88 292 88 292 88 422 c 0,4,5
 88 548 88 548 129.5 669 c 128,-1,6
 171 790 171 790 247 888 c 128,-1,7
 323 986 323 986 426.5 1044.5 c 128,-1,8
 530 1103 530 1103 653 1103 c 0,9,10
 770 1103 770 1103 855 1047 c 128,-1,11
 940 991 940 991 987.5 892 c 128,-1,12
 1035 793 1035 793 1035 663 c 0,13,14
 1035 537 1035 537 993.5 415.5 c 128,-1,15
 952 294 952 294 876.5 195.5 c 128,-1,16
 801 97 801 97 697.5 38.5 c 128,-1,17
 594 -20 594 -20 471 -20 c 0,0,1
471 27 m 0,18,19
 585 27 585 27 679.5 81.5 c 128,-1,20
 774 136 774 136 843.5 227.5 c 128,-1,21
 913 319 913 319 951 432.5 c 128,-1,22
 989 546 989 546 989 662 c 0,23,24
 989 781 989 781 948.5 869.5 c 128,-1,25
 908 958 908 958 832.5 1008 c 128,-1,26
 757 1058 757 1058 653 1058 c 0,27,28
 542 1058 542 1058 447.5 1004.5 c 128,-1,29
 353 951 353 951 282.5 860.5 c 128,-1,30
 212 770 212 770 173 656.5 c 128,-1,31
 134 543 134 543 134 423 c 0,32,33
 134 244 134 244 224.5 135.5 c 128,-1,34
 315 27 315 27 471 27 c 0,18,19
647 1063 m 1,35,-1
 653 1103 l 1,36,37
 697 1101 697 1101 739 1098.5 c 128,-1,38
 781 1096 781 1096 824 1093.5 c 128,-1,39
 867 1091 867 1091 910 1089 c 128,-1,40
 953 1087 953 1087 995 1087 c 0,41,42
 1072 1087 1072 1087 1085 1164 c 2,43,-1
 1110 1311 l 1,44,-1
 1156 1311 l 1,45,-1
 1131 1164 l 2,46,47
 1124 1125 1124 1125 1105 1097.5 c 128,-1,48
 1086 1070 1086 1070 1056.5 1056 c 128,-1,49
 1027 1042 1027 1042 988 1042 c 0,50,51
 902 1043 902 1043 817.5 1050.5 c 128,-1,52
 733 1058 733 1058 647 1063 c 1,35,-1
820 1317 m 0,53,54
 778 1317 778 1317 750 1335.5 c 128,-1,55
 722 1354 722 1354 699.5 1377 c 128,-1,56
 677 1400 677 1400 653 1417.5 c 128,-1,57
 629 1435 629 1435 594 1435 c 0,58,59
 545 1435 545 1435 509 1406 c 128,-1,60
 473 1377 473 1377 460 1325 c 1,61,-1
 414 1325 l 1,62,63
 431 1393 431 1393 480.5 1437.5 c 128,-1,64
 530 1482 530 1482 594 1482 c 0,65,66
 641 1482 641 1482 670.5 1463.5 c 128,-1,67
 700 1445 700 1445 722 1422.5 c 128,-1,68
 744 1400 744 1400 766 1381.5 c 128,-1,69
 788 1363 788 1363 819 1363 c 0,70,71
 862 1363 862 1363 893.5 1388.5 c 128,-1,72
 925 1414 925 1414 947 1471 c 1,73,-1
 994 1471 l 1,74,75
 970 1399 970 1399 923.5 1358 c 128,-1,76
 877 1317 877 1317 820 1317 c 0,53,54
EndSplineSet
Ligature2: "'ccmp' Glyph Composition/Decomposition in Latin lookup 6 subtable" ohorn tildecomb
EndChar

StartChar: obar
Encoding: 629 629 808
Width: 1122
GlyphClass: 2
Flags: W
AnchorPoint: "Anchor-4" 1025 542 basechar 0
AnchorPoint: "Anchor-1" 653 1087 basechar 0
AnchorPoint: "Anchor-0" 473 0 basechar 0
LayerCount: 2
Fore
SplineSet
1001 567 m 1,0,-1
 993 521 l 1,1,-1
 123 521 l 1,2,-1
 131 567 l 1,3,-1
 1001 567 l 1,0,-1
471 -20 m 0,4,5
 354 -20 354 -20 268 36.5 c 128,-1,6
 182 93 182 93 135 192.5 c 128,-1,7
 88 292 88 292 88 422 c 0,8,9
 88 548 88 548 129.5 669 c 128,-1,10
 171 790 171 790 247 888 c 128,-1,11
 323 986 323 986 426.5 1044.5 c 128,-1,12
 530 1103 530 1103 653 1103 c 0,13,14
 770 1103 770 1103 855 1047 c 128,-1,15
 940 991 940 991 987.5 892 c 128,-1,16
 1035 793 1035 793 1035 663 c 0,17,18
 1035 537 1035 537 993.5 415.5 c 128,-1,19
 952 294 952 294 876.5 195.5 c 128,-1,20
 801 97 801 97 697.5 38.5 c 128,-1,21
 594 -20 594 -20 471 -20 c 0,4,5
471 27 m 0,22,23
 585 27 585 27 679.5 81.5 c 128,-1,24
 774 136 774 136 843.5 227.5 c 128,-1,25
 913 319 913 319 951 432.5 c 128,-1,26
 989 546 989 546 989 662 c 0,27,28
 989 781 989 781 948.5 869.5 c 128,-1,29
 908 958 908 958 832.5 1008 c 128,-1,30
 757 1058 757 1058 653 1058 c 0,31,32
 542 1058 542 1058 447.5 1004.5 c 128,-1,33
 353 951 353 951 282.5 860.5 c 128,-1,34
 212 770 212 770 173 656.5 c 128,-1,35
 134 543 134 543 134 423 c 0,36,37
 134 244 134 244 224.5 135.5 c 128,-1,38
 315 27 315 27 471 27 c 0,22,23
EndSplineSet
EndChar

StartChar: oe.sc
Encoding: 60954 60954 812
Width: 1410
GlyphClass: 2
Flags: W
AnchorPoint: "Anchor-4" 1249 0 basechar 0
AnchorPoint: "Anchor-3" 922 0 basechar 0
AnchorPoint: "Anchor-1" 1102 1087 basechar 0
AnchorPoint: "Anchor-0" 923 0 basechar 0
LayerCount: 2
Fore
SplineSet
596 0 m 1,0,-1
 776 1087 l 1,1,-1
 1421 1087 l 1,2,-1
 1414 1042 l 1,3,-1
 816 1042 l 1,4,-1
 739 572 l 1,5,-1
 1292 572 l 1,6,-1
 1284 528 l 1,7,-1
 731 528 l 1,8,-1
 652 44 l 1,9,-1
 1256 44 l 1,10,-1
 1249 0 l 1,11,-1
 596 0 l 1,0,-1
478 0 m 2,12,13
 338 0 338 0 243.5 68.5 c 128,-1,14
 149 137 149 137 110.5 259.5 c 128,-1,15
 72 382 72 382 99 543 c 0,16,17
 125 708 125 708 204 830 c 128,-1,18
 283 952 283 952 399 1019.5 c 128,-1,19
 515 1087 515 1087 656 1087 c 2,20,-1
 799 1087 l 1,21,-1
 791 1042 l 1,22,-1
 649 1042 l 2,23,24
 524 1042 524 1042 418.5 979.5 c 128,-1,25
 313 917 313 917 241.5 805 c 128,-1,26
 170 693 170 693 144 543 c 0,27,28
 120 395 120 395 153 283 c 128,-1,29
 186 171 186 171 270.5 108.5 c 128,-1,30
 355 46 355 46 485 45 c 2,31,-1
 627 45 l 1,32,-1
 618 0 l 1,33,-1
 478 0 l 2,12,13
EndSplineSet
EndChar

StartChar: p
Encoding: 112 112 814
Width: 1156
GlyphClass: 2
Flags: W
AnchorPoint: "Anchor-1" 698 1087 basechar 0
AnchorPoint: "Anchor-0" 30 -417 basechar 0
LayerCount: 2
Fore
SplineSet
7 -418 m 1,0,-1
 256 1087 l 1,1,-1
 302 1087 l 1,2,-1
 255 801 l 1,3,-1
 258 801 l 1,4,5
 297 891 297 891 365 959 c 128,-1,6
 433 1027 433 1027 519.5 1065 c 128,-1,7
 606 1103 606 1103 699 1103 c 0,8,9
 813 1103 813 1103 895.5 1049 c 128,-1,10
 978 995 978 995 1023 898.5 c 128,-1,11
 1068 802 1068 802 1068 672 c 0,12,13
 1068 548 1068 548 1029.5 425 c 128,-1,14
 991 302 991 302 919 201.5 c 128,-1,15
 847 101 847 101 746 40.5 c 128,-1,16
 645 -20 645 -20 519 -20 c 0,17,18
 423 -20 423 -20 349.5 18.5 c 128,-1,19
 276 57 276 57 230.5 125 c 128,-1,20
 185 193 185 193 173 281 c 1,21,-1
 169 281 l 1,22,-1
 53 -418 l 1,23,-1
 7 -418 l 1,0,-1
520 26 m 0,24,25
 635 26 635 26 727 82.5 c 128,-1,26
 819 139 819 139 885.5 232.5 c 128,-1,27
 952 326 952 326 987 440.5 c 128,-1,28
 1022 555 1022 555 1022 671 c 0,29,30
 1022 847 1022 847 935 952.5 c 128,-1,31
 848 1058 848 1058 698 1058 c 0,32,33
 582 1058 582 1058 490 1001 c 128,-1,34
 398 944 398 944 333 849.5 c 128,-1,35
 268 755 268 755 234 640 c 128,-1,36
 200 525 200 525 200 409 c 0,37,38
 200 236 200 236 284.5 131 c 128,-1,39
 369 26 369 26 520 26 c 0,24,25
EndSplineSet
Substitution2: "'sups' Superscript in Latin lookup 39 subtable" p.sups
Substitution2: "'subs' Subscript in Latin lookup 38 subtable" p.subs
Substitution2: "'sinf' Scientific Inferiors in Latin lookup 18 subtable" p.subs
AlternateSubs2: "'aalt' Access All Alternates in Latin lookup 1 subtable" p.sups p.subs
EndChar

StartChar: uni048F
Encoding: 1167 1167 815
Width: 1180
GlyphClass: 2
Flags: W
AnchorPoint: "Anchor-1" 690 1087 basechar 0
AnchorPoint: "Anchor-0" 22 -417 basechar 0
LayerCount: 2
Fore
SplineSet
694 260 m 1,0,-1
 929 -14 l 1,1,-1
 893 -49 l 1,2,-1
 659 227 l 1,3,-1
 694 260 l 1,0,-1
-1 -418 m 1,4,-1
 248 1087 l 1,5,-1
 294 1087 l 1,6,-1
 247 801 l 1,7,-1
 250 801 l 1,8,9
 289 891 289 891 357 959 c 128,-1,10
 425 1027 425 1027 511.5 1065 c 128,-1,11
 598 1103 598 1103 691 1103 c 0,12,13
 805 1103 805 1103 887.5 1049 c 128,-1,14
 970 995 970 995 1015 898.5 c 128,-1,15
 1060 802 1060 802 1060 672 c 0,16,17
 1060 548 1060 548 1021.5 425 c 128,-1,18
 983 302 983 302 911 201.5 c 128,-1,19
 839 101 839 101 738 40.5 c 128,-1,20
 637 -20 637 -20 511 -20 c 0,21,22
 415 -20 415 -20 341.5 18.5 c 128,-1,23
 268 57 268 57 222.5 125 c 128,-1,24
 177 193 177 193 165 281 c 1,25,-1
 161 281 l 1,26,-1
 45 -418 l 1,27,-1
 -1 -418 l 1,4,-1
512 26 m 0,28,29
 627 26 627 26 719 82.5 c 128,-1,30
 811 139 811 139 877.5 232.5 c 128,-1,31
 944 326 944 326 979 440.5 c 128,-1,32
 1014 555 1014 555 1014 671 c 0,33,34
 1014 847 1014 847 927 952.5 c 128,-1,35
 840 1058 840 1058 690 1058 c 0,36,37
 574 1058 574 1058 482 1001 c 128,-1,38
 390 944 390 944 325 849.5 c 128,-1,39
 260 755 260 755 226 640 c 128,-1,40
 192 525 192 525 192 409 c 0,41,42
 192 236 192 236 276.5 131 c 128,-1,43
 361 26 361 26 512 26 c 0,28,29
EndSplineSet
EndChar

StartChar: uni01A5
Encoding: 421 421 816
Width: 1156
GlyphClass: 2
Flags: W
AnchorPoint: "Anchor-1" 698 1087 basechar 0
AnchorPoint: "Anchor-0" 30 -417 basechar 0
LayerCount: 2
Fore
SplineSet
219 858 m 1,0,-1
 257 1088 l 1,1,-1
 285 1262 l 2,2,3
 302 1363 302 1363 356.5 1411 c 128,-1,4
 411 1459 411 1459 503 1459 c 0,5,6
 517 1459 517 1459 537.5 1459.5 c 128,-1,7
 558 1460 558 1460 575 1460 c 1,8,-1
 567 1413 l 1,9,10
 548 1413 548 1413 527.5 1413 c 128,-1,11
 507 1413 507 1413 494 1413 c 0,12,13
 423 1413 423 1413 384 1378.5 c 128,-1,14
 345 1344 345 1344 332 1262 c 2,15,-1
 302 1087 l 1,16,-1
 265 858 l 1,17,-1
 219 858 l 1,0,-1
7 -418 m 1,18,-1
 256 1087 l 1,19,-1
 302 1087 l 1,20,-1
 255 801 l 1,21,-1
 258 801 l 1,22,23
 297 891 297 891 365 959 c 128,-1,24
 433 1027 433 1027 519.5 1065 c 128,-1,25
 606 1103 606 1103 699 1103 c 0,26,27
 813 1103 813 1103 895.5 1049 c 128,-1,28
 978 995 978 995 1023 898.5 c 128,-1,29
 1068 802 1068 802 1068 672 c 0,30,31
 1068 548 1068 548 1029.5 425 c 128,-1,32
 991 302 991 302 919 201.5 c 128,-1,33
 847 101 847 101 746 40.5 c 128,-1,34
 645 -20 645 -20 519 -20 c 0,35,36
 423 -20 423 -20 349.5 18.5 c 128,-1,37
 276 57 276 57 230.5 125 c 128,-1,38
 185 193 185 193 173 281 c 1,39,-1
 169 281 l 1,40,-1
 53 -418 l 1,41,-1
 7 -418 l 1,18,-1
520 26 m 0,42,43
 635 26 635 26 727 82.5 c 128,-1,44
 819 139 819 139 885.5 232.5 c 128,-1,45
 952 326 952 326 987 440.5 c 128,-1,46
 1022 555 1022 555 1022 671 c 0,47,48
 1022 847 1022 847 935 952.5 c 128,-1,49
 848 1058 848 1058 698 1058 c 0,50,51
 582 1058 582 1058 490 1001 c 128,-1,52
 398 944 398 944 333 849.5 c 128,-1,53
 268 755 268 755 234 640 c 128,-1,54
 200 525 200 525 200 409 c 0,55,56
 200 236 200 236 284.5 131 c 128,-1,57
 369 26 369 26 520 26 c 0,42,43
EndSplineSet
EndChar

StartChar: q
Encoding: 113 113 820
Width: 1155
GlyphClass: 2
Flags: W
AnchorPoint: "Anchor-1" 669 1087 basechar 0
AnchorPoint: "Anchor-0" 807 -417 basechar 0
LayerCount: 2
Fore
SplineSet
830 -418 m 1,0,-1
 784 -418 l 1,1,-1
 900 280 l 1,2,-1
 896 280 l 1,3,4
 855 191 855 191 788 123.5 c 128,-1,5
 721 56 721 56 636 18 c 128,-1,6
 551 -20 551 -20 457 -20 c 0,7,8
 343 -20 343 -20 260 33.5 c 128,-1,9
 177 87 177 87 132 184 c 128,-1,10
 87 281 87 281 87 411 c 0,11,12
 87 537 87 537 126 660 c 128,-1,13
 165 783 165 783 237.5 883 c 128,-1,14
 310 983 310 983 411 1043 c 128,-1,15
 512 1103 512 1103 636 1103 c 0,16,17
 732 1103 732 1103 806 1065 c 128,-1,18
 880 1027 880 1027 926 958.5 c 128,-1,19
 972 890 972 890 982 802 c 1,20,-1
 986 802 l 1,21,-1
 1034 1087 l 1,22,-1
 1079 1087 l 1,23,-1
 830 -418 l 1,0,-1
457 26 m 0,24,25
 574 26 574 26 666.5 83.5 c 128,-1,26
 759 141 759 141 823.5 236 c 128,-1,27
 888 331 888 331 922 446 c 128,-1,28
 956 561 956 561 956 676 c 0,29,30
 956 849 956 849 872 953.5 c 128,-1,31
 788 1058 788 1058 638 1058 c 0,32,33
 524 1058 524 1058 431 1001.5 c 128,-1,34
 338 945 338 945 271 851.5 c 128,-1,35
 204 758 204 758 168.5 643.5 c 128,-1,36
 133 529 133 529 133 412 c 0,37,38
 133 237 133 237 219.5 131.5 c 128,-1,39
 306 26 306 26 457 26 c 0,24,25
EndSplineSet
Substitution2: "'sups' Superscript in Latin lookup 39 subtable" q.sups
Substitution2: "'subs' Subscript in Latin lookup 38 subtable" q.subs
Substitution2: "'sinf' Scientific Inferiors in Latin lookup 18 subtable" q.subs
AlternateSubs2: "'aalt' Access All Alternates in Latin lookup 1 subtable" q.sups q.subs
EndChar

StartChar: uni02A0
Encoding: 672 672 821
Width: 1155
GlyphClass: 2
Flags: W
AnchorPoint: "Anchor-1" 669 1087 basechar 0
AnchorPoint: "Anchor-0" 807 -417 basechar 0
LayerCount: 2
Fore
SplineSet
996 858 m 1,0,-1
 1034 1088 l 1,1,-1
 1062 1262 l 2,2,3
 1079 1363 1079 1363 1133.5 1411 c 128,-1,4
 1188 1459 1188 1459 1280 1459 c 0,5,6
 1294 1459 1294 1459 1314.5 1459.5 c 128,-1,7
 1335 1460 1335 1460 1352 1460 c 1,8,-1
 1344 1413 l 1,9,10
 1325 1413 1325 1413 1304.5 1413 c 128,-1,11
 1284 1413 1284 1413 1271 1413 c 0,12,13
 1200 1413 1200 1413 1161 1378.5 c 128,-1,14
 1122 1344 1122 1344 1109 1262 c 2,15,-1
 1079 1087 l 1,16,-1
 1042 858 l 1,17,-1
 996 858 l 1,0,-1
830 -418 m 1,18,-1
 784 -418 l 1,19,-1
 900 280 l 1,20,-1
 896 280 l 1,21,22
 855 191 855 191 788 123.5 c 128,-1,23
 721 56 721 56 636 18 c 128,-1,24
 551 -20 551 -20 457 -20 c 0,25,26
 343 -20 343 -20 260 33.5 c 128,-1,27
 177 87 177 87 132 184 c 128,-1,28
 87 281 87 281 87 411 c 0,29,30
 87 537 87 537 126 660 c 128,-1,31
 165 783 165 783 237.5 883 c 128,-1,32
 310 983 310 983 411 1043 c 128,-1,33
 512 1103 512 1103 636 1103 c 0,34,35
 732 1103 732 1103 806 1065 c 128,-1,36
 880 1027 880 1027 926 958.5 c 128,-1,37
 972 890 972 890 982 802 c 1,38,-1
 986 802 l 1,39,-1
 1034 1087 l 1,40,-1
 1079 1087 l 1,41,-1
 830 -418 l 1,18,-1
457 26 m 0,42,43
 574 26 574 26 666.5 83.5 c 128,-1,44
 759 141 759 141 823.5 236 c 128,-1,45
 888 331 888 331 922 446 c 128,-1,46
 956 561 956 561 956 676 c 0,47,48
 956 849 956 849 872 953.5 c 128,-1,49
 788 1058 788 1058 638 1058 c 0,50,51
 524 1058 524 1058 431 1001.5 c 128,-1,52
 338 945 338 945 271 851.5 c 128,-1,53
 204 758 204 758 168.5 643.5 c 128,-1,54
 133 529 133 529 133 412 c 0,55,56
 133 237 133 237 219.5 131.5 c 128,-1,57
 306 26 306 26 457 26 c 0,42,43
EndSplineSet
EndChar

StartChar: qrthook
Encoding: 587 587 822
Width: 1156
GlyphClass: 2
Flags: W
AnchorPoint: "Anchor-4" 899 0 basechar 0
AnchorPoint: "Anchor-1" 645 1087 basechar 0
AnchorPoint: "Anchor-0" 476 0 basechar 0
LayerCount: 2
Fore
SplineSet
968 -417 m 0,0,1
 876 -417 876 -417 838 -369 c 128,-1,2
 800 -321 800 -321 817 -219 c 2,3,-1
 901 290 l 1,4,-1
 947 290 l 1,5,-1
 863 -219 l 2,6,7
 850 -302 850 -302 876.5 -337 c 128,-1,8
 903 -372 903 -372 975 -372 c 0,9,10
 988 -372 988 -372 1008 -372 c 128,-1,11
 1028 -372 1028 -372 1047 -372 c 1,12,-1
 1040 -418 l 1,13,14
 1023 -418 1023 -418 1002.5 -417.5 c 128,-1,15
 982 -417 982 -417 968 -417 c 0,0,1
453 -20 m 0,16,17
 321 -20 321 -20 232 51.5 c 128,-1,18
 143 123 143 123 107 250 c 128,-1,19
 71 377 71 377 99 543 c 0,20,21
 126 706 126 706 204.5 833 c 128,-1,22
 283 960 283 960 396 1031.5 c 128,-1,23
 509 1103 509 1103 640 1103 c 0,24,25
 734 1103 734 1103 808 1064.5 c 128,-1,26
 882 1026 882 1026 927.5 958.5 c 128,-1,27
 973 891 973 891 982 802 c 1,28,-1
 985 802 l 1,29,-1
 1033 1087 l 1,30,-1
 1079 1087 l 1,31,-1
 899 0 l 1,32,-1
 853 0 l 1,33,-1
 899 281 l 1,34,-1
 895 281 l 1,35,36
 856 193 856 193 788 125 c 128,-1,37
 720 57 720 57 634.5 18.5 c 128,-1,38
 549 -20 549 -20 453 -20 c 0,16,17
458 26 m 0,39,40
 578 26 578 26 678.5 92 c 128,-1,41
 779 158 779 158 848 274 c 128,-1,42
 917 390 917 390 943 543 c 0,43,44
 968 695 968 695 939 811 c 128,-1,45
 910 927 910 927 833 992.5 c 128,-1,46
 756 1058 756 1058 636 1058 c 0,47,48
 518 1058 518 1058 415.5 992.5 c 128,-1,49
 313 927 313 927 241.5 810.5 c 128,-1,50
 170 694 170 694 144 543 c 0,51,52
 119 391 119 391 150 274.5 c 128,-1,53
 181 158 181 158 260 92 c 128,-1,54
 339 26 339 26 458 26 c 0,39,40
EndSplineSet
EndChar

StartChar: r
Encoding: 114 114 823
Width: 603
GlyphClass: 2
Flags: W
AnchorPoint: "Anchor-1" 487 1087 basechar 0
AnchorPoint: "Anchor-0" 101 0 basechar 0
LayerCount: 2
Fore
SplineSet
77 0 m 1,0,-1
 257 1087 l 1,1,-1
 303 1087 l 1,2,-1
 272 900 l 1,3,-1
 276 900 l 1,4,5
 330 991 330 991 430 1044 c 128,-1,6
 530 1097 530 1097 644 1097 c 0,7,8
 654 1097 654 1097 657 1097 c 128,-1,9
 660 1097 660 1097 669 1098 c 1,10,-1
 661 1051 l 1,11,12
 656 1052 656 1052 651 1051.5 c 128,-1,13
 646 1051 646 1051 637 1051 c 0,14,15
 539 1051 539 1051 454.5 1008 c 128,-1,16
 370 965 370 965 314 889 c 128,-1,17
 258 813 258 813 242 715 c 2,18,-1
 123 0 l 1,19,-1
 77 0 l 1,0,-1
EndSplineSet
Substitution2: "'smcp' Lowercase to Small Capitals in Latin lookup 68 subtable" r.sc
Substitution2: "'c2sc' Capitals to Small Capitals in Latin lookup 67 subtable" r.sc
Substitution2: "'sups' Superscript in Latin lookup 39 subtable" r.sups
Substitution2: "'subs' Subscript in Latin lookup 38 subtable" r.subs
Substitution2: "'sinf' Scientific Inferiors in Latin lookup 18 subtable" r.subs
AlternateSubs2: "'aalt' Access All Alternates in Latin lookup 1 subtable" r.sc r.sups r.subs
EndChar

StartChar: rrthook
Encoding: 57437 57437 824
Width: 603
GlyphClass: 2
Flags: W
AnchorPoint: "Anchor-1" 487 1087 basechar 0
AnchorPoint: "Anchor-0" 101 0 basechar 0
LayerCount: 2
Fore
SplineSet
192 -417 m 0,0,1
 100 -417 100 -417 62 -369.5 c 128,-1,2
 24 -322 24 -322 41 -219 c 2,3,-1
 77 0 l 1,4,-1
 123 0 l 1,5,-1
 87 -219 l 2,6,7
 74 -301 74 -301 100.5 -336.5 c 128,-1,8
 127 -372 127 -372 199 -372 c 0,9,10
 212 -372 212 -372 232 -372 c 128,-1,11
 252 -372 252 -372 271 -372 c 1,12,-1
 264 -418 l 1,13,14
 247 -418 247 -418 226.5 -417.5 c 128,-1,15
 206 -417 206 -417 192 -417 c 0,0,1
77 0 m 1,16,-1
 257 1087 l 1,17,-1
 303 1087 l 1,18,-1
 272 900 l 1,19,-1
 276 900 l 1,20,21
 330 991 330 991 430 1044 c 128,-1,22
 530 1097 530 1097 644 1097 c 0,23,24
 654 1097 654 1097 657 1097 c 128,-1,25
 660 1097 660 1097 669 1098 c 1,26,-1
 661 1051 l 1,27,28
 656 1052 656 1052 651 1051.5 c 128,-1,29
 646 1051 646 1051 637 1051 c 0,30,31
 539 1051 539 1051 454.5 1008 c 128,-1,32
 370 965 370 965 314 889 c 128,-1,33
 258 813 258 813 242 715 c 2,34,-1
 123 0 l 1,35,-1
 77 0 l 1,16,-1
EndSplineSet
EndChar

StartChar: rturn
Encoding: 633 633 826
Width: 603
GlyphClass: 2
Flags: W
AnchorPoint: "Anchor-1" 505 1087 basechar 0
AnchorPoint: "Anchor-0" 248 0 basechar 0
LayerCount: 2
Fore
SplineSet
527 1087 m 1,0,-1
 347 0 l 1,1,-1
 301 0 l 1,2,-1
 332 188 l 1,3,-1
 329 188 l 1,4,5
 274 98 274 98 174.5 44 c 128,-1,6
 75 -10 75 -10 -41 -10 c 0,7,8
 -50 -10 -50 -10 -52.5 -9.5 c 128,-1,9
 -55 -9 -55 -9 -64 -9 c 1,10,-1
 -57 36 l 1,11,12
 -51 37 -51 37 -46.5 36.5 c 128,-1,13
 -42 36 -42 36 -33 36 c 0,14,15
 66 36 66 36 149.5 80 c 128,-1,16
 233 124 233 124 290 199.5 c 128,-1,17
 347 275 347 275 363 372 c 2,18,-1
 481 1087 l 1,19,-1
 527 1087 l 1,0,-1
EndSplineSet
EndChar

StartChar: rturnrthook
Encoding: 635 635 827
Width: 603
GlyphClass: 2
Flags: W
AnchorPoint: "Anchor-1" 505 1087 basechar 0
AnchorPoint: "Anchor-0" 248 0 basechar 0
LayerCount: 2
Fore
SplineSet
416 -417 m 0,0,1
 324 -417 324 -417 286 -369.5 c 128,-1,2
 248 -322 248 -322 265 -219 c 2,3,-1
 301 0 l 1,4,-1
 347 0 l 1,5,-1
 311 -219 l 2,6,7
 298 -302 298 -302 324.5 -337 c 128,-1,8
 351 -372 351 -372 423 -372 c 0,9,10
 436 -372 436 -372 456 -372 c 128,-1,11
 476 -372 476 -372 495 -372 c 1,12,-1
 488 -418 l 1,13,14
 477 -418 477 -418 463.5 -417.5 c 128,-1,15
 450 -417 450 -417 437.5 -417 c 128,-1,16
 425 -417 425 -417 416 -417 c 0,0,1
527 1087 m 1,17,-1
 347 0 l 1,18,-1
 301 0 l 1,19,-1
 332 188 l 1,20,-1
 329 188 l 1,21,22
 274 98 274 98 174.5 44 c 128,-1,23
 75 -10 75 -10 -41 -10 c 0,24,25
 -50 -10 -50 -10 -52.5 -9.5 c 128,-1,26
 -55 -9 -55 -9 -64 -9 c 1,27,-1
 -57 36 l 1,28,29
 -51 37 -51 37 -46.5 36.5 c 128,-1,30
 -42 36 -42 36 -33 36 c 0,31,32
 66 36 66 36 149.5 80 c 128,-1,33
 233 124 233 124 290 199.5 c 128,-1,34
 347 275 347 275 363 372 c 2,35,-1
 481 1087 l 1,36,-1
 527 1087 l 1,17,-1
EndSplineSet
EndChar

StartChar: rfishhookrev
Encoding: 639 639 828
Width: 611
Flags: W
LayerCount: 2
Fore
SplineSet
308 0 m 1,0,-1
 436 775 l 2,1,2
 454 885 454 885 423 954 c 128,-1,3
 392 1023 392 1023 320.5 1055 c 128,-1,4
 249 1087 249 1087 148 1087 c 0,5,6
 140 1087 140 1087 133 1087 c 128,-1,7
 126 1087 126 1087 117 1087 c 1,8,-1
 124 1132 l 1,9,10
 130 1132 130 1132 132.5 1132 c 128,-1,11
 135 1132 135 1132 139 1132 c 128,-1,12
 143 1132 143 1132 148 1132 c 0,13,14
 232 1132 232 1132 300.5 1110.5 c 128,-1,15
 369 1089 369 1089 415 1045 c 128,-1,16
 461 1001 461 1001 479 931 c 128,-1,17
 497 861 497 861 481 766 c 2,18,-1
 355 0 l 1,19,-1
 308 0 l 1,0,-1
EndSplineSet
EndChar

StartChar: uni027E
Encoding: 638 638 829
Width: 604
Flags: W
LayerCount: 2
Fore
SplineSet
77 0 m 1,0,-1
 205 774 l 2,1,2
 226 898 226 898 287.5 977 c 128,-1,3
 349 1056 349 1056 442 1094 c 128,-1,4
 535 1132 535 1132 650 1132 c 0,5,6
 656 1132 656 1132 659 1132 c 128,-1,7
 662 1132 662 1132 665 1132 c 128,-1,8
 668 1132 668 1132 674 1132 c 1,9,-1
 667 1087 l 1,10,11
 658 1087 658 1087 654.5 1087 c 128,-1,12
 651 1087 651 1087 643 1087 c 0,13,14
 541 1087 541 1087 459 1054.5 c 128,-1,15
 377 1022 377 1022 323.5 953 c 128,-1,16
 270 884 270 884 251 775 c 2,17,-1
 123 0 l 1,18,-1
 77 0 l 1,0,-1
EndSplineSet
EndChar

StartChar: rdescend
Encoding: 57438 57438 830
Width: 604
GlyphClass: 2
Flags: W
AnchorPoint: "Anchor-1" 488 1087 basechar 0
AnchorPoint: "Anchor-0" 101 0 basechar 0
LayerCount: 2
Fore
SplineSet
9 -418 m 1,0,-1
 77 0 l 1,1,-1
 124 0 l 1,2,-1
 54 -418 l 1,3,-1
 9 -418 l 1,0,-1
78 0 m 1,4,-1
 258 1087 l 1,5,-1
 304 1087 l 1,6,-1
 273 900 l 1,7,-1
 276 900 l 1,8,9
 330 991 330 991 430 1044 c 128,-1,10
 530 1097 530 1097 645 1097 c 0,11,12
 654 1097 654 1097 657 1097 c 128,-1,13
 660 1097 660 1097 669 1098 c 1,14,-1
 662 1051 l 1,15,16
 656 1052 656 1052 651.5 1051.5 c 128,-1,17
 647 1051 647 1051 638 1051 c 0,18,19
 540 1051 540 1051 455.5 1008 c 128,-1,20
 371 965 371 965 314.5 889 c 128,-1,21
 258 813 258 813 242 715 c 2,22,-1
 124 0 l 1,23,-1
 78 0 l 1,4,-1
EndSplineSet
EndChar

StartChar: r.sc
Encoding: 60955 60955 840
Width: 944
GlyphClass: 2
Flags: W
AnchorPoint: "Anchor-1" 571 1087 basechar 0
AnchorPoint: "Anchor-0" 400 0 basechar 0
LayerCount: 2
Fore
SplineSet
77 0 m 1,0,-1
 257 1087 l 1,1,-1
 609 1087 l 2,2,3
 704 1087 704 1087 771 1049 c 128,-1,4
 838 1011 838 1011 869 941 c 128,-1,5
 900 871 900 871 884 776 c 0,6,7
 869 681 869 681 815 610.5 c 128,-1,8
 761 540 761 540 681 501.5 c 128,-1,9
 601 463 601 463 505 463 c 2,10,-1
 177 463 l 1,11,-1
 185 508 l 1,12,-1
 507 508 l 2,13,14
 633 508 633 508 726 581 c 128,-1,15
 819 654 819 654 838 775 c 0,16,17
 858 895 858 895 795.5 969 c 128,-1,18
 733 1043 733 1043 607 1043 c 2,19,-1
 296 1043 l 1,20,-1
 123 0 l 1,21,-1
 77 0 l 1,0,-1
738 0 m 1,22,-1
 548 494 l 1,23,-1
 597 494 l 1,24,-1
 787 0 l 1,25,-1
 738 0 l 1,22,-1
EndSplineSet
EndChar

StartChar: rinv.sc
Encoding: 60956 60956 841
Width: 1027
Flags: W
LayerCount: 2
Fore
SplineSet
77 0 m 1,0,-1
 257 1087 l 1,1,-1
 303 1087 l 1,2,-1
 131 46 l 1,3,-1
 451 46 l 2,4,5
 595 46 595 46 695.5 118 c 128,-1,6
 796 190 796 190 817 316 c 0,7,8
 838 439 838 439 761 510.5 c 128,-1,9
 684 582 684 582 540 582 c 2,10,-1
 198 582 l 1,11,-1
 204 627 l 1,12,-1
 549 627 l 2,13,14
 710 627 710 627 798.5 543 c 128,-1,15
 887 459 887 459 863 316 c 0,16,17
 848 219 848 219 789.5 148.5 c 128,-1,18
 731 78 731 78 642 39 c 128,-1,19
 553 0 553 0 445 0 c 2,20,-1
 77 0 l 1,0,-1
605 595 m 1,21,-1
 996 1087 l 1,22,-1
 1050 1087 l 1,23,-1
 658 595 l 1,24,-1
 605 595 l 1,21,-1
EndSplineSet
EndChar

StartChar: s
Encoding: 115 115 842
Width: 964
GlyphClass: 2
Flags: W
AnchorPoint: "Anchor-3" 399 0 basechar 0
AnchorPoint: "Anchor-1" 581 1087 basechar 0
AnchorPoint: "Anchor-0" 399 0 basechar 0
LayerCount: 2
Fore
SplineSet
392 -19 m 0,0,1
 290 -19 290 -19 218 14.5 c 128,-1,2
 146 48 146 48 107 109.5 c 128,-1,3
 68 171 68 171 65 256 c 0,4,5
 65 266 65 266 65.5 271 c 128,-1,6
 66 276 66 276 66 288 c 1,7,-1
 111 290 l 1,8,9
 105 161 105 161 180 94 c 128,-1,10
 255 27 255 27 393 27 c 0,11,12
 495 27 495 27 581 65.5 c 128,-1,13
 667 104 667 104 719 172 c 128,-1,14
 771 240 771 240 771 327 c 0,15,16
 771 397 771 397 722.5 437 c 128,-1,17
 674 477 674 477 581 501 c 2,18,-1
 410 544 l 2,19,20
 297 573 297 573 238 627.5 c 128,-1,21
 179 682 179 682 179 767 c 0,22,23
 179 866 179 866 234 941.5 c 128,-1,24
 289 1017 289 1017 380.5 1059.5 c 128,-1,25
 472 1102 472 1102 582 1102 c 0,26,27
 721 1102 721 1102 799 1034.5 c 128,-1,28
 877 967 877 967 888 837 c 0,29,30
 888 830 888 830 888 825 c 128,-1,31
 888 820 888 820 887 812 c 1,32,-1
 842 807 l 1,33,34
 840 931 840 931 775.5 994 c 128,-1,35
 711 1057 711 1057 582 1057 c 0,36,37
 486 1057 486 1057 404.5 1020.5 c 128,-1,38
 323 984 323 984 274.5 919 c 128,-1,39
 226 854 226 854 226 769 c 0,40,41
 226 700 226 700 275.5 656 c 128,-1,42
 325 612 325 612 422 587 c 2,43,-1
 596 544 l 2,44,45
 703 518 703 518 760 466 c 128,-1,46
 817 414 817 414 817 330 c 0,47,48
 817 253 817 253 783 189 c 128,-1,49
 749 125 749 125 690 78.5 c 128,-1,50
 631 32 631 32 554.5 6.5 c 128,-1,51
 478 -19 478 -19 392 -19 c 0,0,1
EndSplineSet
Substitution2: "'sups' Superscript in Latin lookup 39 subtable" s.sups
Substitution2: "'subs' Subscript in Latin lookup 38 subtable" s.subs
Substitution2: "'sinf' Scientific Inferiors in Latin lookup 18 subtable" s.subs
AlternateSubs2: "'aalt' Access All Alternates in Latin lookup 1 subtable" s.sups s.subs
EndChar

